<?xml version="1.0" encoding="UTF-8" standalone="no"?>
<!-- Created with Inkscape (http://www.inkscape.org/) -->

<svg
   xmlns:dc="http://purl.org/dc/elements/1.1/"
   xmlns:cc="http://creativecommons.org/ns#"
   xmlns:rdf="http://www.w3.org/1999/02/22-rdf-syntax-ns#"
   xmlns:svg="http://www.w3.org/2000/svg"
   xmlns="http://www.w3.org/2000/svg"
   xmlns:sodipodi="http://sodipodi.sourceforge.net/DTD/sodipodi-0.dtd"
   xmlns:inkscape="http://www.inkscape.org/namespaces/inkscape"
   width="509.15692"
   height="162.12308"
   id="svg2"
   version="1.1"
   inkscape:version="0.48.4 r9939"
   sodipodi:docname="claim1.svg">
  <defs
     id="defs4" />
  <sodipodi:namedview
     id="base"
     pagecolor="#007ca3"
     bordercolor="#666666"
     borderopacity="1.0"
     inkscape:pageopacity="0"
     inkscape:pageshadow="2"
     inkscape:zoom="1.4"
     inkscape:cx="242.95146"
     inkscape:cy="-6.8217261"
     inkscape:document-units="px"
     inkscape:current-layer="layer1"
     showgrid="false"
     fit-margin-top="0"
     fit-margin-left="0"
     fit-margin-right="0"
     fit-margin-bottom="0"
     inkscape:window-width="1920"
     inkscape:window-height="1138"
     inkscape:window-x="-8"
     inkscape:window-y="-8"
     inkscape:window-maximized="1" />
  <metadata
     id="metadata7">
    <rdf:RDF>
      <cc:Work
         rdf:about="">
        <dc:format>image/svg+xml</dc:format>
        <dc:type
           rdf:resource="http://purl.org/dc/dcmitype/StillImage" />
        <dc:title></dc:title>
      </cc:Work>
    </rdf:RDF>
  </metadata>
  <g
     inkscape:label="Layer 1"
     inkscape:groupmode="layer"
     id="layer1"
     transform="translate(-73.822006,-440.04556)">
    <g
       style="font-size:40px;font-style:normal;font-variant:normal;font-weight:normal;font-stretch:normal;line-height:125%;letter-spacing:0px;word-spacing:0px;fill:#ffffff;fill-opacity:1;stroke:none;font-family:Roboto Thin;-inkscape-font-specification:Roboto Thin"
       id="text2985">
      <path
         d="m 78.657539,470.51431 0,-28.4375 7.871094,0 c 3.268214,3e-5 6.041649,1.17191 8.320313,3.51563 2.278623,2.34377 3.417945,5.33205 3.417968,8.96484 l 0,3.47656 c -2.3e-5,3.64585 -1.139345,6.63738 -3.417968,8.97461 -2.278664,2.33724 -5.052099,3.50586 -8.320313,3.50586 z m 1.054688,-27.38281 0,26.32813 6.816406,0 c 2.955715,0 5.475243,-1.08073 7.558594,-3.24219 2.083312,-2.16145 3.124977,-4.88932 3.125,-8.1836 l 0,-3.53515 c -2.3e-5,-3.25519 -1.041688,-5.96352 -3.125,-8.125 -2.083351,-2.16143 -4.602879,-3.24216 -7.558594,-3.24219 z"
         style="font-family:Roboto Thin;-inkscape-font-specification:Roboto Thin;fill:#ffffff"
         id="path3064" />
      <path
         d="m 102.62238,459.53775 c 0,-3.09894 0.85612,-5.63149 2.56836,-7.59766 1.71224,-1.96612 3.93554,-2.94919 6.66992,-2.94921 2.74739,2e-5 4.9772,0.98309 6.68946,2.94921 1.71222,1.96617 2.56834,4.49872 2.56836,7.59766 l 0,0.82031 c -2e-5,3.11199 -0.85614,5.65105 -2.56836,7.61719 -1.71226,1.96615 -3.92905,2.94922 -6.65039,2.94922 -2.74741,0 -4.98048,-0.98307 -6.69922,-2.94922 -1.71875,-1.96614 -2.57813,-4.5052 -2.57813,-7.61719 z m 1.05469,0.82031 c 0,2.65626 0.74218,4.90561 2.22656,6.74805 1.48437,1.84245 3.48307,2.76367 5.9961,2.76367 2.47394,0 4.45311,-0.92448 5.9375,-2.77344 1.48435,-1.84895 2.22654,-4.09504 2.22656,-6.73828 l 0,-0.82031 c -2e-5,-2.59113 -0.74872,-4.82095 -2.24609,-6.68945 -1.49742,-1.86847 -3.48309,-2.80272 -5.95704,-2.80274 -2.48698,2e-5 -4.47266,0.93427 -5.95703,2.80274 -1.48438,1.8685 -2.22656,4.09832 -2.22656,6.68945 z"
         style="font-family:Roboto Thin;-inkscape-font-specification:Roboto Thin;fill:#ffffff"
         id="path3066" />
      <path
         d="m 141.35285,466.68619 0.78125,2.10937 0.11719,0 0.11719,-0.3125 7.30468,-19.10156 1.17188,0 -9.39453,24.64844 c -0.57293,1.48437 -1.24024,2.69205 -2.00196,3.62304 -0.76172,0.93099 -1.97591,1.39648 -3.64257,1.39649 -0.2474,-10e-6 -0.52084,-0.0228 -0.82032,-0.0684 -0.29948,-0.0456 -0.52083,-0.0944 -0.66406,-0.14648 l 0.17578,-0.9961 c 0.14323,0.0391 0.35807,0.0781 0.64453,0.11719 0.28646,0.0391 0.50781,0.0586 0.66407,0.0586 1.19791,0 2.13215,-0.35157 2.80273,-1.05468 0.67057,-0.70314 1.26627,-1.7448 1.78711,-3.125 l 1.26953,-3.4375 -8.41797,-21.01563 1.15235,0 z"
         style="font-family:Roboto Thin;-inkscape-font-specification:Roboto Thin;fill:#ffffff"
         id="path3068" />
      <path
         d="m 153.24738,459.53775 c 0,-3.09894 0.85612,-5.63149 2.56836,-7.59766 1.71224,-1.96612 3.93554,-2.94919 6.66992,-2.94921 2.74739,2e-5 4.9772,0.98309 6.68946,2.94921 1.71222,1.96617 2.56834,4.49872 2.56836,7.59766 l 0,0.82031 c -2e-5,3.11199 -0.85614,5.65105 -2.56836,7.61719 -1.71226,1.96615 -3.92905,2.94922 -6.65039,2.94922 -2.74741,0 -4.98048,-0.98307 -6.69922,-2.94922 -1.71875,-1.96614 -2.57813,-4.5052 -2.57813,-7.61719 z m 1.05469,0.82031 c 0,2.65626 0.74218,4.90561 2.22656,6.74805 1.48437,1.84245 3.48307,2.76367 5.9961,2.76367 2.47394,0 4.45311,-0.92448 5.9375,-2.77344 1.48435,-1.84895 2.22654,-4.09504 2.22656,-6.73828 l 0,-0.82031 c -2e-5,-2.59113 -0.74872,-4.82095 -2.24609,-6.68945 -1.49742,-1.86847 -3.48309,-2.80272 -5.95704,-2.80274 -2.48698,2e-5 -4.47266,0.93427 -5.95703,2.80274 -1.48438,1.8685 -2.22656,4.09832 -2.22656,6.68945 z"
         style="font-family:Roboto Thin;-inkscape-font-specification:Roboto Thin;fill:#ffffff"
         id="path3070" />
      <path
         d="m 190.98176,466.72525 c -0.66408,1.34115 -1.61135,2.3763 -2.8418,3.10547 -1.23048,0.72917 -2.72462,1.09375 -4.48242,1.09375 -2.17449,0 -3.87696,-0.77149 -5.10742,-2.31445 -1.23048,-1.54297 -1.84571,-3.93555 -1.84571,-7.17774 l 0,-12.05078 1.05469,0 0,12.08984 c 0,2.86459 0.52734,4.98048 1.58203,6.34766 1.05468,1.36719 2.48046,2.05078 4.27735,2.05078 2.20051,0 3.88996,-0.54036 5.06836,-1.62109 1.17837,-1.08073 1.93032,-2.51302 2.25586,-4.29688 l 0,-14.57031 1.07421,0 0,21.13281 -0.8789,0 z"
         style="font-family:Roboto Thin;-inkscape-font-specification:Roboto Thin;fill:#ffffff"
         id="path3072" />
      <path
         d="m 217.58332,450.14322 -1.36719,-0.11719 c -1.88803,2e-5 -3.42123,0.60875 -4.59961,1.82617 -1.17839,1.21747 -1.94336,2.82228 -2.29492,4.81446 l 0,13.84765 -1.05469,0 0,-21.13281 0.85938,0 0.19531,3.67188 0,0.72265 c 0.58593,-1.5104 1.45833,-2.68553 2.61719,-3.52539 1.15885,-0.83982 2.58463,-1.25974 4.27734,-1.25976 0.29947,2e-5 0.57616,0.0228 0.83008,0.0684 0.2539,0.0456 0.47199,0.0944 0.6543,0.14649 z"
         style="font-family:Roboto Thin;-inkscape-font-specification:Roboto Thin;fill:#ffffff"
         id="path3074" />
      <path
         d="m 228.7552,470.92447 c -2.40887,0 -4.48894,-0.97331 -6.24024,-2.91992 -1.7513,-1.94661 -2.62695,-4.36523 -2.62695,-7.25586 l 0,-1.25 c 0,-3.03384 0.84635,-5.54361 2.53906,-7.5293 1.6927,-1.98566 3.78254,-2.97849 6.26953,-2.97851 2.3828,2e-5 4.32616,0.78127 5.83008,2.34375 1.50389,1.56251 2.25584,3.65886 2.25586,6.28906 l 0,1.62109 -15.83984,0 0,0.25391 0,1.25 c -1e-5,2.55209 0.74869,4.71029 2.24609,6.47461 1.49739,1.76432 3.35286,2.64648 5.56641,2.64648 1.5755,0 2.89386,-0.21484 3.95507,-0.64453 1.06119,-0.42969 1.96939,-1.07422 2.72461,-1.93359 l 0.56641,0.82031 c -0.83335,0.92448 -1.84572,1.62435 -3.03711,2.09961 -1.19142,0.47526 -2.59441,0.71289 -4.20898,0.71289 z m -0.0586,-20.87891 c -2.09636,2e-5 -3.84115,0.765 -5.23437,2.29492 -1.39324,1.52997 -2.181,3.44077 -2.36328,5.73243 l 0.0586,0.11718 14.57031,0 0,-0.64453 c -2e-5,-2.14842 -0.65106,-3.93553 -1.95312,-5.36133 -1.3021,-1.42576 -2.99481,-2.13865 -5.07813,-2.13867 z"
         style="font-family:Roboto Thin;-inkscape-font-specification:Roboto Thin;fill:#ffffff"
         id="path3076" />
      <path
         d="m 254.96613,466.60806 c -0.72918,1.27605 -1.81642,2.31446 -3.26172,3.11524 -1.44532,0.80078 -3.19662,1.20117 -5.2539,1.20117 -1.96615,0 -3.50912,-0.53711 -4.62891,-1.61133 -1.11979,-1.07422 -1.67969,-2.52278 -1.67969,-4.3457 0,-1.77083 0.83659,-3.2552 2.50977,-4.45313 1.67317,-1.1979 3.76627,-1.79686 6.2793,-1.79687 l 6.03515,0 0,-3.08594 c -1e-5,-1.7578 -0.56316,-3.12824 -1.68945,-4.11133 -1.12632,-0.98305 -2.7116,-1.47459 -4.75586,-1.47461 -1.91407,2e-5 -3.45378,0.46226 -4.61914,1.38672 -1.16537,0.9245 -1.74805,2.1159 -1.74805,3.57422 l -0.8789,-0.0391 -0.0391,-0.0977 c -0.0781,-1.64061 0.5599,-3.03058 1.91407,-4.16992 1.35416,-1.1393 3.14452,-1.70896 5.37109,-1.70898 2.26561,2e-5 4.08202,0.57293 5.44922,1.71875 1.36717,1.14585 2.05076,2.79949 2.05078,4.96093 l 0,10.58594 c -2e-5,0.74219 0.0423,1.46485 0.12695,2.16797 0.0846,0.70313 0.2246,1.39974 0.41993,2.08984 l -1.17188,0 c -0.16929,-0.92448 -0.28322,-1.61783 -0.3418,-2.08008 -0.0586,-0.46223 -0.0879,-0.96028 -0.0879,-1.49414 z m -8.51562,3.28125 c 2.09634,0 3.87043,-0.46224 5.32226,-1.38672 1.45181,-0.92447 2.51626,-2.24609 3.19336,-3.96484 l 0,-4.74609 -5.97656,0 c -2.18751,1e-5 -4.03321,0.50456 -5.53711,1.51367 -1.50391,1.00912 -2.25586,2.25586 -2.25586,3.74023 0,1.41928 0.47851,2.58139 1.43555,3.48633 0.95702,0.90495 2.22981,1.35742 3.81836,1.35742 z"
         style="font-family:Roboto Thin;-inkscape-font-specification:Roboto Thin;fill:#ffffff"
         id="path3078" />
      <path
         d="m 264.10676,470.51431 -1.05469,0 0,-30.46875 1.05469,0 z"
         style="font-family:Roboto Thin;-inkscape-font-specification:Roboto Thin;fill:#ffffff"
         id="path3080" />
      <path
         d="m 272.38801,470.51431 -1.05469,0 0,-30.46875 1.05469,0 z"
         style="font-family:Roboto Thin;-inkscape-font-specification:Roboto Thin;fill:#ffffff"
         id="path3082" />
      <path
         d="m 284.9466,466.68619 0.78125,2.10937 0.11719,0 0.11719,-0.3125 7.30468,-19.10156 1.17188,0 -9.39453,24.64844 c -0.57293,1.48437 -1.24024,2.69205 -2.00196,3.62304 -0.76172,0.93099 -1.97591,1.39648 -3.64257,1.39649 -0.2474,-10e-6 -0.52084,-0.0228 -0.82032,-0.0684 -0.29948,-0.0456 -0.52083,-0.0944 -0.66406,-0.14648 l 0.17578,-0.9961 c 0.14323,0.0391 0.35807,0.0781 0.64453,0.11719 0.28646,0.0391 0.50781,0.0586 0.66407,0.0586 1.19791,0 2.13215,-0.35157 2.80273,-1.05468 0.67057,-0.70314 1.26627,-1.7448 1.78711,-3.125 l 1.26953,-3.4375 -8.41797,-21.01563 1.15235,0 z"
         style="font-family:Roboto Thin;-inkscape-font-specification:Roboto Thin;fill:#ffffff"
         id="path3084" />
      <path
         d="m 321.05988,465.33853 c -1e-5,-1.11978 -0.47853,-2.13866 -1.43554,-3.05664 -0.95705,-0.91796 -2.62697,-1.63736 -5.00977,-2.1582 -2.51303,-0.53385 -4.33269,-1.22069 -5.45898,-2.06055 -1.12631,-0.83983 -1.68946,-2.08657 -1.68946,-3.74023 0,-1.5104 0.63802,-2.77668 1.91407,-3.79883 1.27603,-1.02212 2.99478,-1.53318 5.15625,-1.5332 2.33071,2e-5 4.16665,0.54689 5.50781,1.64062 1.34113,1.09377 1.97915,2.51955 1.91406,4.27734 l -0.0391,0.11719 -0.89844,0 c -2e-5,-1.38019 -0.5827,-2.55532 -1.74805,-3.52539 -1.16537,-0.97003 -2.74415,-1.45506 -4.73632,-1.45508 -1.97918,2e-5 -3.47657,0.42646 -4.49219,1.2793 -1.01563,0.85288 -1.52344,1.83921 -1.52344,2.95898 0,1.10679 0.42968,2.0508 1.28906,2.83204 0.85937,0.78126 2.5651,1.46485 5.11719,2.05078 2.35676,0.54688 4.14387,1.29232 5.36133,2.23632 1.21743,0.94402 1.82615,2.26238 1.82617,3.95508 -2e-5,1.65365 -0.6771,2.9948 -2.03125,4.02344 -1.35418,1.02865 -3.15105,1.54297 -5.39062,1.54297 -2.46095,0 -4.39129,-0.55013 -5.79102,-1.65039 -1.39974,-1.10026 -2.05404,-2.43815 -1.96289,-4.01367 l 0.0391,-0.11719 0.85938,0 c 0.10416,1.66667 0.82031,2.8711 2.14843,3.61328 1.32812,0.74219 2.89713,1.11328 4.70704,1.11328 1.95311,0 3.50259,-0.45573 4.64843,-1.36719 1.14582,-0.91145 1.71874,-1.96614 1.71875,-3.16406 z"
         style="font-family:Roboto Thin;-inkscape-font-specification:Roboto Thin;fill:#ffffff"
         id="path3086" />
      <path
         d="m 344.18488,460.33853 c -2e-5,3.25522 -0.70314,5.83334 -2.10937,7.73438 -1.40627,1.90104 -3.34637,2.85156 -5.82031,2.85156 -1.65366,0 -3.09572,-0.33203 -4.32618,-0.99609 -1.23047,-0.66407 -2.19076,-1.5625 -2.88086,-2.69532 l 0,11.40625 -1.05468,0 0,-29.25781 0.82031,0 0.21484,3.78906 c 0.70312,-1.30206 1.66015,-2.3242 2.8711,-3.0664 1.21093,-0.74217 2.64973,-1.11326 4.3164,-1.11328 2.48697,2e-5 4.43684,0.98634 5.84961,2.95898 1.41274,1.97267 2.11912,4.63218 2.11914,7.97852 z m -1.07422,-0.41015 c -10e-6,-2.92968 -0.58921,-5.30923 -1.76757,-7.13868 -1.1784,-1.8294 -2.88088,-2.74412 -5.10743,-2.74414 -2.04428,2e-5 -3.63282,0.51435 -4.76562,1.54297 -1.13282,1.02867 -1.94011,2.29168 -2.42188,3.78906 l 0,9.88282 c 0.52083,1.40625 1.39323,2.52604 2.61719,3.35937 1.22395,0.83334 2.76041,1.25 4.60938,1.25 2.22655,0 3.92251,-0.85937 5.08789,-2.57812 1.16534,-1.71875 1.74803,-4.03645 1.74804,-6.95313 z"
         style="font-family:Roboto Thin;-inkscape-font-specification:Roboto Thin;fill:#ffffff"
         id="path3088" />
      <path
         d="m 357.11457,470.92447 c -2.40886,0 -4.48894,-0.97331 -6.24023,-2.91992 -1.75131,-1.94661 -2.62696,-4.36523 -2.62696,-7.25586 l 0,-1.25 c 0,-3.03384 0.84635,-5.54361 2.53907,-7.5293 1.6927,-1.98566 3.78254,-2.97849 6.26953,-2.97851 2.3828,2e-5 4.32615,0.78127 5.83007,2.34375 1.50389,1.56251 2.25585,3.65886 2.25586,6.28906 l 0,1.62109 -15.83984,0 0,0.25391 0,1.25 c 0,2.55209 0.7487,4.71029 2.24609,6.47461 1.49739,1.76432 3.35286,2.64648 5.56641,2.64648 1.57551,0 2.89387,-0.21484 3.95508,-0.64453 1.06118,-0.42969 1.96938,-1.07422 2.72461,-1.93359 l 0.5664,0.82031 c -0.83335,0.92448 -1.84571,1.62435 -3.03711,2.09961 -1.19141,0.47526 -2.59441,0.71289 -4.20898,0.71289 z m -0.0586,-20.87891 c -2.09637,2e-5 -3.84116,0.765 -5.23438,2.29492 -1.39323,1.52997 -2.18099,3.44077 -2.36328,5.73243 l 0.0586,0.11718 14.57032,0 0,-0.64453 c -2e-5,-2.14842 -0.65106,-3.93553 -1.95313,-5.36133 -1.3021,-1.42576 -2.9948,-2.13865 -5.07812,-2.13867 z"
         style="font-family:Roboto Thin;-inkscape-font-specification:Roboto Thin;fill:#ffffff"
         id="path3090" />
      <path
         d="m 370.96223,449.3815 0.13672,4.35547 c 0.63801,-1.5104 1.569,-2.67902 2.79296,-3.50586 1.22395,-0.8268 2.73437,-1.24021 4.53125,-1.24023 2.30468,2e-5 4.03319,0.72593 5.18555,2.17773 1.15233,1.45184 1.7285,3.75327 1.72852,6.9043 l 0,12.4414 -1.05469,0 0,-12.48047 c -2e-5,-2.92967 -0.52411,-4.99347 -1.57227,-6.1914 -1.04819,-1.1979 -2.47071,-1.79686 -4.26757,-1.79688 -2.27866,2e-5 -3.99741,0.68036 -5.15625,2.04102 -1.15886,1.36069 -1.88152,3.10223 -2.16797,5.22461 l 0,13.20312 -1.05469,0 0,-21.13281 z"
         style="font-family:Roboto Thin;-inkscape-font-specification:Roboto Thin;fill:#ffffff"
         id="path3092" />
      <path
         d="m 390.96223,459.92838 c -10e-6,-3.34634 0.70312,-6.00585 2.10937,-7.97852 1.40625,-1.97264 3.35937,-2.95896 5.85938,-2.95898 1.65363,2e-5 3.08267,0.37111 4.28711,1.11328 1.20441,0.7422 2.16469,1.75783 2.88086,3.04687 l 0,-13.10547 1.05468,0 0,30.46875 -1.01562,0 -0.0391,-3.28125 c -0.70315,1.13282 -1.66994,2.03125 -2.9004,2.69532 -1.23048,0.66406 -2.66602,0.99609 -4.30664,0.99609 -2.48698,0 -4.43034,-0.95052 -5.83007,-2.85156 -1.39975,-1.90104 -2.09962,-4.47916 -2.09961,-7.73438 z m 1.09375,0.41015 c -10e-6,2.91668 0.57616,5.23438 1.72851,6.95313 1.15234,1.71875 2.8483,2.57812 5.08789,2.57812 1.83593,0 3.36262,-0.41666 4.58008,-1.25 1.21743,-0.83333 2.09959,-1.94661 2.64649,-3.33984 l 0,-9.90235 c -0.50783,-1.5104 -1.32815,-2.77667 -2.46094,-3.79882 -1.13283,-1.02212 -2.70835,-1.53319 -4.72656,-1.53321 -2.2396,2e-5 -3.94207,0.91474 -5.10743,2.74414 -1.16536,1.82945 -1.74805,4.209 -1.74804,7.13868 z"
         style="font-family:Roboto Thin;-inkscape-font-specification:Roboto Thin;fill:#ffffff"
         id="path3094" />
      <path
         d="m 429.0091,466.68619 0.78125,2.10937 0.11719,0 0.11719,-0.3125 7.30468,-19.10156 1.17188,0 -9.39453,24.64844 c -0.57293,1.48437 -1.24024,2.69205 -2.00196,3.62304 -0.76172,0.93099 -1.97591,1.39648 -3.64257,1.39649 -0.2474,-10e-6 -0.52084,-0.0228 -0.82032,-0.0684 -0.29948,-0.0456 -0.52083,-0.0944 -0.66406,-0.14648 l 0.17578,-0.9961 c 0.14323,0.0391 0.35807,0.0781 0.64453,0.11719 0.28646,0.0391 0.50781,0.0586 0.66407,0.0586 1.19791,0 2.13215,-0.35157 2.80273,-1.05468 0.67057,-0.70314 1.26627,-1.7448 1.78711,-3.125 l 1.26953,-3.4375 -8.41797,-21.01563 1.15235,0 z"
         style="font-family:Roboto Thin;-inkscape-font-specification:Roboto Thin;fill:#ffffff"
         id="path3096" />
      <path
         d="m 440.90363,459.53775 c 0,-3.09894 0.85612,-5.63149 2.56836,-7.59766 1.71224,-1.96612 3.93554,-2.94919 6.66992,-2.94921 2.74739,2e-5 4.9772,0.98309 6.68946,2.94921 1.71222,1.96617 2.56834,4.49872 2.56836,7.59766 l 0,0.82031 c -2e-5,3.11199 -0.85614,5.65105 -2.56836,7.61719 -1.71226,1.96615 -3.92905,2.94922 -6.65039,2.94922 -2.74741,0 -4.98048,-0.98307 -6.69922,-2.94922 -1.71875,-1.96614 -2.57813,-4.5052 -2.57813,-7.61719 z m 1.05469,0.82031 c 0,2.65626 0.74218,4.90561 2.22656,6.74805 1.48437,1.84245 3.48307,2.76367 5.9961,2.76367 2.47394,0 4.45311,-0.92448 5.9375,-2.77344 1.48435,-1.84895 2.22654,-4.09504 2.22656,-6.73828 l 0,-0.82031 c -2e-5,-2.59113 -0.74872,-4.82095 -2.24609,-6.68945 -1.49742,-1.86847 -3.48309,-2.80272 -5.95704,-2.80274 -2.48698,2e-5 -4.47266,0.93427 -5.95703,2.80274 -1.48438,1.8685 -2.22656,4.09832 -2.22656,6.68945 z"
         style="font-family:Roboto Thin;-inkscape-font-specification:Roboto Thin;fill:#ffffff"
         id="path3098" />
      <path
         d="m 478.63801,466.72525 c -0.66408,1.34115 -1.61135,2.3763 -2.8418,3.10547 -1.23048,0.72917 -2.72462,1.09375 -4.48242,1.09375 -2.17449,0 -3.87696,-0.77149 -5.10742,-2.31445 -1.23048,-1.54297 -1.84571,-3.93555 -1.84571,-7.17774 l 0,-12.05078 1.05469,0 0,12.08984 c 0,2.86459 0.52734,4.98048 1.58203,6.34766 1.05468,1.36719 2.48046,2.05078 4.27735,2.05078 2.20051,0 3.88996,-0.54036 5.06836,-1.62109 1.17837,-1.08073 1.93032,-2.51302 2.25586,-4.29688 l 0,-14.57031 1.07421,0 0,21.13281 -0.8789,0 z"
         style="font-family:Roboto Thin;-inkscape-font-specification:Roboto Thin;fill:#ffffff"
         id="path3100" />
      <path
         d="m 495.6302,450.14322 -1.36719,-0.11719 c -1.88803,2e-5 -3.42123,0.60875 -4.59961,1.82617 -1.17839,1.21747 -1.94337,2.82228 -2.29492,4.81446 l 0,13.84765 -1.05469,0 0,-21.13281 0.85937,0 0.19532,3.67188 0,0.72265 c 0.58593,-1.5104 1.45832,-2.68553 2.61718,-3.52539 1.15885,-0.83982 2.58463,-1.25974 4.27735,-1.25976 0.29947,2e-5 0.57616,0.0228 0.83008,0.0684 0.25389,0.0456 0.47199,0.0944 0.65429,0.14649 z"
         style="font-family:Roboto Thin;-inkscape-font-specification:Roboto Thin;fill:#ffffff"
         id="path3102" />
      <path
         d="m 511.39191,443.67838 0,5.70312 5.19532,0 0,1.07422 -5.19532,0 0,14.60937 c 0,1.73178 0.29297,2.9655 0.87891,3.70118 0.58593,0.73567 1.36067,1.10351 2.32422,1.10351 0.35155,0 0.66405,-0.013 0.9375,-0.0391 0.27343,-0.026 0.65103,-0.0716 1.13281,-0.13672 l 0.19531,0.95703 c -0.32553,0.10417 -0.66407,0.17578 -1.01562,0.21485 -0.35157,0.0391 -0.74871,0.0586 -1.19141,0.0586 -1.41928,0 -2.49675,-0.46224 -3.23242,-1.38672 -0.73568,-0.92448 -1.10352,-2.41536 -1.10351,-4.47266 l 0,-14.60937 -3.90625,0 0,-1.07422 3.90625,0 0,-5.70312 z"
         style="font-family:Roboto Thin;-inkscape-font-specification:Roboto Thin;fill:#ffffff"
         id="path3104" />
      <path
         d="m 522.85676,470.51431 -1.05469,0 0,-21.13281 1.05469,0 z m 0,-27.77343 -1.05469,0 0,-2.69532 1.05469,0 z"
         style="font-family:Roboto Thin;-inkscape-font-specification:Roboto Thin;fill:#ffffff"
         id="path3106" />
      <path
         d="m 530.53254,449.3815 0.13672,4.35547 c 0.63801,-1.49738 1.55598,-2.66274 2.7539,-3.49609 1.19791,-0.83332 2.65624,-1.24998 4.375,-1.25 1.82291,2e-5 3.30403,0.46551 4.44336,1.39648 1.13931,0.93101 1.92381,2.36655 2.35352,4.30664 0.55988,-1.79686 1.47459,-3.19985 2.74414,-4.20898 1.26951,-1.0091 2.85479,-1.51365 4.75586,-1.51368 2.3307,3e-5 4.10153,0.76174 5.3125,2.28516 1.2109,1.52346 1.81637,3.91929 1.81641,7.1875 l 0,12.05078 -1.07422,0 0,-12.08984 c -3e-5,-3.05988 -0.54691,-5.22134 -1.64063,-6.48438 -1.09378,-1.263 -2.55211,-1.89451 -4.375,-1.89453 -2.2396,2e-5 -3.93231,0.67385 -5.07812,2.02149 -1.14586,1.34767 -1.862,3.0892 -2.14844,5.22461 -2e-5,0.26042 0.006,0.48503 0.0195,0.67382 0.013,0.18882 0.0195,0.37436 0.0195,0.55664 l 0,12.01172 -1.07422,0 0,-12.08984 c -10e-6,-3.0729 -0.54689,-5.23761 -1.64062,-6.49414 -1.09377,-1.25649 -2.55861,-1.88475 -4.39453,-1.88477 -2.18751,2e-5 -3.84767,0.6413 -4.98047,1.92383 -1.13282,1.28257 -1.85548,2.94598 -2.16797,4.99024 l 0,13.55468 -1.07422,0 0,-21.13281 z"
         style="font-family:Roboto Thin;-inkscape-font-specification:Roboto Thin;fill:#ffffff"
         id="path3108" />
      <path
         d="m 572.89582,470.92447 c -2.40886,0 -4.48894,-0.97331 -6.24023,-2.91992 -1.75131,-1.94661 -2.62696,-4.36523 -2.62696,-7.25586 l 0,-1.25 c 0,-3.03384 0.84635,-5.54361 2.53907,-7.5293 1.6927,-1.98566 3.78254,-2.97849 6.26953,-2.97851 2.3828,2e-5 4.32615,0.78127 5.83007,2.34375 1.50389,1.56251 2.25585,3.65886 2.25586,6.28906 l 0,1.62109 -15.83984,0 0,0.25391 0,1.25 c 0,2.55209 0.7487,4.71029 2.24609,6.47461 1.49739,1.76432 3.35286,2.64648 5.56641,2.64648 1.57551,0 2.89387,-0.21484 3.95508,-0.64453 1.06118,-0.42969 1.96938,-1.07422 2.72461,-1.93359 l 0.5664,0.82031 c -0.83335,0.92448 -1.84571,1.62435 -3.03711,2.09961 -1.19141,0.47526 -2.59441,0.71289 -4.20898,0.71289 z m -0.0586,-20.87891 c -2.09637,2e-5 -3.84116,0.765 -5.23438,2.29492 -1.39323,1.52997 -2.18099,3.44077 -2.36328,5.73243 l 0.0586,0.11718 14.57032,0 0,-0.64453 c -2e-5,-2.14842 -0.65106,-3.93553 -1.95313,-5.36133 -1.3021,-1.42576 -2.9948,-2.13865 -5.07812,-2.13867 z"
         style="font-family:Roboto Thin;-inkscape-font-specification:Roboto Thin;fill:#ffffff"
         id="path3110" />
    </g>
    <g
       style="font-size:93.66275024px;font-style:normal;font-variant:normal;font-weight:300;font-stretch:normal;line-height:125%;letter-spacing:0px;word-spacing:0px;fill:#f08519;fill-opacity:1;stroke:none;font-family:Roboto Light;-inkscape-font-specification:'Roboto Light, Light'"
       id="text3757">
      <path
         d="m 110.45393,534.69153 c -0.36591,-1.6769 -0.62506,-3.12514 -0.77747,-4.34471 -0.15249,-1.21956 -0.22871,-2.45437 -0.22867,-3.70443 -1.82939,2.59158 -4.26852,4.74107 -7.3174,6.44846 -3.048949,1.70739 -6.478978,2.56109 -10.290101,2.56109 -4.817305,0 -8.559848,-1.28055 -11.227639,-3.84164 -2.667809,-2.56108 -4.001709,-5.99111 -4.001704,-10.2901 -5e-6,-4.57335 1.974167,-8.23205 5.922522,-10.9761 3.948334,-2.744 9.276312,-4.11601 15.983951,-4.11604 l 10.930371,0 0,-6.12832 c -4e-5,-3.53671 -1.13576,-6.31122 -3.40717,-8.32355 -2.27147,-2.01224 -5.44997,-3.01838 -9.535487,-3.01843 -3.811168,5e-5 -6.974417,0.96046 -9.489756,2.88123 -2.51537,1.92086 -3.773047,4.26852 -3.773036,7.043 l -5.030714,-0.0457 -0.09147,-0.27441 c -0.182941,-3.68915 1.501584,-6.9896 5.053581,-9.90136 3.551974,-2.91166 8.07199,-4.36752 13.560061,-4.36757 5.457528,5e-5 9.847968,1.38731 13.171328,4.16177 3.32328,2.77456 4.98493,6.75339 4.98498,11.93651 l 0,24.33037 c -5e-5,1.73789 0.099,3.43004 0.29727,5.07645 0.19813,1.64641 0.52589,3.27758 0.98327,4.89351 z m -17.973368,-3.88737 c 3.933079,0 7.408842,-0.92229 10.427298,-2.76689 3.01839,-1.84459 5.19837,-4.19988 6.53993,-7.06587 l 0,-10.33583 -11.021839,0 c -4.969757,2e-5 -8.940968,1.05952 -11.913645,3.17849 -2.972707,2.11902 -4.459053,4.74871 -4.459042,7.88908 -1.1e-5,2.68306 0.922286,4.87065 2.766892,6.56279 1.844581,1.69216 4.398047,2.53823 7.660406,2.53823 z"
         style="font-family:Roboto Light;-inkscape-font-specification:'Roboto Light, Light'"
         id="path3045" />
      <path
         d="m 134.28122,485.20759 0.50307,8.64369 c 1.58543,-3.04888 3.72729,-5.40416 6.4256,-7.06587 2.69827,-1.66161 5.89201,-2.49244 9.58122,-2.49249 5.36606,5e-5 9.45161,1.63884 12.25665,4.91638 2.80496,3.27763 4.20746,8.39218 4.20751,15.34368 l 0,30.13855 -5.48806,0 0,-30.09282 c -3e-5,-5.67095 -1.05953,-9.68027 -3.17849,-12.02798 -2.11903,-2.34762 -5.12984,-3.52145 -9.03242,-3.5215 -3.84166,5e-5 -6.97442,1.01381 -9.39829,3.0413 -2.4239,2.02757 -4.16941,4.71823 -5.23652,8.07201 l 0,34.52899 -5.48805,0 0,-49.48394 z"
         style="font-family:Roboto Light;-inkscape-font-specification:'Roboto Light, Light'"
         id="path3047" />
      <path
         d="m 212.89757,534.69153 c -0.36591,-1.6769 -0.62507,-3.12514 -0.77748,-4.34471 -0.15248,-1.21956 -0.2287,-2.45437 -0.22867,-3.70443 -1.82938,2.59158 -4.26852,4.74107 -7.3174,6.44846 -3.04894,1.70739 -6.47897,2.56109 -10.2901,2.56109 -4.8173,0 -8.55984,-1.28055 -11.22764,-3.84164 -2.66781,-2.56108 -4.00171,-5.99111 -4.0017,-10.2901 -10e-6,-4.57335 1.97417,-8.23205 5.92252,-10.9761 3.94834,-2.744 9.27631,-4.11601 15.98395,-4.11604 l 10.93037,0 0,-6.12832 c -3e-5,-3.53671 -1.13576,-6.31122 -3.40716,-8.32355 -2.27148,-2.01224 -5.44997,-3.01838 -9.53549,-3.01843 -3.81117,5e-5 -6.97442,0.96046 -9.48976,2.88123 -2.51537,1.92086 -3.77305,4.26852 -3.77303,7.043 l -5.03072,-0.0457 -0.0915,-0.27441 c -0.18294,-3.68915 1.50159,-6.9896 5.05358,-9.90136 3.55198,-2.91166 8.07199,-4.36752 13.56007,-4.36757 5.45753,5e-5 9.84797,1.38731 13.17132,4.16177 3.32328,2.77456 4.98494,6.75339 4.98498,11.93651 l 0,24.33037 c -4e-5,1.73789 0.0991,3.43004 0.29727,5.07645 0.19814,1.64641 0.52589,3.27758 0.98328,4.89351 z m -17.97337,-3.88737 c 3.93308,0 7.40884,-0.92229 10.42729,-2.76689 3.0184,-1.84459 5.19837,-4.19988 6.53993,-7.06587 l 0,-10.33583 -11.02183,0 c -4.96976,2e-5 -8.94097,1.05952 -11.91365,3.17849 -2.97271,2.11902 -4.45905,4.74871 -4.45904,7.88908 -1e-5,2.68306 0.92228,4.87065 2.76689,6.56279 1.84458,1.69216 4.39805,2.53823 7.66041,2.53823 z"
         style="font-family:Roboto Light;-inkscape-font-specification:'Roboto Light, Light'"
         id="path3049" />
      <path
         d="m 238.00541,534.69153 -5.44232,0 0,-71.34467 5.44232,0 z"
         style="font-family:Roboto Light;-inkscape-font-specification:'Roboto Light, Light'"
         id="path3051" />
      <path
         d="m 267.13781,521.29154 1.73788,5.89965 0.2744,0 14.95494,-41.9836 6.12833,0 -21.49487,57.39588 c -1.28057,3.3538 -2.94223,6.20453 -4.98498,8.55221 -2.04279,2.34765 -5.03073,3.52148 -8.96382,3.5215 -0.64028,-2e-5 -1.41776,-0.0686 -2.33242,-0.2058 -0.91468,-0.13722 -1.58545,-0.28204 -2.01229,-0.43447 l 0.64027,-4.57338 c 0.36587,0.061 0.95278,0.12957 1.76075,0.20581 0.80796,0.0762 1.39488,0.11432 1.76075,0.11433 2.37815,-10e-6 4.28372,-0.84609 5.71672,-2.53822 1.43298,-1.69216 2.65255,-3.86452 3.65871,-6.51706 l 2.60682,-6.67713 -19.11671,-48.84367 6.08259,0 z"
         style="font-family:Roboto Light;-inkscape-font-specification:'Roboto Light, Light'"
         id="path3053" />
      <path
         d="m 302.67294,530.07242 32.15084,0 0,4.61911 -38.91943,0 0,-4.02457 29.81841,-40.74879 -28.90374,0 0,-4.71058 35.80954,0 0,4.07031 z"
         style="font-family:Roboto Light;-inkscape-font-specification:'Roboto Light, Light'"
         id="path3055" />
      <path
         d="m 351.05925,534.69153 -5.44231,0 0,-49.48394 5.44231,0 z m 0,-63.6614 -5.44231,0 0,-7.68327 5.44231,0 z"
         style="font-family:Roboto Light;-inkscape-font-specification:'Roboto Light, Light'"
         id="path3057" />
      <path
         d="m 370.9992,485.20759 0.50307,8.64369 c 1.58542,-3.04888 3.72728,-5.40416 6.42559,-7.06587 2.69827,-1.66161 5.89201,-2.49244 9.58123,-2.49249 5.36606,5e-5 9.4516,1.63884 12.25665,4.91638 2.80496,3.27763 4.20746,8.39218 4.2075,15.34368 l 0,30.13855 -5.48805,0 0,-30.09282 c -4e-5,-5.67095 -1.05954,-9.68027 -3.1785,-12.02798 -2.11903,-2.34762 -5.12983,-3.52145 -9.03241,-3.5215 -3.84166,5e-5 -6.97442,1.01381 -9.39829,3.0413 -2.42391,2.02757 -4.16941,4.71823 -5.23652,8.07201 l 0,34.52899 -5.48805,0 0,-49.48394 z"
         style="font-family:Roboto Light;-inkscape-font-specification:'Roboto Light, Light'"
         id="path3059" />
      <path
         d="m 416.13841,510.36117 c -1e-5,-7.89667 1.68452,-14.21554 5.05358,-18.95665 3.36904,-4.74102 8.05674,-7.11155 14.06313,-7.1116 3.50623,5e-5 6.5399,0.7699 9.10102,2.30955 2.56105,1.53975 4.68005,3.71211 6.35699,6.51707 l 0.64028,-7.91195 4.61911,0 0,48.84367 c -5e-5,6.37223 -1.7608,11.40294 -5.28225,15.09214 -3.52154,3.68917 -8.42267,5.53376 -14.70341,5.53378 -2.37818,-2e-5 -4.90878,-0.28966 -7.5918,-0.86894 -2.68307,-0.57931 -5.03073,-1.37203 -7.043,-2.37815 l 1.41774,-4.61911 c 1.9513,0.97564 4.00931,1.715 6.17406,2.21808 2.16471,0.50306 4.48189,0.7546 6.95153,0.75461 4.81726,-10e-6 8.45309,-1.38727 10.90751,-4.16177 2.45434,-2.77453 3.68152,-6.6314 3.68156,-11.57064 l 0,-6.2198 c -1.67694,2.50012 -3.79593,4.42856 -6.35699,5.78532 -2.56112,1.35677 -5.54906,2.03516 -8.96382,2.03516 -5.94541,0 -10.60262,-2.21047 -13.97166,-6.6314 -3.36906,-4.42092 -5.05359,-10.32057 -5.05358,-17.69897 z m 5.48805,0.9604 c -1e-5,5.94541 1.21955,10.6941 3.6587,14.24607 2.43912,3.552 6.06732,5.32799 10.88464,5.32799 3.53671,0 6.48654,-0.80796 8.84948,-2.42389 2.36287,-1.61592 4.1846,-3.84163 5.46518,-6.67713 l 0,-22.95835 c -1.18911,-2.86595 -2.93462,-5.21361 -5.23651,-7.043 -2.30197,-1.82931 -5.29753,-2.74398 -8.98669,-2.74403 -4.81731,5e-5 -8.46076,1.98184 -10.93037,5.94539 -2.46963,3.96363 -3.70444,9.08581 -3.70443,15.36655 z"
         style="font-family:Roboto Light;-inkscape-font-specification:'Roboto Light, Light'"
         id="path3061" />
    </g>
    <g
       style="font-size:61.72847366px;font-style:normal;font-weight:normal;line-height:125%;letter-spacing:0px;word-spacing:0px;fill:#ffffff;fill-opacity:1;stroke:none;font-family:Roboto Thin;-inkscape-font-specification:Roboto Thin"
       id="text3761">
      <path
         d="m 470.50302,512.79018 c 0,-5.16411 1.08507,-9.26829 3.25521,-12.31254 2.17014,-3.04419 5.18422,-4.5663 9.04226,-4.56634 2.55191,4e-5 4.75721,0.57271 6.61592,1.71803 1.85866,1.14538 3.34058,2.71271 4.44577,4.70197 l 0,-20.22451 1.62761,0 0,47.01974 -1.56732,0 -0.0603,-5.06367 c -1.08509,1.74818 -2.57706,3.13465 -4.47591,4.15944 -1.8989,1.02479 -4.11425,1.53718 -6.64606,1.53718 -3.83795,0 -6.83696,-1.46685 -8.99705,-4.40056 -2.1601,-2.9337 -3.24014,-6.91229 -3.24014,-11.93578 z m 1.68789,0.63296 c -10e-6,4.50105 0.88915,8.07776 2.66746,10.73014 1.77831,2.6524 4.39553,3.9786 7.8517,3.9786 2.83322,0 5.18923,-0.64301 7.06803,-1.92902 1.87875,-1.286 3.24011,-3.00403 4.08408,-5.15408 l 0,-15.28142 c -0.78368,-2.33086 -2.0496,-4.285 -3.79774,-5.86239 -1.74819,-1.57734 -4.17955,-2.36603 -7.29409,-2.36606 -3.45616,3e-5 -6.08344,1.41163 -7.88183,4.23479 -1.79842,2.82322 -2.69762,6.49537 -2.69761,11.01648 z"
         style=""
         id="path3036" />
      <path
         d="m 526.23346,523.09835 c -1.12528,1.96921 -2.80312,3.5717 -5.03352,4.80747 -2.23044,1.23578 -4.93307,1.85366 -8.10789,1.85366 -3.03419,0 -5.41531,-0.82887 -7.14338,-2.48662 -1.72808,-1.65774 -2.59212,-3.89318 -2.59212,-6.70634 0,-2.73276 1.29103,-5.02346 3.8731,-6.87211 2.58206,-1.84862 5.81215,-2.77294 9.69029,-2.77296 l 9.31352,0 0,-4.76226 c -2e-5,-2.71265 -0.86908,-4.82753 -2.60718,-6.34465 -1.73814,-1.51706 -4.18457,-2.2756 -7.3393,-2.27563 -2.95382,3e-5 -5.32992,0.71336 -7.12831,2.14 -1.79841,1.42669 -2.69761,3.26528 -2.69761,5.51578 l -1.35634,-0.0603 -0.0603,-0.1507 c -0.12057,-2.53181 0.86403,-4.67683 2.95381,-6.43507 2.08975,-1.75819 4.85266,-2.63729 8.28873,-2.63733 3.49632,4e-5 6.29942,0.88417 8.4093,2.6524 2.10983,1.76829 3.16476,4.32021 3.16479,7.65578 l 0,16.33634 c -3e-5,1.14536 0.0653,2.26057 0.19592,3.34563 0.13058,1.08508 0.34659,2.1601 0.64802,3.22508 l -1.80845,0 c -0.26124,-1.42667 -0.43707,-2.49667 -0.52746,-3.21001 -0.0905,-0.71332 -0.13566,-1.48192 -0.13564,-2.30577 z m -13.14141,5.06367 c 3.2351,0 5.9729,-0.71333 8.21338,-2.14 2.24045,-1.42666 3.88313,-3.46619 4.92803,-6.1186 l 0,-7.32422 -9.2231,0 c -3.37579,10e-6 -6.2241,0.77865 -8.54493,2.33591 -2.32085,1.55729 -3.48127,3.48128 -3.48127,5.77198 0,2.19024 0.73845,3.98362 2.21535,5.38014 1.4769,1.39653 3.44107,2.09479 5.89254,2.09479 z"
         style=""
         id="path3038" />
      <path
         d="m 541.69572,487.71299 0,8.80113 8.01747,0 0,1.65775 -8.01747,0 0,22.54536 c -1e-5,2.67249 0.45211,4.57639 1.35634,5.71169 0.90422,1.13531 2.0998,1.70296 3.58676,1.70296 0.54252,0 1.02478,-0.0201 1.44676,-0.0603 0.42196,-0.0402 1.00468,-0.11052 1.74817,-0.21099 l 0.30141,1.4769 c -0.50236,0.16075 -1.0248,0.27127 -1.56732,0.33155 -0.54255,0.0603 -1.15542,0.0904 -1.83859,0.0904 -2.19025,0 -3.85302,-0.71333 -4.98832,-2.14 -1.13531,-1.42666 -1.70296,-3.72741 -1.70295,-6.90225 l 0,-22.54536 -6.02818,0 0,-1.65775 6.02818,0 0,-8.80113 z"
         style=""
         id="path3040" />
      <path
         d="m 577.83461,523.09835 c -1.12529,1.96921 -2.80313,3.5717 -5.03353,4.80747 -2.23044,1.23578 -4.93307,1.85366 -8.10789,1.85366 -3.03419,0 -5.41531,-0.82887 -7.14338,-2.48662 -1.72808,-1.65774 -2.59212,-3.89318 -2.59211,-6.70634 -1e-5,-2.73276 1.29103,-5.02346 3.8731,-6.87211 2.58205,-1.84862 5.81215,-2.77294 9.69028,-2.77296 l 9.31353,0 0,-4.76226 c -3e-5,-2.71265 -0.86909,-4.82753 -2.60719,-6.34465 -1.73814,-1.51706 -4.18457,-2.2756 -7.3393,-2.27563 -2.95381,3e-5 -5.32991,0.71336 -7.12831,2.14 -1.79841,1.42669 -2.69761,3.26528 -2.6976,5.51578 l -1.35634,-0.0603 -0.0603,-0.1507 c -0.12056,-2.53181 0.86404,-4.67683 2.95381,-6.43507 2.08976,-1.75819 4.85266,-2.63729 8.28873,-2.63733 3.49632,4e-5 6.29942,0.88417 8.4093,2.6524 2.10984,1.76829 3.16477,4.32021 3.16479,7.65578 l 0,16.33634 c -2e-5,1.14536 0.0653,2.26057 0.19592,3.34563 0.13058,1.08508 0.34659,2.1601 0.64803,3.22508 l -1.80845,0 c -0.26125,-1.42667 -0.43707,-2.49667 -0.52747,-3.21001 -0.0905,-0.71332 -0.13566,-1.48192 -0.13563,-2.30577 z m -13.14142,5.06367 c 3.23511,0 5.9729,-0.71333 8.21339,-2.14 2.24044,-1.42666 3.88312,-3.46619 4.92803,-6.1186 l 0,-7.32422 -9.22311,0 c -3.37578,10e-6 -6.22409,0.77865 -8.54493,2.33591 -2.32085,1.55729 -3.48127,3.48128 -3.48127,5.77198 0,2.19024 0.73845,3.98362 2.21536,5.38014 1.47689,1.39653 3.44107,2.09479 5.89253,2.09479 z"
         style=""
         id="path3042" />
    </g>
    <g
       style="font-size:48px;font-style:normal;font-weight:normal;line-height:125%;letter-spacing:0px;word-spacing:0px;fill:#ffffff;fill-opacity:1;stroke:none;font-family:Roboto Thin;-inkscape-font-specification:Roboto Thin"
       id="text3765">
      <path
         d="m 106.56308,569.78705 -31.3125,0 0,-1.26563 31.3125,0 z"
         style=""
         id="path3017" />
      <path
         d="m 124.89706,573.51361 c 0,-3.71873 1.02734,-6.75779 3.08204,-9.11719 2.05468,-2.35935 4.72264,-3.53903 8.0039,-3.53906 3.29686,3e-5 5.97264,1.17971 8.02735,3.53906 2.05466,2.3594 3.082,5.39846 3.08203,9.11719 l 0,0.98438 c -3e-5,3.73438 -1.02737,6.78125 -3.08203,9.14062 -2.05471,2.35938 -4.71486,3.53906 -7.98047,3.53906 -3.29689,0 -5.97657,-1.17968 -8.03907,-3.53906 -2.0625,-2.35937 -3.09375,-5.40624 -3.09375,-9.14062 z m 1.26563,0.98438 c 0,3.1875 0.89062,5.88672 2.67187,8.09765 1.78125,2.21094 4.17968,3.31641 7.19532,3.31641 2.96873,0 5.34373,-1.10937 7.125,-3.32813 1.78122,-2.21874 2.67185,-4.91405 2.67187,-8.08593 l 0,-0.98438 c -2e-5,-3.10936 -0.89846,-5.78514 -2.69531,-8.02734 -1.79689,-2.24217 -4.1797,-3.36326 -7.14844,-3.36328 -2.98438,2e-5 -5.36719,1.12111 -7.14844,3.36328 -1.78125,2.2422 -2.67187,4.91798 -2.67187,8.02734 z"
         style=""
         id="path3019" />
      <path
         d="m 164.31894,562.24017 -1.64063,-0.14062 c -2.26563,2e-5 -4.10547,0.73049 -5.51953,2.1914 -1.41407,1.46096 -2.33203,3.38674 -2.7539,5.77735 l 0,16.61719 -1.26563,0 0,-25.35938 1.03125,0 0.23438,4.40625 0,0.86719 c 0.70312,-1.81248 1.74999,-3.22263 3.14062,-4.23047 1.39062,-1.00779 3.10155,-1.51169 5.13281,-1.51172 0.35937,3e-5 0.6914,0.0274 0.9961,0.082 0.30467,0.0547 0.56639,0.11331 0.78515,0.17578 z"
         style=""
         id="path3021" />
      <path
         d="m 191.78769,562.24017 -1.64063,-0.14062 c -2.26563,2e-5 -4.10547,0.73049 -5.51953,2.1914 -1.41407,1.46096 -2.33203,3.38674 -2.7539,5.77735 l 0,16.61719 -1.26563,0 0,-25.35938 1.03125,0 0.23438,4.40625 0,0.86719 c 0.70312,-1.81248 1.74999,-3.22263 3.14062,-4.23047 1.39062,-1.00779 3.10155,-1.51169 5.13281,-1.51172 0.35937,3e-5 0.6914,0.0274 0.9961,0.082 0.30467,0.0547 0.56639,0.11331 0.78515,0.17578 z"
         style=""
         id="path3023" />
      <path
         d="m 212.45956,581.99799 c -0.87501,1.53125 -2.1797,2.77734 -3.91406,3.73828 -1.73439,0.96093 -3.83595,1.4414 -6.30469,1.4414 -2.35938,0 -4.21094,-0.64453 -5.55468,-1.93359 -1.34376,-1.28906 -2.01563,-3.02734 -2.01563,-5.21484 0,-2.125 1.0039,-3.90624 3.01172,-5.34375 2.00781,-1.43749 4.51952,-2.15624 7.53516,-2.15625 l 7.24218,0 0,-3.70313 c -2e-5,-2.10935 -0.6758,-3.75388 -2.02734,-4.93359 -1.35158,-1.17967 -3.25392,-1.76951 -5.70703,-1.76953 -2.29689,2e-5 -4.14454,0.55471 -5.54297,1.66406 -1.39844,1.1094 -2.09766,2.53908 -2.09766,4.28906 l -1.05468,-0.0469 -0.0469,-0.11719 c -0.0937,-1.96873 0.67187,-3.6367 2.29688,-5.00391 1.62499,-1.36716 3.77342,-2.05075 6.44531,-2.05078 2.71873,3e-5 4.89842,0.68753 6.53906,2.0625 1.64061,1.37502 2.46092,3.3594 2.46094,5.95313 l 0,12.70312 c -2e-5,0.89063 0.0508,1.75782 0.15234,2.60156 0.10154,0.84376 0.26951,1.67969 0.50391,2.50782 l -1.40625,0 c -0.20315,-1.10938 -0.33986,-1.94141 -0.41016,-2.4961 -0.0703,-0.55468 -0.10549,-1.15234 -0.10547,-1.79297 z m -10.21875,3.9375 c 2.51562,0 4.64452,-0.55469 6.38672,-1.66407 1.74217,-1.10937 3.01952,-2.6953 3.83203,-4.75781 l 0,-5.69531 -7.17187,0 c -2.62501,10e-6 -4.83985,0.60548 -6.64453,1.8164 -1.80469,1.21095 -2.70704,2.70704 -2.70703,4.48829 -1e-5,1.70313 0.57421,3.09766 1.72265,4.18359 1.14843,1.08594 2.67578,1.62891 4.58203,1.62891 z"
         style=""
         id="path3025" />
      <path
         d="m 224.483,554.48236 0,6.84375 6.23438,0 0,1.28906 -6.23438,0 0,17.53125 c 0,2.07813 0.35156,3.5586 1.05469,4.44141 0.70312,0.88281 1.6328,1.32422 2.78906,1.32422 0.42187,0 0.79687,-0.0156 1.125,-0.0469 0.32811,-0.0312 0.78124,-0.0859 1.35938,-0.16406 l 0.23437,1.14844 c -0.39064,0.125 -0.79689,0.21094 -1.21875,0.25781 -0.42188,0.0469 -0.89845,0.0703 -1.42969,0.0703 -1.70313,0 -2.9961,-0.55468 -3.8789,-1.66406 -0.88282,-1.10937 -1.32423,-2.89843 -1.32422,-5.36719 l 0,-17.53125 -4.6875,0 0,-1.28906 4.6875,0 0,-6.84375 z"
         style=""
         id="path3027" />
      <path
         d="m 237.93613,566.66986 c 0.78124,-1.84373 1.92968,-3.27341 3.44531,-4.28906 1.51561,-1.0156 3.36717,-1.52341 5.55469,-1.52344 2.6406,3e-5 4.64451,0.83596 6.01172,2.50781 1.36716,1.6719 2.05075,4.30471 2.05078,7.89844 l 0,15.42188 -1.28907,0 0,-15.46875 c -2e-5,-3.32811 -0.6133,-5.67576 -1.83984,-7.04297 -1.22658,-1.36717 -2.8633,-2.05076 -4.91016,-2.05078 -2.73438,2e-5 -4.82813,0.81643 -6.28125,2.44921 -1.45313,1.63284 -2.36719,3.72268 -2.74218,6.26954 l 0,15.84375 -1.26563,0 0,-36.5625 1.26563,0 z"
         style=""
         id="path3029" />
      <path
         d="m 271.56894,587.17767 c -2.89064,0 -5.38673,-1.16796 -7.48828,-3.5039 -2.10157,-2.33594 -3.15235,-5.23828 -3.15235,-8.70703 l 0,-1.5 c 0,-3.64061 1.01563,-6.65233 3.04688,-9.03516 2.03124,-2.38279 4.53905,-3.57419 7.52344,-3.57422 2.85936,3e-5 5.19139,0.93753 6.99609,2.8125 1.80467,1.87502 2.70701,4.39064 2.70703,7.54688 l 0,1.94531 -19.00781,0 0,0.30469 0,1.5 c 0,3.0625 0.89843,5.65235 2.69531,7.76953 1.79687,2.11719 4.02343,3.17578 6.67969,3.17578 1.89061,0 3.47264,-0.25781 4.74609,-0.77344 1.27342,-0.51562 2.36326,-1.28906 3.26953,-2.32031 l 0.67969,0.98437 c -1.00002,1.10938 -2.21486,1.94922 -3.64453,2.51953 -1.4297,0.57032 -3.1133,0.85547 -5.05078,0.85547 z m -0.0703,-25.05468 c -2.51564,2e-5 -4.60939,0.91799 -6.28125,2.7539 -1.67188,1.83596 -2.61719,4.12893 -2.83594,6.87891 l 0.0703,0.14062 17.48438,0 0,-0.77343 c -2e-5,-2.57811 -0.78127,-4.72264 -2.34375,-6.4336 -1.56252,-1.71091 -3.59377,-2.56638 -6.09375,-2.5664 z"
         style=""
         id="path3031" />
      <path
         d="m 298.28769,562.24017 -1.64063,-0.14062 c -2.26563,2e-5 -4.10547,0.73049 -5.51953,2.1914 -1.41407,1.46096 -2.33203,3.38674 -2.7539,5.77735 l 0,16.61719 -1.26563,0 0,-25.35938 1.03125,0 0.23438,4.40625 0,0.86719 c 0.70312,-1.81248 1.74999,-3.22263 3.14062,-4.23047 1.39062,-1.00779 3.10155,-1.51169 5.13281,-1.51172 0.35937,3e-5 0.6914,0.0274 0.9961,0.082 0.30467,0.0547 0.56639,0.11331 0.78515,0.17578 z"
         style=""
         id="path3033" />
    </g>
    <g
       style="font-size:48.00333405px;font-style:normal;font-weight:normal;line-height:125%;letter-spacing:0px;word-spacing:0px;fill:#ffffff;fill-opacity:1;stroke:none;font-family:Roboto Thin;-inkscape-font-specification:Roboto Thin"
       id="text3773">
      <path
         d="m 542.19729,585.21344 -1.26571,0 0,-25.36114 1.26571,0 z m 0,-33.33044 -1.26571,0 0,-3.2346 1.26571,0 z"
         style=""
         id="path3010" />
      <path
         d="m 553.19024,553.00808 0,6.84422 6.23481,0 0,1.28916 -6.23481,0 0,17.53246 c -10e-6,2.07828 0.35158,3.55885 1.05476,4.44172 0.70317,0.88287 1.63292,1.32431 2.78926,1.32431 0.42189,0 0.79692,-0.0156 1.12507,-0.0469 0.32814,-0.0312 0.7813,-0.0859 1.35947,-0.16407 l 0.2344,1.14851 c -0.39067,0.12501 -0.79695,0.21096 -1.21884,0.25783 -0.42191,0.0469 -0.89851,0.0703 -1.42979,0.0703 -1.70325,0 -2.99631,-0.55472 -3.87917,-1.66418 -0.88288,-1.10945 -1.32432,-2.89863 -1.32431,-5.36756 l 0,-17.53246 -4.68783,0 0,-1.28916 4.68783,0 0,-6.84422 z"
         style=""
         id="path3012" />
      <path
         d="m 570.60551,575.83779 c 0.0156,-1.82824 0.17579,-3.1213 0.48051,-3.87918 0.30469,-0.75785 1.12116,-1.7462 2.44938,-2.96505 1.89075,-1.8126 3.25021,-3.35568 4.07841,-4.62922 0.82817,-1.27351 1.24226,-3.01191 1.24228,-5.21521 -2e-5,-2.28138 -0.60944,-4.07057 -1.82826,-5.36756 -1.21885,-1.29693 -2.94553,-1.94541 -5.18004,-1.94545 -2.21892,4e-5 -3.93778,0.66024 -5.15661,1.98061 -1.21884,1.32043 -1.8517,3.06665 -1.89857,5.23864 l -1.0782,0 -0.0703,-0.14063 c -0.0312,-2.65641 0.72271,-4.70733 2.26188,-6.15277 1.53916,-1.44538 3.51977,-2.16809 5.94182,-2.16812 2.56266,3e-5 4.58233,0.78915 6.05901,2.36735 1.47665,1.57827 2.21498,3.65653 2.215,6.23481 -2e-5,2.2033 -0.48833,4.10187 -1.46495,5.69571 -0.97664,1.59388 -2.46503,3.2893 -4.46515,5.08629 -1.07821,0.82819 -1.73451,1.62122 -1.96889,2.37907 -0.2344,0.75788 -0.35159,1.91811 -0.35158,3.48071 z m 1.82825,9.37565 -1.922,0 0,-2.48455 1.922,0 z"
         style=""
         id="path3014" />
    </g>
    <g
       style="font-size:65.82671356px;font-style:normal;font-variant:normal;font-weight:300;font-stretch:normal;line-height:125%;letter-spacing:0px;word-spacing:0px;fill:#f08519;fill-opacity:1;stroke:none;font-family:Roboto Light;-inkscape-font-specification:'Roboto Light, Light'"
       id="text3757-1">
      <path
         d="m 320.14496,584.07354 c 2.54991,0 4.79984,-0.72855 6.74981,-2.18565 1.94992,-1.4571 2.92489,-3.48204 2.92492,-6.07483 l 3.40705,0 0.0643,0.19285 c 0.10711,3.2142 -1.17857,5.90341 -3.85703,8.06763 -2.67852,2.16423 -5.77486,3.24634 -9.28903,3.24634 -4.73559,0 -8.39441,-1.62317 -10.97647,-4.86951 -2.58208,-3.24633 -3.87311,-7.41942 -3.87311,-12.51929 l 0,-1.34996 c 0,-5.05698 1.29639,-9.214 3.88918,-12.47108 2.59277,-3.25701 6.23552,-4.88554 10.92826,-4.88557 3.81416,3e-5 6.99085,1.125 9.53009,3.3749 2.53918,2.24997 3.76593,5.20703 3.68025,8.87118 l -0.0643,0.19285 -3.43919,0 c -3e-5,-2.78561 -0.9375,-5.00876 -2.81242,-6.66945 -1.87497,-1.66064 -4.17312,-2.49097 -6.89445,-2.491 -3.72848,3e-5 -6.48733,1.33392 -8.27655,4.00167 -1.78924,2.66781 -2.68386,6.02664 -2.68385,10.0765 l 0,1.34996 c -1e-5,4.11419 0.88925,7.4998 2.66778,10.15686 1.77851,2.65707 4.55343,3.9856 8.32476,3.9856 z"
         style="font-family:Roboto Light;-inkscape-font-specification:'Roboto Light, Light'"
         id="path2995" />
      <path
         d="m 345.18354,557.81357 c 1.1571,-2.07848 2.69991,-3.69629 4.62844,-4.85344 1.9285,-1.15707 4.17844,-1.73563 6.74981,-1.73566 3.66416,3e-5 6.47658,1.13572 8.43726,3.40705 1.96063,2.27139 2.94096,5.79629 2.94099,10.5747 l 0,21.43868 -3.85703,0 0,-21.50297 c -3e-5,-3.77129 -0.74465,-6.47657 -2.23387,-8.11584 -1.48927,-1.63921 -3.54099,-2.45883 -6.15518,-2.45886 -2.63566,3e-5 -4.83738,0.69108 -6.60517,2.07316 -1.76782,1.38213 -3.06957,3.21958 -3.90525,5.51234 l 0,24.49217 -3.85703,0 0,-50.14144 3.85703,0 z"
         style="font-family:Roboto Light;-inkscape-font-specification:'Roboto Light, Light'"
         id="path2997" />
      <path
         d="m 399.98556,586.6449 c -0.25716,-1.17854 -0.4393,-2.19637 -0.54641,-3.05349 -0.10717,-0.85711 -0.16074,-1.72494 -0.16071,-2.6035 -1.2857,1.82139 -2.99994,3.33206 -5.14271,4.53202 -2.14282,1.19997 -4.55346,1.79995 -7.23194,1.79995 -3.38563,0 -6.01591,-0.89998 -7.89085,-2.69993 -1.87495,-1.79994 -2.81242,-4.21058 -2.81242,-7.23193 0,-3.21419 1.38746,-5.78554 4.16238,-7.71407 2.77492,-1.9285 6.51945,-2.89276 11.23362,-2.89278 l 7.68192,0 0,-4.30702 c -3e-5,-2.48562 -0.79822,-4.43556 -2.39457,-5.84983 -1.59641,-1.41422 -3.83027,-2.12134 -6.7016,-2.12137 -2.67851,3e-5 -4.90166,0.67501 -6.66946,2.02494 -1.76781,1.34999 -2.65171,2.99994 -2.65171,4.94986 l -3.53561,-0.0321 -0.0643,-0.19285 c -0.12858,-2.59276 1.05532,-4.91233 3.55168,-6.95874 2.49635,-2.04633 5.67304,-3.06952 9.53009,-3.06955 3.83558,3e-5 6.92121,0.97501 9.25688,2.92492 2.33562,1.94997 3.50344,4.74632 3.50347,8.38904 l 0,17.09952 c -3e-5,1.2214 0.0696,2.41065 0.20893,3.56776 0.13925,1.15711 0.3696,2.30351 0.69105,3.43919 z m -12.63178,-2.73207 c 2.76419,0 5.20697,-0.64819 7.32836,-1.94459 2.12135,-1.29638 3.65345,-2.95169 4.5963,-4.96593 l 0,-7.26408 -7.74621,0 c -3.49277,2e-5 -6.28376,0.74464 -8.37298,2.23387 -2.08923,1.48925 -3.13384,3.33741 -3.13384,5.54448 0,1.88567 0.64819,3.42313 1.94459,4.61237 1.29638,1.18926 3.09097,1.78388 5.38378,1.78388 z"
         style="font-family:Roboto Light;-inkscape-font-specification:'Roboto Light, Light'"
         id="path2999" />
      <path
         d="m 434.15246,577.80586 c -3e-5,-1.62851 -0.66965,-3.05347 -2.00887,-4.27488 -1.33927,-1.22138 -3.75527,-2.21778 -7.24801,-2.9892 -4.15704,-0.89996 -7.22659,-2.08921 -9.20867,-3.56776 -1.98209,-1.4785 -2.97314,-3.56773 -2.97313,-6.26768 -10e-6,-2.65704 1.1196,-4.90161 3.35883,-6.73373 2.23922,-1.83206 5.20163,-2.74811 8.88725,-2.74814 3.9213,3e-5 7.02835,0.96965 9.32117,2.90885 2.29276,1.93926 3.38559,4.36597 3.27848,7.28015 l -0.0643,0.19285 -3.56775,0 c -3e-5,-1.90706 -0.80893,-3.56773 -2.42672,-4.982 -1.61783,-1.41422 -3.79813,-2.12134 -6.54089,-2.12137 -2.80708,3e-5 -4.91237,0.60537 -6.31589,1.81602 -1.40354,1.21071 -2.10531,2.63031 -2.1053,4.25881 -1e-5,1.60712 0.60533,2.93565 1.81602,3.9856 1.21067,1.04999 3.62667,1.97139 7.24801,2.76421 4.13558,0.92142 7.23192,2.18031 9.28902,3.77667 2.05706,1.5964 3.0856,3.76598 3.08563,6.50875 -3e-5,2.89278 -1.17321,5.23378 -3.51954,7.02302 -2.34639,1.78923 -5.44808,2.68385 -9.3051,2.68385 -4.22132,0 -7.53729,-1.00712 -9.94793,-3.02134 -2.41065,-2.01423 -3.55169,-4.41416 -3.42312,-7.1998 l 0.0643,-0.19285 3.53561,0 c 0.14999,2.50708 1.17317,4.32845 3.06956,5.46413 1.89636,1.13568 4.13022,1.70352 6.70159,1.70352 2.78562,0 4.98198,-0.61069 6.5891,-1.83209 1.60708,-1.22139 2.41062,-2.69992 2.41065,-4.43559 z"
         style="font-family:Roboto Light;-inkscape-font-specification:'Roboto Light, Light'"
         id="path3001" />
      <path
         d="m 451.1877,586.6449 -3.8249,0 0,-34.77759 3.8249,0 z m 0,-44.7416 -3.8249,0 0,-5.39984 3.8249,0 z"
         style="font-family:Roboto Light;-inkscape-font-specification:'Roboto Light, Light'"
         id="path3003" />
      <path
         d="m 465.20159,551.86731 0.35356,6.07483 c 1.11424,-2.14277 2.61955,-3.79808 4.51594,-4.96594 1.89636,-1.16778 4.14094,-1.7517 6.73374,-1.75173 3.7713,3e-5 6.64264,1.15179 8.61404,3.45526 1.97134,2.30353 2.95703,5.89807 2.95706,10.78362 l 0,21.18155 -3.85703,0 0,-21.14941 c -3e-5,-3.98557 -0.74465,-6.80335 -2.23387,-8.45333 -1.48927,-1.64992 -3.60528,-2.4749 -6.34803,-2.47493 -2.69994,3e-5 -4.90167,0.71251 -6.60517,2.13744 -1.70354,1.42499 -2.93029,3.31601 -3.68026,5.67306 l 0,24.26717 -3.85703,0 0,-34.77759 z"
         style="font-family:Roboto Light;-inkscape-font-specification:'Roboto Light, Light'"
         id="path3005" />
      <path
         d="m 496.92568,569.54538 c 0,-5.54982 1.18389,-9.99076 3.55169,-13.32284 2.36778,-3.33201 5.66232,-4.99804 9.88365,-4.99807 2.46419,3e-5 4.59627,0.54109 6.39625,1.62317 1.79992,1.08214 3.28916,2.60888 4.46773,4.58022 l 0.44998,-5.56055 3.24634,0 0,34.3276 c -3e-5,4.47844 -1.2375,8.01405 -3.71239,10.60684 -2.47496,2.59277 -5.9195,3.88917 -10.33364,3.88918 -1.6714,-10e-6 -3.44992,-0.20358 -5.33557,-0.6107 -1.88567,-0.40714 -3.53562,-0.96427 -4.94986,-1.67138 l 0.9964,-3.24634 c 1.37138,0.68569 2.81777,1.20532 4.33917,1.55889 1.52137,0.35355 3.14989,0.53033 4.88557,0.53034 3.3856,-1e-5 5.94088,-0.97498 7.66586,-2.92492 1.72492,-1.94995 2.5874,-4.66058 2.58743,-8.13191 l 0,-4.37131 c -1.17857,1.7571 -2.66781,3.11242 -4.46773,4.06596 -1.79998,0.95355 -3.89991,1.43032 -6.29983,1.43032 -4.17846,0 -7.45158,-1.55353 -9.81936,-4.66058 -2.3678,-3.10705 -3.55169,-7.25336 -3.55169,-12.43894 z m 3.85704,0.67498 c -10e-6,4.17847 0.85711,7.51587 2.57135,10.01222 1.71423,2.49636 4.26415,3.74454 7.64979,3.74454 2.48562,0 4.55877,-0.56784 6.21946,-1.70353 1.66065,-1.13567 2.94096,-2.69991 3.84097,-4.69272 l 0,-16.13526 c -0.83572,-2.0142 -2.06247,-3.66415 -3.68026,-4.94986 -1.61783,-1.28565 -3.72313,-1.92849 -6.31589,-1.92852 -3.38563,3e-5 -5.94627,1.39285 -7.68193,4.17845 -1.73567,2.78567 -2.6035,6.38556 -2.60349,10.7997 z"
         style="font-family:Roboto Light;-inkscape-font-specification:'Roboto Light, Light'"
         id="path3007" />
    </g>
  </g>
</svg>
