<?xml version="1.0" encoding="UTF-8" standalone="no"?>
<!-- Created with Inkscape (http://www.inkscape.org/) -->

<svg
   xmlns:dc="http://purl.org/dc/elements/1.1/"
   xmlns:cc="http://creativecommons.org/ns#"
   xmlns:rdf="http://www.w3.org/1999/02/22-rdf-syntax-ns#"
   xmlns:svg="http://www.w3.org/2000/svg"
   xmlns="http://www.w3.org/2000/svg"
   xmlns:sodipodi="http://sodipodi.sourceforge.net/DTD/sodipodi-0.dtd"
   xmlns:inkscape="http://www.inkscape.org/namespaces/inkscape"
   width="510"
   height="163"
   viewbox="0 0 510 163"
   version="1.1"
   inkscape:version="0.48.4 r9939"
   sodipodi:docname="claim2.svg">
  <defs
     id="defs4" />
  <sodipodi:namedview
     id="base"
     pagecolor="#007ca3"
     bordercolor="#666666"
     borderopacity="1.0"
     inkscape:pageopacity="0"
     inkscape:pageshadow="2"
     inkscape:zoom="1.979899"
     inkscape:cx="275.57557"
     inkscape:cy="5.2045529"
     inkscape:document-units="px"
     inkscape:current-layer="layer1"
     showgrid="false"
     fit-margin-top="0"
     fit-margin-left="0"
     fit-margin-right="0"
     fit-margin-bottom="0"
     inkscape:window-width="1920"
     inkscape:window-height="1138"
     inkscape:window-x="-8"
     inkscape:window-y="-8"
     inkscape:window-maximized="1" />
  <metadata
     id="metadata7">
    <rdf:RDF>
      <cc:Work
         rdf:about="">
        <dc:format>image/svg+xml</dc:format>
        <dc:type
           rdf:resource="http://purl.org/dc/dcmitype/StillImage" />
        <dc:title></dc:title>
      </cc:Work>
    </rdf:RDF>
  </metadata>
  <g
     inkscape:label="Layer 1"
     inkscape:groupmode="layer"
     id="layer1"
     transform="translate(-73.822006,-440.04556)">
    <g
       style="font-size:41.66481018000000300px;font-style:normal;font-variant:normal;font-weight:normal;font-stretch:normal;line-height:125%;letter-spacing:0px;word-spacing:0px;fill:#ffffff;fill-opacity:1;stroke:none;font-family:Roboto Thin;-inkscape-font-specification:Roboto Thin"
       id="text2985">
      <path
         d="m 87.296947,477.20828 0.528947,1.01721 0.549292,-1.01721 9.826223,-16.45841 1.342713,0 -11.128247,18.37076 0,11.25031 -1.118928,0 0,-11.25031 -11.128248,-18.37076 1.342714,0 z"
         style="font-family:Roboto Thin;-inkscape-font-specification:Roboto Thin;fill:#ffffff"
         id="path3997" />
      <path
         d="m 102.10748,478.93753 c 0,-3.22792 0.89175,-5.86588 2.67526,-7.91387 1.7835,-2.04796 4.09934,-3.07194 6.94753,-3.07197 2.86172,3e-5 5.18434,1.02401 6.96786,3.07197 1.78349,2.04799 2.67524,4.68595 2.67526,7.91387 l 0,0.85446 c -2e-5,3.2415 -0.89177,5.88624 -2.67526,7.93421 -1.78352,2.04798 -4.09257,3.07197 -6.92718,3.07197 -2.86175,0 -5.18776,-1.02399 -6.97804,-3.07197 -1.79029,-2.04797 -2.68543,-4.69271 -2.68543,-7.93421 z m 1.09859,0.85446 c 0,2.76681 0.77307,5.10977 2.31923,7.0289 1.54615,1.91913 3.62803,2.8787 6.24565,2.87869 2.57691,10e-6 4.63845,-0.96295 6.18462,-2.88886 1.54614,-1.92591 2.31922,-4.26549 2.31924,-7.01873 l 0,-0.85446 c -2e-5,-2.69897 -0.77988,-5.0216 -2.33958,-6.96787 -1.55973,-1.94623 -3.62805,-2.91936 -6.20496,-2.91938 -2.5905,2e-5 -4.65882,0.97315 -6.20497,2.91938 -1.54616,1.94627 -2.31923,4.2689 -2.31923,6.96787 z"
         style="font-family:Roboto Thin;-inkscape-font-specification:Roboto Thin;fill:#ffffff"
         id="path3999" />
      <path
         d="m 141.41237,486.42418 c -0.69172,1.39696 -1.67841,2.4752 -2.96007,3.23472 -1.2817,0.75951 -2.83802,1.13927 -4.66898,1.13927 -2.26499,0 -4.03832,-0.8036 -5.32,-2.41078 -1.28168,-1.60719 -1.92252,-4.09934 -1.92252,-7.47648 l 0,-12.55233 1.09859,0 0,12.59302 c -1e-5,2.98382 0.54928,5.18776 1.64787,6.61185 1.09858,1.42409 2.5837,2.13614 4.45537,2.13613 2.29209,10e-6 4.05186,-0.56285 5.27931,-1.68856 1.22741,-1.12571 2.01066,-2.61761 2.34974,-4.47571 l 0,-15.17673 1.11893,0 0,22.01236 -0.91548,0 z"
         style="font-family:Roboto Thin;-inkscape-font-specification:Roboto Thin;fill:#ffffff"
         id="path4001" />
      <path
         d="m 159.11178,469.152 -1.42409,-0.12207 c -1.96661,2e-5 -3.56362,0.63408 -4.79104,1.90218 -1.22744,1.26814 -2.02425,2.93975 -2.39044,5.01483 l 0,14.424 -1.09858,0 0,-22.01236 0.89514,0 0.20344,3.82469 0,0.75274 c 0.61032,-1.57326 1.51902,-2.7973 2.72611,-3.67212 1.20708,-0.87478 2.6922,-1.31217 4.45537,-1.3122 0.31193,3e-5 0.60014,0.0238 0.86463,0.0712 0.26446,0.0475 0.49164,0.0983 0.68153,0.15258 z"
         style="font-family:Roboto Thin;-inkscape-font-specification:Roboto Thin;fill:#ffffff"
         id="path4003" />
      <path
         d="m 172.23376,479.34441 c -1e-5,-3.48561 0.73238,-6.2558 2.19716,-8.31058 1.46478,-2.05474 3.49919,-3.08211 6.10325,-3.08214 1.72246,3e-5 3.21097,0.38656 4.46554,1.15962 1.25454,0.7731 2.25479,1.83099 3.00076,3.17369 l 0,-13.65093 1.09858,0 0,31.73687 -1.05789,0 -0.0407,-3.41782 c -0.73241,1.17997 -1.73944,2.1158 -3.02111,2.8075 -1.28169,0.6917 -2.77699,1.03755 -4.48588,1.03755 -2.5905,0 -4.61474,-0.99008 -6.07273,-2.97025 -1.458,-1.98016 -2.187,-4.66558 -2.18699,-8.05628 z m 1.13927,0.42723 c -1e-5,3.03807 0.60015,5.45224 1.80045,7.24252 1.2003,1.79028 2.96685,2.68543 5.29965,2.68542 1.91234,10e-6 3.50257,-0.434 4.77071,-1.30202 1.2681,-0.86801 2.18697,-2.02763 2.75663,-3.47885 l 0,-10.31448 c -0.52897,-1.57326 -1.38342,-2.89224 -2.56336,-3.95694 -1.17998,-1.06465 -2.82107,-1.59699 -4.92329,-1.59701 -2.3328,2e-5 -4.10613,0.9528 -5.31999,2.85835 -1.21387,1.90558 -1.82081,4.38418 -1.8208,7.43578 z"
         style="font-family:Roboto Thin;-inkscape-font-specification:Roboto Thin;fill:#ffffff"
         id="path4005" />
      <path
         d="m 209.85008,486.30211 c -0.75953,1.32916 -1.89202,2.41078 -3.39748,3.24489 -1.50548,0.83411 -3.32966,1.25117 -5.47257,1.25117 -2.04798,0 -3.65517,-0.55947 -4.82156,-1.67839 -1.1664,-1.11893 -1.7496,-2.62779 -1.7496,-4.52658 0,-1.84452 0.8714,-3.39068 2.61422,-4.63846 1.74281,-1.24776 3.92302,-1.87165 6.54065,-1.87166 l 6.28634,0 0,-3.21438 c -2e-5,-1.83095 -0.58661,-3.25843 -1.75977,-4.28244 -1.1732,-1.02397 -2.82446,-1.53596 -4.9538,-1.53598 -1.99374,2e-5 -3.59753,0.4815 -4.81139,1.44443 -1.21387,0.96298 -1.82081,2.20397 -1.8208,3.72298 l -0.91549,-0.0407 -0.0407,-0.10172 c -0.0814,-1.70889 0.5832,-3.15671 1.99373,-4.34347 1.41052,-1.18672 3.2754,-1.78009 5.59464,-1.78012 2.35991,3e-5 4.25191,0.59679 5.67602,1.79029 1.42407,1.19354 2.13611,2.91601 2.13613,5.16741 l 0,11.02653 c -2e-5,0.77308 0.0441,1.52581 0.13224,2.2582 0.0881,0.73239 0.23394,1.458 0.4374,2.17682 l -1.22065,0 c -0.17634,-0.96295 -0.29501,-1.68517 -0.35602,-2.16665 -0.061,-0.48148 -0.0916,-1.00025 -0.0916,-1.55633 z m -8.87005,3.41782 c 2.18359,0 4.03152,-0.48148 5.54378,-1.44444 1.51223,-0.96295 2.62099,-2.33957 3.32627,-4.12986 l 0,-4.94362 -6.22531,0 c -2.27856,1e-5 -4.20108,0.52556 -5.76757,1.57667 -1.5665,1.05112 -2.34975,2.34975 -2.34975,3.8959 0,1.47835 0.49843,2.68882 1.4953,3.63143 0.99686,0.94261 2.32262,1.41392 3.97728,1.41392 z"
         style="font-family:Roboto Thin;-inkscape-font-specification:Roboto Thin;fill:#ffffff"
         id="path4007" />
      <path
         d="m 220.28662,462.41809 0,5.94049 5.41154,0 0,1.11892 -5.41154,0 0,15.21742 c -1e-5,1.80386 0.30515,3.08893 0.91548,3.85522 0.61032,0.7663 1.41731,1.14945 2.42096,1.14944 0.36618,10e-6 0.69169,-0.0136 0.97652,-0.0407 0.2848,-0.0271 0.67812,-0.0746 1.17996,-0.14241 l 0.20344,0.99686 c -0.33908,0.1085 -0.69171,0.1831 -1.0579,0.22379 -0.3662,0.0407 -0.77987,0.061 -1.24099,0.061 -1.47835,0 -2.60067,-0.48148 -3.36696,-1.44444 -0.7663,-0.96295 -1.14944,-2.51589 -1.14944,-4.65881 l 0,-15.21742 -4.06883,0 0,-1.11892 4.06883,0 0,-5.94049 z"
         style="font-family:Roboto Thin;-inkscape-font-specification:Roboto Thin;fill:#ffffff"
         id="path4009" />
      <path
         d="m 244.67926,486.30211 c -0.75953,1.32916 -1.89202,2.41078 -3.39747,3.24489 -1.50548,0.83411 -3.32967,1.25117 -5.47258,1.25117 -2.04798,0 -3.65517,-0.55947 -4.82156,-1.67839 -1.1664,-1.11893 -1.7496,-2.62779 -1.74959,-4.52658 -1e-5,-1.84452 0.8714,-3.39068 2.61422,-4.63846 1.74281,-1.24776 3.92302,-1.87165 6.54064,-1.87166 l 6.28634,0 0,-3.21438 c -2e-5,-1.83095 -0.5866,-3.25843 -1.75977,-4.28244 -1.17319,-1.02397 -2.82445,-1.53596 -4.9538,-1.53598 -1.99373,2e-5 -3.59753,0.4815 -4.81139,1.44443 -1.21387,0.96298 -1.8208,2.20397 -1.8208,3.72298 l -0.91548,-0.0407 -0.0407,-0.10172 c -0.0814,-1.70889 0.58319,-3.15671 1.99372,-4.34347 1.41052,-1.18672 3.2754,-1.78009 5.59464,-1.78012 2.35991,3e-5 4.25192,0.59679 5.67602,1.79029 1.42407,1.19354 2.13612,2.91601 2.13614,5.16741 l 0,11.02653 c -2e-5,0.77308 0.0441,1.52581 0.13223,2.2582 0.0881,0.73239 0.23394,1.458 0.4374,2.17682 l -1.22065,0 c -0.17633,-0.96295 -0.295,-1.68517 -0.35602,-2.16665 -0.0611,-0.48148 -0.0916,-1.00025 -0.0916,-1.55633 z m -8.87005,3.41782 c 2.1836,0 4.03152,-0.48148 5.54378,-1.44444 1.51224,-0.96295 2.62099,-2.33957 3.32627,-4.12986 l 0,-4.94362 -6.22531,0 c -2.27855,1e-5 -4.20107,0.52556 -5.76756,1.57667 -1.5665,1.05112 -2.34975,2.34975 -2.34975,3.8959 0,1.47835 0.49843,2.68882 1.49529,3.63143 0.99686,0.94261 2.32262,1.41392 3.97728,1.41392 z"
         style="font-family:Roboto Thin;-inkscape-font-specification:Roboto Thin;fill:#ffffff"
         id="path4011" />
      <path
         d="m 264.51479,490.37094 0,-20.89344 -3.82469,0 0,-1.11892 3.82469,0 0,-3.62126 c 0,-2.07508 0.50521,-3.68226 1.51564,-4.82156 1.01042,-1.13925 2.42434,-1.70888 4.24176,-1.70891 0.44756,3e-5 0.89174,0.0272 1.33254,0.0814 0.44078,0.0543 0.86461,0.14244 1.27151,0.26448 l -0.16275,1.05789 c -0.43403,-0.10847 -0.81717,-0.18645 -1.14945,-0.23395 -0.3323,-0.0474 -0.75613,-0.0712 -1.27151,-0.0712 -1.46479,3e-5 -2.61084,0.48151 -3.43816,1.44444 -0.82733,0.96298 -1.241,2.29213 -1.24099,3.98745 l 0,3.62126 5.81842,0 0,1.11892 -5.81842,0 0,20.89344 z"
         style="font-family:Roboto Thin;-inkscape-font-specification:Roboto Thin;fill:#ffffff"
         id="path4013" />
      <path
         d="m 274.21896,478.93753 c 0,-3.22792 0.89175,-5.86588 2.67526,-7.91387 1.78349,-2.04796 4.09933,-3.07194 6.94752,-3.07197 2.86173,3e-5 5.18435,1.02401 6.96787,3.07197 1.78349,2.04799 2.67524,4.68595 2.67526,7.91387 l 0,0.85446 c -2e-5,3.2415 -0.89177,5.88624 -2.67526,7.93421 -1.78352,2.04798 -4.09258,3.07197 -6.92718,3.07197 -2.86175,0 -5.18776,-1.02399 -6.97804,-3.07197 -1.79029,-2.04797 -2.68543,-4.69271 -2.68543,-7.93421 z m 1.09858,0.85446 c 0,2.76681 0.77308,5.10977 2.31924,7.0289 1.54615,1.91913 3.62803,2.8787 6.24565,2.87869 2.57691,10e-6 4.63845,-0.96295 6.18462,-2.88886 1.54614,-1.92591 2.31921,-4.26549 2.31923,-7.01873 l 0,-0.85446 c -2e-5,-2.69897 -0.77988,-5.0216 -2.33957,-6.96787 -1.55974,-1.94623 -3.62806,-2.91936 -6.20497,-2.91938 -2.59049,2e-5 -4.65881,0.97315 -6.20496,2.91938 -1.54616,1.94627 -2.31924,4.2689 -2.31924,6.96787 z"
         style="font-family:Roboto Thin;-inkscape-font-specification:Roboto Thin;fill:#ffffff"
         id="path4015" />
      <path
         d="m 308.4378,469.152 -1.42409,-0.12207 c -1.96661,2e-5 -3.56362,0.63408 -4.79104,1.90218 -1.22744,1.26814 -2.02425,2.93975 -2.39044,5.01483 l 0,14.424 -1.09859,0 0,-22.01236 0.89515,0 0.20344,3.82469 0,0.75274 c 0.61032,-1.57326 1.51902,-2.7973 2.72611,-3.67212 1.20708,-0.87478 2.6922,-1.31217 4.45537,-1.3122 0.31193,3e-5 0.60014,0.0238 0.86463,0.0712 0.26446,0.0475 0.49163,0.0983 0.68153,0.15258 z"
         style="font-family:Roboto Thin;-inkscape-font-specification:Roboto Thin;fill:#ffffff"
         id="path4017" />
    </g>
    <g
       style="font-size:68.88666534px;font-style:normal;font-variant:normal;font-weight:300;font-stretch:normal;line-height:125%;letter-spacing:0px;word-spacing:0px;fill:#f08519;fill-opacity:1;stroke:none;font-family:Roboto Light;-inkscape-font-specification:'Roboto Light, Light'"
       id="text3757">
      <path
         d="m 343.77229,482.99776 c -3e-5,-1.70421 -0.70078,-3.19541 -2.10225,-4.47359 -1.40153,-1.27816 -3.92984,-2.32088 -7.58494,-3.12816 -4.35027,-0.94179 -7.56252,-2.18632 -9.63673,-3.7336 -2.07423,-1.54724 -3.11134,-3.73358 -3.11134,-6.55904 0,-2.78055 1.17165,-5.12946 3.51497,-7.04675 2.34331,-1.91722 5.44343,-2.87585 9.30038,-2.87589 4.10357,4e-5 7.35506,1.01473 9.75446,3.04407 2.39934,2.02941 3.54296,4.56893 3.43087,7.61857 l -0.0673,0.20181 -3.7336,0 c -3e-5,-1.99571 -0.84654,-3.73357 -2.53952,-5.21359 -1.69304,-1.47995 -3.97469,-2.21994 -6.84494,-2.21998 -2.93757,4e-5 -5.14073,0.63352 -6.60949,1.90044 -1.46879,1.26699 -2.20317,2.75258 -2.20316,4.45678 -10e-6,1.68183 0.63347,3.07212 1.90043,4.17087 1.26695,1.0988 3.79526,2.06304 7.58494,2.8927 4.32782,0.96426 7.56809,2.28167 9.72082,3.95224 2.15268,1.67061 3.22903,3.94104 3.22906,6.81131 -3e-5,3.02725 -1.22774,5.47707 -3.68315,7.34948 -2.45545,1.8724 -5.70133,2.80861 -9.73764,2.80861 -4.41755,0 -7.88767,-1.05393 -10.41036,-3.16179 -2.52271,-2.10786 -3.71679,-4.61935 -3.58224,-7.53448 l 0.0673,-0.20182 3.69997,0 c 0.15696,2.62362 1.22771,4.52967 3.21224,5.71813 1.98452,1.18848 4.32222,1.78272 7.01312,1.78272 2.91511,0 5.21357,-0.63909 6.8954,-1.91726 1.68177,-1.27817 2.52267,-2.82542 2.5227,-4.64178 z"
         style="font-family:Roboto Light;-inkscape-font-specification:'Roboto Light, Light'"
         id="path3978" />
      <path
         d="m 363.41575,446.53627 0,9.31719 8.00539,0 0,3.29633 -8.00539,0 0,23.71343 c -10e-6,2.37695 0.43166,4.06436 1.29499,5.06223 0.86332,0.99787 2.01255,1.4968 3.4477,1.4968 0.65028,0 1.28376,-0.028 1.90044,-0.0841 0.61664,-0.0561 1.3286,-0.15136 2.13589,-0.28591 l 0.60545,2.99361 c -0.67274,0.29152 -1.49122,0.51576 -2.45544,0.67273 -0.96425,0.15696 -1.92848,0.23545 -2.8927,0.23545 -2.55635,0 -4.54648,-0.80727 -5.9704,-2.4218 -1.42393,-1.61453 -2.1359,-4.17087 -2.13589,-7.66902 l 0,-23.71343 -6.28994,0 0,-3.29633 6.28994,0 0,-9.31719 z"
         style="font-family:Roboto Light;-inkscape-font-specification:'Roboto Light, Light'"
         id="path3980" />
      <path
         d="m 396.71546,459.31797 -2.99361,-0.20182 c -2.53393,4e-5 -4.61376,0.712 -6.23949,2.13589 -1.62575,1.42396 -2.7862,3.38046 -3.48133,5.8695 l 0,25.12614 -4.03633,0 0,-36.39422 3.53179,0 0.50454,6.05449 0,0.40363 c 1.05392,-2.24237 2.46663,-3.99145 4.23814,-5.24723 1.77149,-1.25571 3.87934,-1.88358 6.32358,-1.88362 0.51573,4e-5 1.01467,0.0393 1.49681,0.11773 0.48209,0.0785 0.88012,0.16261 1.19408,0.25227 z"
         style="font-family:Roboto Light;-inkscape-font-specification:'Roboto Light, Light'"
         id="path3982" />
      <path
         d="m 426.41611,492.24768 c -0.26912,-1.23332 -0.45972,-2.29846 -0.57181,-3.19543 -0.11215,-0.89695 -0.16821,-1.80513 -0.16818,-2.72452 -1.34547,1.90605 -3.13939,3.48694 -5.38177,4.74269 -2.24243,1.25574 -4.76513,1.88362 -7.56812,1.88362 -3.54301,0 -6.29556,-0.94181 -8.25765,-2.82543 -1.96211,-1.88362 -2.94316,-4.40632 -2.94316,-7.56812 0,-3.36359 1.45195,-6.05447 4.35587,-8.07265 2.9039,-2.01815 6.8225,-3.02723 11.75581,-3.02725 l 8.03902,0 0,-4.50723 c -3e-5,-2.60116 -0.83533,-4.64175 -2.50589,-6.12177 -1.67062,-1.47995 -4.00832,-2.21994 -7.01312,-2.21998 -2.80302,4e-5 -5.12951,0.70639 -6.97948,2.11908 -1.85,1.41274 -2.77499,3.13939 -2.77498,5.17995 l -3.69997,-0.0336 -0.0673,-0.20181 c -0.13455,-2.71328 1.10438,-5.14068 3.71679,-7.28221 2.61239,-2.14146 5.93675,-3.21221 9.97309,-3.21225 4.01388,4e-5 7.24294,1.02033 9.68719,3.06089 2.44419,2.04062 3.6663,4.96695 3.66633,8.77901 l 0,17.89439 c -3e-5,1.27817 0.0728,2.52271 0.21863,3.7336 0.14573,1.2109 0.38679,2.41059 0.72318,3.59906 z m -13.21897,-2.85907 c 2.89268,10e-6 5.44902,-0.67832 7.66902,-2.03498 2.21995,-1.35665 3.82327,-3.0889 4.80996,-5.19677 l 0,-7.60175 -8.1063,0 c -3.65513,2e-5 -6.57586,0.77925 -8.76219,2.33771 -2.18635,1.55848 -3.27953,3.49255 -3.27952,5.80222 -1e-5,1.97332 0.67832,3.58224 2.03498,4.82677 1.35665,1.24454 3.23466,1.86681 5.63405,1.8668 z"
         style="font-family:Roboto Light;-inkscape-font-specification:'Roboto Light, Light'"
         id="path3984" />
      <path
         d="m 446.69866,446.53627 0,9.31719 8.00538,0 0,3.29633 -8.00538,0 0,23.71343 c -2e-5,2.37695 0.43165,4.06436 1.29499,5.06223 0.86331,0.99787 2.01254,1.4968 3.44769,1.4968 0.65028,0 1.28376,-0.028 1.90044,-0.0841 0.61664,-0.0561 1.3286,-0.15136 2.13589,-0.28591 l 0.60545,2.99361 c -0.67274,0.29152 -1.49122,0.51576 -2.45543,0.67273 -0.96426,0.15696 -1.92849,0.23545 -2.89271,0.23545 -2.55635,0 -4.54648,-0.80727 -5.9704,-2.4218 -1.42393,-1.61453 -2.1359,-4.17087 -2.13589,-7.66902 l 0,-23.71343 -6.28994,0 0,-3.29633 6.28994,0 0,-9.31719 z"
         style="font-family:Roboto Light;-inkscape-font-specification:'Roboto Light, Light'"
         id="path3986" />
      <path
         d="m 476.90385,492.95404 c -4.5521,0 -8.33615,-1.6818 -11.35218,-5.04541 -3.01603,-3.3636 -4.52405,-7.62417 -4.52405,-12.78171 l 0,-1.84998 c 0,-5.20236 1.4968,-9.51898 4.49042,-12.94989 2.9936,-3.43084 6.62068,-5.14628 10.88127,-5.14632 4.46236,4e-5 7.97172,1.41276 10.52809,4.23815 2.5563,2.82546 3.83447,6.59269 3.83451,11.30172 l 0,3.43088 -25.69796,0 0,0.97544 c -10e-6,4.10362 1.08756,7.53449 3.2627,10.29264 2.17512,2.75816 5.03418,4.13724 8.5772,4.13724 2.51147,0 4.65296,-0.34757 6.42449,-1.04272 1.77147,-0.69514 3.28509,-1.69301 4.54087,-2.99361 l 1.71543,2.75815 c -1.36789,1.43515 -3.10015,2.57317 -5.19677,3.41407 -2.09667,0.8409 -4.59134,1.26135 -7.48402,1.26135 z m -0.50454,-34.34243 c -2.98242,4e-5 -5.4827,1.13806 -7.50085,3.41406 -2.01817,2.27607 -3.19543,5.12953 -3.53178,8.56038 l 0.0673,0.16818 21.32526,0 0,-1.00908 c -2e-5,-3.16176 -0.93062,-5.8078 -2.79179,-7.93811 -1.86122,-2.13025 -4.38392,-3.19539 -7.56811,-3.19543 z"
         style="font-family:Roboto Light;-inkscape-font-specification:'Roboto Light, Light'"
         id="path3988" />
      <path
         d="m 497.18639,474.35329 c 0,-5.8078 1.23893,-10.45518 3.71679,-13.94215 2.47785,-3.4869 5.92554,-5.23037 10.34309,-5.23041 2.57874,4e-5 4.80993,0.56625 6.69358,1.69863 1.88359,1.13244 3.44206,2.73016 4.67541,4.79314 l 0.4709,-5.81904 3.39725,0 0,35.92332 c -4e-5,4.68662 -1.29502,8.38658 -3.88497,11.0999 -2.59,2.71329 -6.19466,4.06995 -10.81399,4.06996 -1.7491,-10e-6 -3.61029,-0.21304 -5.58359,-0.63908 -1.97333,-0.42607 -3.69998,-1.0091 -5.17996,-1.74908 l 1.04272,-3.39724 c 1.43513,0.71756 2.94875,1.26134 4.54087,1.63135 1.59209,0.36998 3.29632,0.55498 5.11268,0.55499 3.54298,-10e-6 6.21705,-1.0203 8.02221,-3.06088 1.8051,-2.04059 2.70767,-4.87723 2.7077,-8.50992 l 0,-4.57451 c -1.23335,1.83878 -2.79182,3.25709 -4.67541,4.25496 -1.88365,0.99787 -4.0812,1.49681 -6.59267,1.49681 -4.37271,0 -7.79797,-1.62574 -10.27582,-4.87723 -2.47786,-3.25148 -3.71679,-7.59053 -3.71679,-13.01716 z m 4.03633,0.70636 c -10e-6,4.3727 0.89695,7.86524 2.69089,10.47764 1.79391,2.6124 4.46237,3.9186 8.00538,3.9186 2.60117,0 4.77069,-0.59424 6.50858,-1.78271 1.73784,-1.18847 3.07767,-2.82543 4.01951,-4.91087 l 0,-16.88531 c -0.87457,-2.10783 -2.15834,-3.83448 -3.85133,-5.17995 -1.69304,-1.34541 -3.8962,-2.01813 -6.60949,-2.01816 -3.54301,3e-5 -6.22268,1.45759 -8.03902,4.37268 -1.81635,2.91516 -2.72453,6.68239 -2.72452,11.30172 z"
         style="font-family:Roboto Light;-inkscape-font-specification:'Roboto Light, Light'"
         id="path3990" />
      <path
         d="m 541.61964,492.24768 -4.00269,0 0,-36.39422 4.00269,0 z m 0,-46.8214 -4.00269,0 0,-5.65086 4.00269,0 z"
         style="font-family:Roboto Light;-inkscape-font-specification:'Roboto Light, Light'"
         id="path3992" />
      <path
         d="m 566.20761,489.5568 c 2.66844,0 5.02296,-0.76242 7.06357,-2.28726 2.04056,-1.52483 3.06085,-3.6439 3.06088,-6.35721 l 3.56543,0 0.0673,0.20181 c 0.11209,3.36362 -1.23336,6.17783 -4.03633,8.44266 -2.80303,2.26482 -6.0433,3.39724 -9.72082,3.39724 -4.95573,0 -8.78463,-1.69862 -11.48672,-5.09587 -2.7021,-3.39723 -4.05315,-7.76431 -4.05315,-13.10124 l 0,-1.41272 c 0,-5.29205 1.35665,-9.64231 4.06997,-13.05079 2.7133,-3.40842 6.52538,-5.11265 11.43626,-5.11269 3.99146,4e-5 7.31582,1.1773 9.97309,3.53179 2.65722,2.35456 3.941,5.44907 3.85133,9.28356 l -0.0673,0.20181 -3.59906,0 c -3e-5,-2.9151 -0.98108,-5.24159 -2.94315,-6.97948 -1.96213,-1.73783 -4.36711,-2.60676 -7.21494,-2.6068 -3.9018,4e-5 -6.78889,1.39593 -8.66129,4.18769 -1.87241,2.79182 -2.80862,6.30679 -2.80861,10.54491 l 0,1.41272 c -10e-6,4.30543 0.93059,7.84842 2.79179,10.62899 1.86119,2.78059 4.7651,4.17088 8.71175,4.17088 z"
         style="font-family:Roboto Light;-inkscape-font-specification:'Roboto Light, Light'"
         id="path3994" />
    </g>
    <g
       style="font-size:62.17481995px;font-style:normal;font-weight:normal;line-height:125%;letter-spacing:0px;word-spacing:0px;fill:#ffffff;fill-opacity:1;stroke:none;font-family:Roboto Thin;-inkscape-font-specification:Roboto Thin"
       id="text3761">
      <path
         d="m 105.68865,523.64956 c -3e-5,5.05981 -1.09294,9.06717 -3.27875,12.02208 -2.18585,2.95493 -5.201492,4.43239 -9.046918,4.43239 -2.590633,0 -4.847301,-0.52116 -6.770012,-1.56348 -1.922733,-1.04232 -3.420433,-2.454 -4.493102,-4.23505 l -0.212512,5.16099 -1.366146,0 0,-47.35972 1.639375,0 0,20.37075 c 1.092909,-2.00365 2.580489,-3.58231 4.462744,-4.73597 1.882232,-1.1536 4.108542,-1.73042 6.678935,-1.73045 3.865666,3e-5 6.896486,1.53315 9.092456,4.59935 2.19593,3.06627 3.2939,7.20012 3.29393,12.40157 z m -1.70009,-0.63754 c -3e-5,-4.5538 -0.91079,-8.25251 -2.73229,-11.09614 -1.821552,-2.84358 -4.462765,-4.26538 -7.923647,-4.26541 -3.177569,3e-5 -5.646749,0.79948 -7.407547,2.39835 -1.760819,1.59892 -3.015648,3.56212 -3.764491,5.8896 l 0,15.39191 c 0.809561,2.1656 2.165586,3.89605 4.068079,5.19136 1.902472,1.29531 4.290695,1.94296 7.164677,1.94296 3.460881,0 6.091975,-1.33578 7.893289,-4.00736 1.80126,-2.67157 2.7019,-6.27414 2.70193,-10.80773 z"
         style=""
         id="path3943" />
      <path
         d="m 136.65463,533.57688 c -1.03223,2.08465 -2.50463,3.69366 -4.41721,4.82705 -1.91262,1.1334 -4.23507,1.7001 -6.96734,1.7001 -3.37996,0 -6.02623,-1.19918 -7.93883,-3.59752 -1.91261,-2.39834 -2.86891,-6.11729 -2.8689,-11.15686 l 0,-18.73138 1.63937,0 0,18.7921 c -1e-5,4.45263 0.81968,7.7415 2.45906,9.86661 1.63937,2.12512 3.85556,3.18767 6.64858,3.18767 3.42041,0 6.04644,-0.83992 7.87811,-2.51978 1.83162,-1.67985 3.00043,-3.90616 3.50644,-6.67893 l 0,-22.64767 1.66973,0 0,32.84822 -1.36614,0 z"
         style=""
         id="path3945" />
      <path
         d="m 168.71352,531.42141 c -3e-5,-1.74056 -0.74382,-3.32428 -2.23137,-4.75115 -1.48761,-1.42685 -4.08328,-2.54507 -7.78703,-3.35465 -3.90618,-0.82979 -6.73461,-1.89741 -8.48529,-3.20285 -1.75069,-1.30541 -2.62604,-3.24331 -2.62603,-5.81371 -1e-5,-2.34772 0.99171,-4.31598 2.97516,-5.90479 1.98343,-1.58874 4.655,-2.38313 8.01472,-2.38316 3.6228,3e-5 6.47652,0.85007 8.56118,2.55013 2.08461,1.70013 3.07633,3.91632 2.97516,6.64858 l -0.0607,0.18215 -1.39651,0 c -2e-5,-2.14532 -0.90573,-3.97191 -2.71711,-5.47976 -1.81143,-1.50779 -4.26543,-2.2617 -7.36201,-2.26173 -3.07637,3e-5 -5.40388,0.66287 -6.98252,1.9885 -1.57867,1.3257 -2.368,2.85882 -2.36799,4.59936 -1e-5,1.72036 0.66789,3.1877 2.00368,4.40203 1.33578,1.21437 3.98711,2.27692 7.95401,3.18767 3.66327,0.85006 6.4411,2.00876 8.33349,3.47608 1.89234,1.46736 2.83852,3.51657 2.83854,6.14766 -2e-5,2.57038 -1.05246,4.65502 -3.15731,6.25391 -2.1049,1.5989 -4.89791,2.39835 -8.37903,2.39835 -3.82522,0 -6.82568,-0.85511 -9.00138,-2.56532 -2.17572,-1.71021 -3.19274,-3.78979 -3.05106,-6.23874 l 0.0607,-0.18215 1.33578,0 c 0.16191,2.59063 1.27507,4.46275 3.33947,5.61638 2.06439,1.15364 4.50321,1.73045 7.31647,1.73045 3.03586,0 5.44432,-0.70837 7.22539,-2.12511 1.78103,-1.41674 2.67155,-3.05612 2.67158,-4.91813 z"
         style=""
         id="path3947" />
      <path
         d="m 181.58565,539.46649 -1.63938,0 0,-32.84822 1.63938,0 z m 0,-43.17021 -1.63938,0 0,-4.18951 1.63938,0 z"
         style=""
         id="path3949" />
      <path
         d="m 193.82024,506.61827 0.21252,6.77001 c 0.99171,-2.34772 2.43881,-4.16418 4.3413,-5.4494 1.90248,-1.28516 4.25022,-1.92775 7.04325,-1.92778 3.58231,3e-5 6.26906,1.12836 8.06026,3.385 1.79114,2.2567 2.68672,5.83397 2.68675,10.73184 l 0,19.33855 -1.63937,0 0,-19.39927 c -3e-5,-4.5538 -0.81466,-7.76171 -2.44389,-9.62374 -1.62928,-1.86198 -3.84041,-2.79298 -6.6334,-2.79301 -3.54187,3e-5 -6.21344,1.05753 -8.01472,3.1725 -1.8013,2.11502 -2.92457,4.82201 -3.36983,8.12097 l 0,20.52255 -1.63937,0 0,-32.84822 z"
         style=""
         id="path3951" />
      <path
         d="m 237.628,540.10403 c -3.74427,0 -6.97748,-1.51288 -9.69964,-4.53864 -2.72217,-3.02576 -4.08326,-6.78518 -4.08326,-11.2783 l 0,-1.94296 c 0,-4.71571 1.31555,-8.61681 3.94665,-11.70332 2.63108,-3.08644 5.87947,-4.62968 9.74517,-4.62971 3.70376,3e-5 6.72445,1.21438 9.0621,3.64305 2.3376,2.42873 3.50642,5.68724 3.50644,9.77553 l 0,2.51978 -24.62098,0 0,0.39467 0,1.94296 c -1e-5,3.9669 1.16375,7.32154 3.49126,10.06394 2.3275,2.74242 5.21158,4.11362 8.65226,4.11362 2.44892,0 4.49814,-0.33394 6.14765,-1.00184 1.64948,-0.66789 3.06116,-1.66973 4.23506,-3.00552 l 0.8804,1.27507 c -1.29533,1.43698 -2.86893,2.52484 -4.72079,3.26357 -1.85191,0.73873 -4.03268,1.1081 -6.54232,1.1081 z m -0.0911,-32.45356 c -3.25852,3e-5 -5.97057,1.18908 -8.13616,3.56716 -2.1656,2.37813 -3.39007,5.34823 -3.67341,8.91031 l 0.0911,0.18215 22.64766,0 0,-1.00184 c -3e-5,-3.33945 -1.01199,-6.11727 -3.03588,-8.33349 -2.02394,-2.21616 -4.65504,-3.32426 -7.89329,-3.32429 z"
         style=""
         id="path3953" />
      <path
         d="m 277.88376,531.42141 c -2e-5,-1.74056 -0.74381,-3.32428 -2.23137,-4.75115 -1.4876,-1.42685 -4.08328,-2.54507 -7.78703,-3.35465 -3.90618,-0.82979 -6.7346,-1.89741 -8.48529,-3.20285 -1.75069,-1.30541 -2.62604,-3.24331 -2.62603,-5.81371 -10e-6,-2.34772 0.99171,-4.31598 2.97516,-5.90479 1.98343,-1.58874 4.655,-2.38313 8.01472,-2.38316 3.6228,3e-5 6.47652,0.85007 8.56118,2.55013 2.08462,1.70013 3.07634,3.91632 2.97517,6.64858 l -0.0607,0.18215 -1.39651,0 c -2e-5,-2.14532 -0.90572,-3.97191 -2.71711,-5.47976 -1.81143,-1.50779 -4.26543,-2.2617 -7.36201,-2.26173 -3.07637,3e-5 -5.40387,0.66287 -6.98252,1.9885 -1.57867,1.3257 -2.36799,2.85882 -2.36799,4.59936 0,1.72036 0.66789,3.1877 2.00368,4.40203 1.33578,1.21437 3.98711,2.27692 7.95401,3.18767 3.66327,0.85006 6.4411,2.00876 8.33349,3.47608 1.89234,1.46736 2.83852,3.51657 2.83855,6.14766 -3e-5,2.57038 -1.05247,4.65502 -3.15732,6.25391 -2.1049,1.5989 -4.8979,2.39835 -8.37903,2.39835 -3.82522,0 -6.82568,-0.85511 -9.00138,-2.56532 -2.17572,-1.71021 -3.19274,-3.78979 -3.05106,-6.23874 l 0.0607,-0.18215 1.33578,0 c 0.16191,2.59063 1.27507,4.46275 3.33947,5.61638 2.06439,1.15364 4.50321,1.73045 7.31647,1.73045 3.03586,0 5.44433,-0.70837 7.2254,-2.12511 1.78102,-1.41674 2.67155,-3.05612 2.67157,-4.91813 z"
         style=""
         id="path3955" />
      <path
         d="m 308.84973,531.42141 c -2e-5,-1.74056 -0.74381,-3.32428 -2.23137,-4.75115 -1.4876,-1.42685 -4.08327,-2.54507 -7.78703,-3.35465 -3.90618,-0.82979 -6.7346,-1.89741 -8.48528,-3.20285 -1.7507,-1.30541 -2.62604,-3.24331 -2.62604,-5.81371 0,-2.34772 0.99172,-4.31598 2.97516,-5.90479 1.98343,-1.58874 4.65501,-2.38313 8.01473,-2.38316 3.62279,3e-5 6.47652,0.85007 8.56118,2.55013 2.08461,1.70013 3.07633,3.91632 2.97516,6.64858 l -0.0607,0.18215 -1.3965,0 c -3e-5,-2.14532 -0.90573,-3.97191 -2.71712,-5.47976 -1.81142,-1.50779 -4.26543,-2.2617 -7.362,-2.26173 -3.07637,3e-5 -5.40388,0.66287 -6.98253,1.9885 -1.57866,1.3257 -2.36799,2.85882 -2.36798,4.59936 -1e-5,1.72036 0.66788,3.1877 2.00368,4.40203 1.33577,1.21437 3.98711,2.27692 7.954,3.18767 3.66328,0.85006 6.4411,2.00876 8.33349,3.47608 1.89234,1.46736 2.83852,3.51657 2.83855,6.14766 -3e-5,2.57038 -1.05246,4.65502 -3.15732,6.25391 -2.10489,1.5989 -4.8979,2.39835 -8.37902,2.39835 -3.82522,0 -6.82568,-0.85511 -9.00139,-2.56532 -2.17572,-1.71021 -3.19273,-3.78979 -3.05106,-6.23874 l 0.0607,-0.18215 1.33579,0 c 0.16191,2.59063 1.27506,4.46275 3.33947,5.61638 2.06438,1.15364 4.5032,1.73045 7.31647,1.73045 3.03586,0 5.44432,-0.70837 7.22539,-2.12511 1.78103,-1.41674 2.67155,-3.05612 2.67157,-4.91813 z"
         style=""
         id="path3957" />
      <path
         d="m 333.10641,523.01202 c -10e-6,-5.20145 1.09291,-9.3353 3.27875,-12.40157 2.18582,-3.0662 5.2217,-4.59932 9.10764,-4.59935 2.57036,3e-5 4.79161,0.57685 6.66375,1.73045 1.8721,1.15366 3.36474,2.73232 4.47793,4.73597 l 0,-20.37075 1.63937,0 0,47.35972 -1.57866,0 -0.0607,-5.10028 c -1.09295,1.76082 -2.59571,3.15732 -4.50829,4.18952 -1.91262,1.0322 -4.14399,1.5483 -6.69411,1.5483 -3.8657,0 -6.8864,-1.47746 -9.0621,-4.43239 -2.17572,-2.95491 -3.26358,-6.96227 -3.26357,-12.02208 z m 1.70009,0.63754 c -1e-5,4.53359 0.89558,8.13616 2.68675,10.80773 1.79116,2.67158 4.42732,4.00736 7.90847,4.00736 2.85371,0 5.22675,-0.64765 7.11914,-1.94296 1.89234,-1.29531 3.26354,-3.02576 4.11362,-5.19136 l 0,-15.39191 c -0.78936,-2.34772 -2.06443,-4.31598 -3.82521,-5.90478 -1.76083,-1.58875 -4.20978,-2.38314 -7.34683,-2.38317 -3.48116,3e-5 -6.12743,1.42183 -7.93883,4.26541 -1.81141,2.84363 -2.71712,6.54234 -2.71711,11.09614 z"
         style=""
         id="path3959" />
      <path
         d="m 379.82861,540.10403 c -3.74427,0 -6.97748,-1.51288 -9.69964,-4.53864 -2.72218,-3.02576 -4.08326,-6.78518 -4.08326,-11.2783 l 0,-1.94296 c 0,-4.71571 1.31554,-8.61681 3.94664,-11.70332 2.63109,-3.08644 5.87948,-4.62968 9.74518,-4.62971 3.70375,3e-5 6.72445,1.21438 9.0621,3.64305 2.3376,2.42873 3.50641,5.68724 3.50644,9.77553 l 0,2.51978 -24.62098,0 0,0.39467 0,1.94296 c -10e-6,3.9669 1.16374,7.32154 3.49126,10.06394 2.3275,2.74242 5.21158,4.11362 8.65226,4.11362 2.44892,0 4.49814,-0.33394 6.14765,-1.00184 1.64947,-0.66789 3.06116,-1.66973 4.23505,-3.00552 l 0.88041,1.27507 c -1.29534,1.43698 -2.86893,2.52484 -4.72079,3.26357 -1.85191,0.73873 -4.03268,1.1081 -6.54232,1.1081 z m -0.0911,-32.45356 c -3.25853,3e-5 -5.97058,1.18908 -8.13616,3.56716 -2.1656,2.37813 -3.39007,5.34823 -3.67341,8.91031 l 0.0911,0.18215 22.64767,0 0,-1.00184 c -3e-5,-3.33945 -1.01199,-6.11727 -3.03588,-8.33349 -2.02395,-2.21616 -4.65504,-3.32426 -7.89329,-3.32429 z"
         style=""
         id="path3961" />
      <path
         d="m 411.09818,538.46465 c 2.77275,0 5.22169,-0.75897 7.34683,-2.27691 2.12509,-1.51793 3.18765,-3.79484 3.18767,-6.83073 l 1.39651,0 0.0607,0.18215 c 0.0809,3.21804 -1.09801,5.78336 -3.5368,7.69596 -2.43885,1.9126 -5.25716,2.86891 -8.45493,2.86891 -4.18953,0 -7.47333,-1.50782 -9.85143,-4.52346 -2.37811,-3.01564 -3.56716,-6.98252 -3.56716,-11.90065 l 0,-1.27507 c 0,-4.89787 1.18399,-8.85463 3.55198,-11.87029 2.36798,-3.01561 5.6366,-4.52343 9.80589,-4.52346 3.40017,3e-5 6.27919,0.99681 8.63708,2.99034 2.35784,1.99359 3.49629,4.80177 3.41537,8.42456 l -0.0607,0.18216 -1.39651,0 c -2e-5,-3.21801 -1.03222,-5.68213 -3.09659,-7.39237 -2.06442,-1.71018 -4.56396,-2.56529 -7.49863,-2.56532 -3.84546,3e-5 -6.7599,1.3763 -8.74333,4.1288 -1.98345,2.75255 -2.97517,6.29441 -2.97516,10.62558 l 0,1.27507 c -10e-6,4.37167 0.99171,7.92871 2.97516,10.67111 1.98343,2.74242 4.91811,4.11362 8.80405,4.11362 z"
         style=""
         id="path3963" />
      <path
         d="m 433.56369,539.46649 -1.63937,0 0,-32.84822 1.63937,0 z m 0,-43.17021 -1.63937,0 0,-4.18951 1.63937,0 z"
         style=""
         id="path3965" />
      <path
         d="m 464.52967,531.42141 c -3e-5,-1.74056 -0.74382,-3.32428 -2.23138,-4.75115 -1.4876,-1.42685 -4.08327,-2.54507 -7.78703,-3.35465 -3.90617,-0.82979 -6.7346,-1.89741 -8.48528,-3.20285 -1.7507,-1.30541 -2.62604,-3.24331 -2.62604,-5.81371 0,-2.34772 0.99172,-4.31598 2.97516,-5.90479 1.98344,-1.58874 4.65501,-2.38313 8.01473,-2.38316 3.62279,3e-5 6.47652,0.85007 8.56118,2.55013 2.08461,1.70013 3.07633,3.91632 2.97516,6.64858 l -0.0607,0.18215 -1.3965,0 c -3e-5,-2.14532 -0.90573,-3.97191 -2.71711,-5.47976 -1.81143,-1.50779 -4.26543,-2.2617 -7.36201,-2.26173 -3.07637,3e-5 -5.40388,0.66287 -6.98253,1.9885 -1.57866,1.3257 -2.36799,2.85882 -2.36798,4.59936 -10e-6,1.72036 0.66788,3.1877 2.00368,4.40203 1.33578,1.21437 3.98711,2.27692 7.954,3.18767 3.66328,0.85006 6.44111,2.00876 8.33349,3.47608 1.89234,1.46736 2.83852,3.51657 2.83855,6.14766 -3e-5,2.57038 -1.05246,4.65502 -3.15731,6.25391 -2.1049,1.5989 -4.89791,2.39835 -8.37903,2.39835 -3.82522,0 -6.82568,-0.85511 -9.00139,-2.56532 -2.17571,-1.71021 -3.19273,-3.78979 -3.05106,-6.23874 l 0.0607,-0.18215 1.33579,0 c 0.16191,2.59063 1.27506,4.46275 3.33947,5.61638 2.06439,1.15364 4.50321,1.73045 7.31647,1.73045 3.03586,0 5.44432,-0.70837 7.22539,-2.12511 1.78103,-1.41674 2.67155,-3.05612 2.67158,-4.91813 z"
         style=""
         id="path3967" />
      <path
         d="m 477.40179,539.46649 -1.63937,0 0,-32.84822 1.63937,0 z m 0,-43.17021 -1.63937,0 0,-4.18951 1.63937,0 z"
         style=""
         id="path3969" />
      <path
         d="m 485.65939,522.40485 c 0,-4.81691 1.33072,-8.75343 3.99218,-11.80958 2.66145,-3.05608 6.11729,-4.58414 10.36753,-4.58417 4.27045,3e-5 7.73641,1.52809 10.39789,4.58417 2.66142,3.05615 3.99215,6.99267 3.99218,11.80958 l 0,1.27507 c -3e-5,4.83718 -1.33076,8.78382 -3.99218,11.83993 -2.66148,3.05612 -6.1072,4.58418 -10.33717,4.58418 -4.27049,0 -7.7415,-1.52806 -10.41307,-4.58418 -2.67158,-3.05611 -4.00736,-7.00275 -4.00736,-11.83993 z m 1.63937,1.27507 c 0,4.1288 1.15363,7.62512 3.46091,10.48896 2.30726,2.86385 5.41397,4.29577 9.32015,4.29577 3.84543,0 6.92178,-1.43698 9.22907,-4.31095 2.30724,-2.87396 3.46088,-6.36521 3.46091,-10.47378 l 0,-1.27507 c -3e-5,-4.02758 -1.16379,-7.49354 -3.49127,-10.39789 -2.32753,-2.9043 -5.414,-4.35646 -9.25943,-4.35649 -3.8657,3e-5 -6.95217,1.45219 -9.25943,4.35649 -2.30728,2.90435 -3.46091,6.37031 -3.46091,10.39789 z"
         style=""
         id="path3971" />
      <path
         d="m 523.63822,506.61827 0.21251,6.77001 c 0.99172,-2.34772 2.43882,-4.16418 4.34131,-5.4494 1.90247,-1.28516 4.25022,-1.92775 7.04324,-1.92778 3.58232,3e-5 6.26907,1.12836 8.06026,3.385 1.79115,2.2567 2.68673,5.83397 2.68676,10.73184 l 0,19.33855 -1.63938,0 0,-19.39927 c -2e-5,-4.5538 -0.81465,-7.76171 -2.44388,-9.62374 -1.62928,-1.86198 -3.84041,-2.79298 -6.6334,-2.79301 -3.54187,3e-5 -6.21344,1.05753 -8.01472,3.1725 -1.8013,2.11502 -2.92457,4.82201 -3.36983,8.12097 l 0,20.52255 -1.63937,0 0,-32.84822 z"
         style=""
         id="path3973" />
      <path
         d="m 576.37146,531.42141 c -2e-5,-1.74056 -0.74381,-3.32428 -2.23137,-4.75115 -1.4876,-1.42685 -4.08328,-2.54507 -7.78703,-3.35465 -3.90618,-0.82979 -6.7346,-1.89741 -8.48529,-3.20285 -1.75069,-1.30541 -2.62604,-3.24331 -2.62603,-5.81371 -1e-5,-2.34772 0.99171,-4.31598 2.97516,-5.90479 1.98343,-1.58874 4.65501,-2.38313 8.01472,-2.38316 3.6228,3e-5 6.47653,0.85007 8.56119,2.55013 2.08461,1.70013 3.07633,3.91632 2.97516,6.64858 l -0.0607,0.18215 -1.3965,0 c -3e-5,-2.14532 -0.90573,-3.97191 -2.71712,-5.47976 -1.81143,-1.50779 -4.26543,-2.2617 -7.36201,-2.26173 -3.07637,3e-5 -5.40387,0.66287 -6.98252,1.9885 -1.57866,1.3257 -2.36799,2.85882 -2.36799,4.59936 0,1.72036 0.66789,3.1877 2.00368,4.40203 1.33578,1.21437 3.98712,2.27692 7.95401,3.18767 3.66328,0.85006 6.4411,2.00876 8.33349,3.47608 1.89234,1.46736 2.83852,3.51657 2.83855,6.14766 -3e-5,2.57038 -1.05247,4.65502 -3.15732,6.25391 -2.1049,1.5989 -4.8979,2.39835 -8.37903,2.39835 -3.82522,0 -6.82567,-0.85511 -9.00138,-2.56532 -2.17572,-1.71021 -3.19274,-3.78979 -3.05106,-6.23874 l 0.0607,-0.18215 1.33579,0 c 0.1619,2.59063 1.27506,4.46275 3.33946,5.61638 2.06439,1.15364 4.50321,1.73045 7.31647,1.73045 3.03587,0 5.44433,-0.70837 7.2254,-2.12511 1.78102,-1.41674 2.67155,-3.05612 2.67157,-4.91813 z"
         style=""
         id="path3975" />
    </g>
    <g
       style="font-size:48px;font-style:normal;font-weight:normal;line-height:125%;letter-spacing:0px;word-spacing:0px;fill:#ffffff;fill-opacity:1;stroke:none;font-family:Roboto Thin;-inkscape-font-specification:Roboto Thin"
       id="text3765">
      <path
         d="m 82.026535,579.5426 -1.265625,0 0,-25.35937 1.265625,0 z m 0,-33.32812 -1.265625,0 0,-3.23438 1.265625,0 z"
         style=""
         id="path3922" />
      <path
         d="m 105.93279,573.33167 c -2e-5,-1.34375 -0.57424,-2.5664 -1.72266,-3.66797 -1.14846,-1.10156 -3.15236,-1.96484 -6.01172,-2.58985 -3.015634,-0.64061 -5.199225,-1.46483 -6.550781,-2.47265 -1.351567,-1.0078 -2.027347,-2.50389 -2.027344,-4.48828 -3e-6,-1.81248 0.765621,-3.33201 2.296875,-4.5586 1.531243,-1.22654 3.593741,-1.83982 6.1875,-1.83984 2.79686,2e-5 4.99998,0.65627 6.60938,1.96875 1.60935,1.31252 2.37497,3.02346 2.29687,5.13281 l -0.0469,0.14063 -1.07813,0 c -2e-5,-1.65623 -0.69924,-3.06639 -2.09766,-4.23047 -1.39845,-1.16404 -3.29298,-1.74607 -5.68359,-1.7461 -2.375009,3e-5 -4.171883,0.51175 -5.390625,1.53516 -1.218755,1.02346 -1.828129,2.20705 -1.828125,3.55078 -4e-6,1.32814 0.51562,2.46095 1.546875,3.39844 1.031243,0.93751 3.078116,1.75782 6.140625,2.46094 2.82811,0.65626 4.97264,1.55079 6.43359,2.68359 1.46092,1.13282 2.19139,2.71485 2.19141,4.74609 -2e-5,1.98438 -0.81252,3.59376 -2.4375,4.82813 -1.62502,1.23437 -3.78126,1.85156 -6.46875,1.85156 -2.953134,0 -5.269538,-0.66016 -6.949219,-1.98047 -1.679691,-1.32031 -2.464846,-2.92578 -2.355468,-4.8164 l 0.04687,-0.14063 1.03125,0 c 0.124996,2 0.98437,3.44532 2.578125,4.33594 1.593742,0.89062 3.476552,1.33594 5.648437,1.33594 2.34374,0 4.20311,-0.54688 5.57813,-1.64063 1.37498,-1.09375 2.06248,-2.35937 2.0625,-3.79687 z"
         style=""
         id="path3924" />
      <path
         d="m 141.37029,573.33167 c -2e-5,-1.34375 -0.57424,-2.5664 -1.72266,-3.66797 -1.14846,-1.10156 -3.15236,-1.96484 -6.01172,-2.58985 -3.01563,-0.64061 -5.19923,-1.46483 -6.55078,-2.47265 -1.35157,-1.0078 -2.02735,-2.50389 -2.02734,-4.48828 -1e-5,-1.81248 0.76562,-3.33201 2.29687,-4.5586 1.53124,-1.22654 3.59374,-1.83982 6.1875,-1.83984 2.79686,2e-5 4.99998,0.65627 6.60938,1.96875 1.60935,1.31252 2.37497,3.02346 2.29687,5.13281 l -0.0469,0.14063 -1.07813,0 c -2e-5,-1.65623 -0.69924,-3.06639 -2.09766,-4.23047 -1.39845,-1.16404 -3.29298,-1.74607 -5.68359,-1.7461 -2.37501,3e-5 -4.17188,0.51175 -5.39062,1.53516 -1.21876,1.02346 -1.82813,2.20705 -1.82813,3.55078 0,1.32814 0.51562,2.46095 1.54688,3.39844 1.03124,0.93751 3.07811,1.75782 6.14062,2.46094 2.82811,0.65626 4.97264,1.55079 6.43359,2.68359 1.46092,1.13282 2.19139,2.71485 2.19141,4.74609 -2e-5,1.98438 -0.81252,3.59376 -2.4375,4.82813 -1.62502,1.23437 -3.78126,1.85156 -6.46875,1.85156 -2.95313,0 -5.26954,-0.66016 -6.94922,-1.98047 -1.67969,-1.32031 -2.46484,-2.92578 -2.35547,-4.8164 l 0.0469,-0.14063 1.03125,0 c 0.12499,2 0.98437,3.44532 2.57812,4.33594 1.59374,0.89062 3.47656,1.33594 5.64844,1.33594 2.34374,0 4.20311,-0.54688 5.57813,-1.64063 1.37498,-1.09375 2.06248,-2.35937 2.0625,-3.79687 z"
         style=""
         id="path3926" />
      <path
         d="m 152.36247,547.33948 0,6.84375 6.23438,0 0,1.28906 -6.23438,0 0,17.53125 c 0,2.07813 0.35156,3.5586 1.05469,4.44141 0.70312,0.88281 1.6328,1.32422 2.78906,1.32422 0.42187,0 0.79687,-0.0156 1.125,-0.0469 0.32812,-0.0312 0.78124,-0.0859 1.35938,-0.16406 l 0.23437,1.14844 c -0.39064,0.12499 -0.79688,0.21093 -1.21875,0.25781 -0.42188,0.0469 -0.89845,0.0703 -1.42968,0.0703 -1.70314,0 -2.99611,-0.55469 -3.87891,-1.66406 -0.88282,-1.10938 -1.32423,-2.89844 -1.32422,-5.36719 l 0,-17.53125 -4.6875,0 0,-1.28906 4.6875,0 0,-6.84375 z"
         style=""
         id="path3928" />
      <path
         d="m 162.55779,566.37073 c -1e-5,-3.71874 1.02734,-6.7578 3.08203,-9.11719 2.05468,-2.35935 4.72264,-3.53904 8.0039,-3.53906 3.29686,2e-5 5.97264,1.17971 8.02735,3.53906 2.05466,2.35939 3.082,5.39845 3.08203,9.11719 l 0,0.98437 c -3e-5,3.73439 -1.02737,6.78126 -3.08203,9.14063 -2.05471,2.35937 -4.71486,3.53906 -7.98047,3.53906 -3.29689,0 -5.97657,-1.17969 -8.03906,-3.53906 -2.06251,-2.35937 -3.09376,-5.40624 -3.09375,-9.14063 z m 1.26562,0.98437 c 0,3.18751 0.89062,5.88673 2.67188,8.09766 1.78124,2.21094 4.17967,3.31641 7.19531,3.31641 2.96873,0 5.34373,-1.10938 7.125,-3.32813 1.78123,-2.21874 2.67185,-4.91405 2.67187,-8.08594 l 0,-0.98437 c -2e-5,-3.10936 -0.89846,-5.78514 -2.69531,-8.02735 -1.79689,-2.24216 -4.1797,-3.36325 -7.14844,-3.36328 -2.98438,3e-5 -5.36719,1.12112 -7.14843,3.36328 -1.78126,2.24221 -2.67188,4.91799 -2.67188,8.02735 z"
         style=""
         id="path3930" />
      <path
         d="m 201.97966,555.09729 -1.64062,-0.14062 c -2.26564,2e-5 -4.10548,0.73049 -5.51954,2.1914 -1.41407,1.46096 -2.33203,3.38674 -2.7539,5.77735 l 0,16.61718 -1.26563,0 0,-25.35937 1.03125,0 0.23438,4.40625 0,0.86719 c 0.70312,-1.81248 1.74999,-3.22264 3.14062,-4.23047 1.39062,-1.00779 3.10155,-1.5117 5.13282,-1.51172 0.35936,2e-5 0.69139,0.0274 0.99609,0.082 0.30467,0.0547 0.56639,0.11331 0.78516,0.17578 z"
         style=""
         id="path3932" />
      <path
         d="m 215.38591,580.03479 c -2.89063,0 -5.38673,-1.16797 -7.48828,-3.50391 -2.10157,-2.33593 -3.15235,-5.23827 -3.15234,-8.70703 l 0,-1.5 c -1e-5,-3.64061 1.01562,-6.65232 3.04687,-9.03515 2.03124,-2.38279 4.53905,-3.5742 7.52344,-3.57422 2.85936,2e-5 5.19139,0.93752 6.99609,2.8125 1.80467,1.87502 2.70701,4.39064 2.70703,7.54687 l 0,1.94532 -19.00781,0 0,0.30468 0,1.5 c 0,3.06251 0.89843,5.65235 2.69531,7.76953 1.79687,2.11719 4.02343,3.17579 6.67969,3.17579 1.89061,0 3.47264,-0.25782 4.74609,-0.77344 1.27342,-0.51563 2.36327,-1.28906 3.26954,-2.32031 l 0.67968,0.98437 c -1.00002,1.10938 -2.21486,1.94922 -3.64453,2.51953 -1.4297,0.57031 -3.11329,0.85547 -5.05078,0.85547 z m -0.0703,-25.05469 c -2.51564,3e-5 -4.60939,0.91799 -6.28125,2.75391 -1.67188,1.83596 -2.61719,4.12892 -2.83594,6.87891 l 0.0703,0.14062 17.48438,0 0,-0.77344 c -2e-5,-2.5781 -0.78127,-4.72263 -2.34375,-6.43359 -1.56252,-1.71092 -3.59377,-2.56638 -6.09375,-2.56641 z"
         style=""
         id="path3934" />
      <path
         d="m 229.7531,566.83948 c -1e-5,-4.01561 0.84374,-7.20701 2.53125,-9.57422 1.68749,-2.36716 4.03124,-3.55076 7.03125,-3.55078 1.98436,2e-5 3.6992,0.44534 5.14453,1.33594 1.44529,0.89064 2.59763,2.10939 3.45703,3.65625 l 0,-15.72657 1.26563,0 0,36.5625 -1.21875,0 -0.0469,-3.9375 c -0.84377,1.35938 -2.00393,2.4375 -3.48047,3.23438 -1.47658,0.79687 -3.19923,1.19531 -5.16797,1.19531 -2.98438,0 -5.31641,-1.14062 -6.99609,-3.42187 -1.67969,-2.28125 -2.51954,-5.375 -2.51953,-9.28125 z m 1.3125,0.49219 c -1e-5,3.5 0.6914,6.28125 2.07422,8.34375 1.3828,2.0625 3.41796,3.09375 6.10547,3.09375 2.20311,0 4.03513,-0.5 5.49609,-1.5 1.46092,-1 2.51951,-2.33594 3.17578,-4.00782 l 0,-11.88281 c -0.6094,-1.81248 -1.59377,-3.33201 -2.95312,-4.55859 -1.3594,-1.22654 -3.25002,-1.83982 -5.67188,-1.83985 -2.68751,3e-5 -4.73048,1.09768 -6.12891,3.29297 -1.39844,2.19533 -2.09766,5.0508 -2.09765,8.56641 z"
         style=""
         id="path3936" />
      <path
         d="m 270.27654,579.5426 -1.26563,0 0,-25.35937 1.26563,0 z m 0,-33.32812 -1.26563,0 0,-3.23438 1.26563,0 z"
         style=""
         id="path3938" />
      <path
         d="m 279.72185,554.18323 0.16406,5.22656 c 0.76562,-1.81248 1.88281,-3.21482 3.35156,-4.20703 1.46874,-0.99216 3.28124,-1.48826 5.4375,-1.48828 2.76561,2e-5 4.83983,0.87112 6.22266,2.61328 1.38279,1.74221 2.0742,4.50392 2.07422,8.28516 l 0,14.92968 -1.26563,0 0,-14.97656 c -2e-5,-3.51561 -0.62892,-5.99217 -1.88672,-7.42969 -1.25783,-1.43747 -2.96486,-2.15622 -5.12109,-2.15625 -2.73439,3e-5 -4.79688,0.81643 -6.1875,2.44922 -1.39063,1.63283 -2.25782,3.72268 -2.60156,6.26953 l 0,15.84375 -1.26563,0 0,-25.35937 z"
         style=""
         id="path3940" />
    </g>
    <g
       style="font-size:70.26330566px;font-style:normal;font-weight:normal;line-height:125%;letter-spacing:0px;word-spacing:0px;fill:#ffffff;fill-opacity:1;stroke:none;font-family:Roboto Thin;-inkscape-font-specification:Roboto Thin"
       id="text3773">
      <path
         d="m 561.96076,582.20443 c 0.0229,-2.67602 0.2573,-4.5687 0.70332,-5.67801 0.44599,-1.10928 1.64106,-2.55595 3.58521,-4.34 2.76751,-2.65314 4.75739,-4.91177 5.96964,-6.77588 1.2122,-1.86405 1.81831,-4.40857 1.81833,-7.63358 -2e-5,-3.3393 -0.89204,-5.95816 -2.67604,-7.8566 -1.78405,-1.89834 -4.31142,-2.84753 -7.58213,-2.84758 -3.24786,5e-5 -5.76379,0.9664 -7.54781,2.89905 -1.78404,1.93274 -2.71036,4.4887 -2.77897,7.66789 l -1.57818,0 -0.10292,-0.20585 c -0.0457,-3.88822 1.05783,-6.89019 3.31074,-9.00591 2.2529,-2.11563 5.15195,-3.17347 8.69714,-3.17352 3.75102,5e-5 6.70725,1.1551 8.86869,3.46514 2.16139,2.31013 3.2421,5.35213 3.24213,9.12599 -3e-5,3.22501 -0.71478,6.00398 -2.14427,8.33691 -1.42953,2.33299 -3.6081,4.81461 -6.53572,7.44489 -1.5782,1.21224 -2.53883,2.37301 -2.88189,3.48229 -0.3431,1.10931 -0.51464,2.80757 -0.51463,5.09477 z m 2.67604,13.7233 -2.81328,0 0,-3.63667 2.81328,0 z"
         style=""
         id="path3919" />
    </g>
    <g
       style="font-size:80.30792999px;font-style:normal;font-variant:normal;font-weight:300;font-stretch:normal;line-height:125%;letter-spacing:0px;word-spacing:0px;fill:#f08519;fill-opacity:1;stroke:none;font-family:Roboto Light;-inkscape-font-specification:'Roboto Light, Light'"
       id="text3757-1">
      <path
         d="m 347.61411,571.71083 -27.48821,0 0,23.68457 31.48792,0 0,3.9605 -36.15425,0 0,-57.09392 35.95818,0 0,3.99971 -31.29185,0 0,21.44943 27.48821,0 z"
         style="font-family:Roboto Light;-inkscape-font-specification:'Roboto Light, Light'"
         id="path3906" />
      <path
         d="m 364.39721,556.92759 0.43134,7.0191 c 1.35937,-2.48345 3.16969,-4.40487 5.43098,-5.76429 2.26126,-1.35934 4.96041,-2.03903 8.09746,-2.03907 3.24157,4e-5 5.95379,0.7843 8.13667,2.35277 2.18281,1.56855 3.74479,3.96053 4.68593,7.17595 1.28092,-2.98014 3.10431,-5.3133 5.4702,-6.99949 2.36579,-1.68611 5.24794,-2.52919 8.64643,-2.52923 4.52249,4e-5 8.01243,1.5032 10.46983,4.50948 2.45728,3.00635 3.68595,7.65961 3.68601,13.95977 l 0,24.74332 -4.70554,0 0,-24.82174 c -6e-5,-5.22835 -0.92156,-8.92089 -2.76451,-11.07763 -1.84306,-2.15667 -4.4115,-3.23503 -7.70532,-3.23506 -3.63378,3e-5 -6.44403,1.13721 -8.43077,3.41151 -1.98682,2.27438 -3.21549,5.1892 -3.68601,8.74447 -3e-5,0.18302 0.006,0.44444 0.0196,0.78426 0.013,0.33987 0.0196,0.58822 0.0196,0.74504 l 0,25.44915 -4.74476,0 0,-24.82174 c -3e-5,-5.12379 -0.9346,-8.79018 -2.80372,-10.99921 -1.86917,-2.20895 -4.43761,-3.31345 -7.70532,-3.31348 -3.32005,3e-5 -5.95384,0.84311 -7.9014,2.52922 -1.94758,1.68619 -3.31349,3.954 -4.09774,6.80344 l 0,29.80177 -4.74475,0 0,-42.42831 z"
         style="font-family:Roboto Light;-inkscape-font-specification:'Roboto Light, Light'"
         id="path3908" />
      <path
         d="m 458.50807,599.3559 c -0.31374,-1.43781 -0.53594,-2.67955 -0.66662,-3.72523 -0.13074,-1.04567 -0.1961,-2.10441 -0.19607,-3.17624 -1.56854,2.22207 -3.65989,4.06507 -6.27405,5.52902 -2.61422,1.46394 -5.55518,2.19592 -8.82289,2.19592 -4.13044,0 -7.33935,-1.09796 -9.62676,-3.29388 -2.28742,-2.19592 -3.43113,-5.13688 -3.43113,-8.8229 0,-3.92127 1.69269,-7.05829 5.07807,-9.41108 3.38536,-2.35275 7.95366,-3.52914 13.70489,-3.52916 l 9.37187,0 0,-5.25452 c -3e-5,-3.03243 -0.97381,-5.41134 -2.92135,-7.13674 -1.9476,-1.72533 -4.67289,-2.58801 -8.17588,-2.58805 -3.26776,4e-5 -5.97998,0.82351 -8.13667,2.47041 -2.15672,1.64697 -3.23507,3.6599 -3.23506,6.03878 l -4.31342,-0.0392 -0.0784,-0.23528 c -0.15686,-3.16314 1.28748,-5.993 4.33302,-8.48958 3.04552,-2.49651 6.92105,-3.74479 11.62661,-3.74483 4.67938,4e-5 8.44381,1.1895 11.2933,3.56837 2.84944,2.37895 4.27417,5.79046 4.2742,10.23455 l 0,20.86124 c -3e-5,1.4901 0.0849,2.94097 0.25489,4.35263 0.16988,1.41167 0.45091,2.81026 0.84307,4.19578 z m -15.41065,-3.3331 c 3.37228,1e-5 6.35245,-0.79079 8.94053,-2.37237 2.58802,-1.58158 4.45716,-3.60104 5.60743,-6.05839 l 0,-8.86211 -9.45029,0 c -4.26115,2e-5 -7.66613,0.90845 -10.21495,2.7253 -2.54885,1.81688 -3.82326,4.07161 -3.82326,6.76421 0,2.3005 0.79079,4.17618 2.37238,5.62705 1.58157,1.45088 3.77096,2.17632 6.56816,2.17631 z"
         style="font-family:Roboto Light;-inkscape-font-specification:'Roboto Light, Light'"
         id="path3910" />
      <path
         d="m 480.03592,599.3559 -4.66633,0 0,-42.42831 4.66633,0 z m 0,-54.5843 -4.66633,0 0,-6.58776 4.66633,0 z"
         style="font-family:Roboto Light;-inkscape-font-specification:'Roboto Light, Light'"
         id="path3912" />
      <path
         d="m 498.23069,599.3559 -4.66633,0 0,-61.17206 4.66633,0 z"
         style="font-family:Roboto Light;-inkscape-font-specification:'Roboto Light, Light'"
         id="path3914" />
      <path
         d="m 536.58087,588.57236 c -3e-5,-1.98677 -0.81696,-3.72521 -2.4508,-5.21531 -1.6339,-1.49007 -4.58139,-2.70567 -8.8425,-3.6468 -5.07154,-1.09793 -8.81637,-2.54881 -11.23448,-4.35262 -2.41814,-1.80377 -3.6272,-4.3526 -3.62719,-7.64651 -1e-5,-3.24156 1.36591,-5.97992 4.09774,-8.21509 2.73182,-2.23509 6.34593,-3.35266 10.84236,-3.3527 4.78394,4e-5 8.57451,1.18296 11.37172,3.54876 2.79715,2.36588 4.13039,5.32645 3.99972,8.88171 l -0.0784,0.23528 -4.35263,0 c -3e-5,-2.3266 -0.98688,-4.35259 -2.96057,-6.07799 -1.97374,-1.72533 -4.63367,-2.58801 -7.97981,-2.58805 -3.42461,4e-5 -5.99305,0.73855 -7.70533,2.21553 -1.71231,1.47705 -2.56845,3.20895 -2.56844,5.1957 -10e-6,1.96067 0.7385,3.58147 2.21552,4.86239 1.47701,1.28098 4.42451,2.40508 8.8425,3.37231 5.04537,1.12412 8.82287,2.65996 11.33252,4.60751 2.50959,1.94759 3.7644,4.59445 3.76443,7.9406 -3e-5,3.52917 -1.4313,6.38517 -4.2938,8.56801 -2.86257,2.18285 -6.64661,3.27428 -11.35213,3.27428 -5.14997,0 -9.19542,-1.22867 -12.13638,-3.68601 -2.94097,-2.45734 -4.33302,-5.38523 -4.17616,-8.78368 l 0.0784,-0.23528 4.31342,0 c 0.18298,3.05861 1.43125,5.28067 3.74482,6.66619 2.31355,1.38552 5.03884,2.07828 8.17588,2.07828 3.39843,0 6.07797,-0.74504 8.03864,-2.23514 1.96061,-1.49008 2.94093,-3.29387 2.94096,-5.41137 z"
         style="font-family:Roboto Light;-inkscape-font-specification:'Roboto Light, Light'"
         id="path3916" />
    </g>
  </g>
</svg>
