<?xml version="1.0" encoding="UTF-8" standalone="no"?>
<!-- Created with Inkscape (http://www.inkscape.org/) -->

<svg
   xmlns:dc="http://purl.org/dc/elements/1.1/"
   xmlns:cc="http://creativecommons.org/ns#"
   xmlns:rdf="http://www.w3.org/1999/02/22-rdf-syntax-ns#"
   xmlns:svg="http://www.w3.org/2000/svg"
   xmlns="http://www.w3.org/2000/svg"
   xmlns:sodipodi="http://sodipodi.sourceforge.net/DTD/sodipodi-0.dtd"
   xmlns:inkscape="http://www.inkscape.org/namespaces/inkscape"
   width="509.15692"
   height="162.12308"
   id="svg2"
   version="1.1"
   inkscape:version="0.48.4 r9939"
   sodipodi:docname="claim3.svg">
  <defs
     id="defs4" />
  <sodipodi:namedview
     id="base"
     pagecolor="#007ca3"
     bordercolor="#666666"
     borderopacity="1.0"
     inkscape:pageopacity="0"
     inkscape:pageshadow="2"
     inkscape:zoom="1.979899"
     inkscape:cx="375.69126"
     inkscape:cy="5.2045529"
     inkscape:document-units="px"
     inkscape:current-layer="layer1"
     showgrid="false"
     fit-margin-top="0"
     fit-margin-left="0"
     fit-margin-right="0"
     fit-margin-bottom="0"
     inkscape:window-width="1920"
     inkscape:window-height="1138"
     inkscape:window-x="-8"
     inkscape:window-y="-8"
     inkscape:window-maximized="1" />
  <metadata
     id="metadata7">
    <rdf:RDF>
      <cc:Work
         rdf:about="">
        <dc:format>image/svg+xml</dc:format>
        <dc:type
           rdf:resource="http://purl.org/dc/dcmitype/StillImage" />
        <dc:title></dc:title>
      </cc:Work>
    </rdf:RDF>
  </metadata>
  <g
     inkscape:label="Layer 1"
     inkscape:groupmode="layer"
     id="layer1"
     transform="translate(-73.822006,-440.04556)">
    <g
       style="font-size:50.32505797999999700px;font-style:normal;font-variant:normal;font-weight:normal;font-stretch:normal;line-height:125%;letter-spacing:0px;word-spacing:0px;fill:#ffffff;fill-opacity:1;stroke:none;font-family:Roboto Thin;-inkscape-font-specification:Roboto Thin"
       id="text2985">
      <path
         d="m 88.599858,465.91675 0.638892,1.22864 0.663465,-1.22864 11.868655,-19.87938 1.6218,0 -13.441309,22.18922 0,13.58875 -1.351503,0 0,-13.58875 -13.441312,-22.18922 1.621804,0 z"
         style="font-family:Roboto Thin;-inkscape-font-specification:Roboto Thin;fill:#ffffff"
         id="path4122" />
      <path
         d="m 106.48884,468.00543 c 0,-3.89886 1.07711,-7.08513 3.23132,-9.55881 2.15421,-2.47363 4.95141,-3.71046 8.39161,-3.71049 3.45655,3e-5 6.26194,1.23686 8.41618,3.71049 2.15419,2.47368 3.23129,5.65995 3.23132,9.55881 l 0,1.03206 c -3e-5,3.91527 -1.07713,7.10973 -3.23132,9.58339 -2.15424,2.47366 -4.94324,3.71049 -8.36704,3.71049 -3.45658,0 -6.26606,-1.23683 -8.42846,-3.71049 -2.16241,-2.47366 -3.24361,-5.66812 -3.24361,-9.58339 z m 1.32693,1.03206 c 0,3.34191 0.93376,6.17187 2.8013,8.4899 1.86752,2.31803 4.38214,3.47705 7.54384,3.47705 3.11254,0 5.60258,-1.16311 7.47013,-3.48934 1.86751,-2.32622 2.80127,-5.15208 2.8013,-8.47761 l 0,-1.03206 c -3e-5,-3.25997 -0.94198,-6.06536 -2.82587,-8.41617 -1.88393,-2.35077 -4.38217,-3.52617 -7.4947,-3.5262 -3.12895,3e-5 -5.62718,1.17543 -7.4947,3.5262 -1.86754,2.35081 -2.8013,5.1562 -2.8013,8.41617 z"
         style="font-family:Roboto Thin;-inkscape-font-specification:Roboto Thin;fill:#ffffff"
         id="path4124" />
      <path
         d="m 153.96346,477.04822 c -0.8355,1.68733 -2.02728,2.98969 -3.57534,3.90707 -1.5481,0.91738 -3.42792,1.37608 -5.63945,1.37608 -2.73578,0 -4.87771,-0.97063 -6.42579,-2.91188 -1.54809,-1.94124 -2.32213,-4.95141 -2.32212,-9.0305 l 0,-15.1614 1.32693,0 0,15.21055 c -1e-5,3.60402 0.66345,6.26606 1.99039,7.98615 1.32692,1.7201 3.12073,2.58015 5.38144,2.58015 2.76852,0 4.89406,-0.67985 6.37664,-2.03954 1.48253,-1.35969 2.42859,-3.1617 2.83815,-5.40602 l 0,-18.33129 1.35151,0 0,26.58775 -1.10578,0 z"
         style="font-family:Roboto Thin;-inkscape-font-specification:Roboto Thin;fill:#ffffff"
         id="path4126" />
      <path
         d="m 192.39529,476.90078 c -0.9174,1.60543 -2.28528,2.91188 -4.10365,3.91936 -1.8184,1.00748 -4.02176,1.51123 -6.61008,1.51123 -2.47367,0 -4.41491,-0.67575 -5.82375,-2.02726 -1.40884,-1.3515 -2.11326,-3.17398 -2.11326,-5.46744 0,-2.22793 1.05253,-4.09545 3.1576,-5.6026 2.10507,-1.50711 4.73845,-2.26068 7.90015,-2.26069 l 7.59299,0 0,-3.8825 c -2e-5,-2.21153 -0.70853,-3.93572 -2.12554,-5.17257 -1.41705,-1.23681 -3.41154,-1.85522 -5.98347,-1.85525 -2.40815,3e-5 -4.3453,0.58158 -5.81147,1.74467 -1.46618,1.16313 -2.19927,2.66207 -2.19926,4.49682 l -1.10578,-0.0491 -0.0491,-0.12286 c -0.0983,-2.06409 0.70441,-3.81285 2.40813,-5.24629 1.70371,-1.43339 3.95621,-2.15009 6.75752,-2.15012 2.85042,3e-5 5.13569,0.72083 6.8558,2.16241 1.72008,1.44162 2.58012,3.52212 2.58014,6.24148 l 0,13.31845 c -2e-5,0.93377 0.0532,1.84296 0.15973,2.72758 0.10646,0.88462 0.28256,1.76105 0.52831,2.62929 l -1.47436,0 c -0.21299,-1.16311 -0.35633,-2.03545 -0.43003,-2.617 -0.0737,-0.58156 -0.1106,-1.20816 -0.11058,-1.87982 z m -10.71373,4.12823 c 2.63747,0 4.86949,-0.58156 6.69608,-1.74467 1.82656,-1.16311 3.16578,-2.82586 4.01765,-4.98827 l 0,-5.97119 -7.51927,0 c -2.75216,10e-6 -5.07429,0.63481 -6.96638,1.90439 -1.89211,1.26961 -2.83816,2.83817 -2.83816,4.70569 0,1.78563 0.60203,3.24771 1.8061,4.38624 1.20406,1.13854 2.80539,1.70781 4.80398,1.70781 z"
         style="font-family:Roboto Thin;-inkscape-font-specification:Roboto Thin;fill:#ffffff"
         id="path4128" />
      <path
         d="m 203.89536,481.81534 -1.32693,0 0,-38.33354 1.32693,0 z"
         style="font-family:Roboto Thin;-inkscape-font-specification:Roboto Thin;fill:#ffffff"
         id="path4130" />
      <path
         d="m 217.43495,474.12406 1.37608,5.45515 0.14744,0.0246 1.74466,-5.47973 5.97119,-18.89647 1.3515,0 5.94662,18.89647 1.72009,5.47973 0.14744,-0.0246 1.42522,-5.45515 5.40601,-18.89647 1.54809,0 -7.74043,26.58775 -1.32693,0 -6.56093,-19.97767 -1.1795,-4.49682 -0.14743,0 -1.27779,4.49682 -6.46264,19.97767 -1.32693,0 -7.71585,-26.58775 1.52351,0 z"
         style="font-family:Roboto Thin;-inkscape-font-specification:Roboto Thin;fill:#ffffff"
         id="path4132" />
      <path
         d="m 267.48972,476.90078 c -0.91741,1.60543 -2.28529,2.91188 -4.10366,3.91936 -1.8184,1.00748 -4.02176,1.51123 -6.61008,1.51123 -2.47367,0 -4.41491,-0.67575 -5.82375,-2.02726 -1.40884,-1.3515 -2.11326,-3.17398 -2.11326,-5.46744 0,-2.22793 1.05253,-4.09545 3.15761,-5.6026 2.10506,-1.50711 4.73844,-2.26068 7.90015,-2.26069 l 7.59299,0 0,-3.8825 c -3e-5,-2.21153 -0.70854,-3.93572 -2.12555,-5.17257 -1.41705,-1.23681 -3.41154,-1.85522 -5.98347,-1.85525 -2.40815,3e-5 -4.3453,0.58158 -5.81147,1.74467 -1.46618,1.16313 -2.19926,2.66207 -2.19926,4.49682 l -1.10578,-0.0491 -0.0491,-0.12286 c -0.0983,-2.06409 0.70441,-3.81285 2.40813,-5.24629 1.70371,-1.43339 3.95621,-2.15009 6.75752,-2.15012 2.85042,3e-5 5.13569,0.72083 6.8558,2.16241 1.72008,1.44162 2.58012,3.52212 2.58015,6.24148 l 0,13.31845 c -3e-5,0.93377 0.0532,1.84296 0.15972,2.72758 0.10646,0.88462 0.28256,1.76105 0.52831,2.62929 l -1.47436,0 c -0.21299,-1.16311 -0.35633,-2.03545 -0.43003,-2.617 -0.0737,-0.58156 -0.1106,-1.20816 -0.11057,-1.87982 z m -10.71374,4.12823 c 2.63747,0 4.86949,-0.58156 6.69609,-1.74467 1.82655,-1.16311 3.16577,-2.82586 4.01765,-4.98827 l 0,-5.97119 -7.51928,0 c -2.75216,10e-6 -5.07428,0.63481 -6.96638,1.90439 -1.89211,1.26961 -2.83816,2.83817 -2.83816,4.70569 0,1.78563 0.60203,3.24771 1.8061,4.38624 1.20406,1.13854 2.80539,1.70781 4.80398,1.70781 z"
         style="font-family:Roboto Thin;-inkscape-font-specification:Roboto Thin;fill:#ffffff"
         id="path4134" />
      <path
         d="m 284.37122,476.99907 0.98291,2.65386 0.14743,0 0.14744,-0.39316 9.19022,-24.03218 1.47437,0 -11.81951,31.01085 c -0.72081,1.86752 -1.56038,3.38694 -2.51871,4.55825 -0.95835,1.17129 -2.48595,1.75694 -4.58282,1.75695 -0.31126,-10e-6 -0.65528,-0.0287 -1.03206,-0.086 -0.37679,-0.0574 -0.65528,-0.11878 -0.83548,-0.1843 l 0.22116,-1.25321 c 0.1802,0.0491 0.4505,0.0983 0.8109,0.14744 0.3604,0.0491 0.63889,0.0737 0.83548,0.0737 1.50712,-10e-6 2.68252,-0.44232 3.52619,-1.32693 0.84366,-0.88463 1.59313,-2.19518 2.24841,-3.93165 l 1.59723,-4.32481 -10.59087,-26.44031 1.4498,0 z"
         style="font-family:Roboto Thin;-inkscape-font-specification:Roboto Thin;fill:#ffffff"
         id="path4136" />
      <path
         d="m 317.71648,475.30355 c -2e-5,-1.40883 -0.60205,-2.69071 -1.80609,-3.84564 -1.20409,-1.15491 -3.30506,-2.06001 -6.30292,-2.71529 -3.16171,-0.67164 -5.45107,-1.53579 -6.8681,-2.59243 -1.41703,-1.05661 -2.12555,-2.62517 -2.12554,-4.70569 -1e-5,-1.90027 0.80271,-3.4934 2.40813,-4.7794 1.60542,-1.28595 3.76782,-1.92894 6.48722,-1.92897 2.93233,3e-5 5.24217,0.68807 6.92952,2.06412 1.68731,1.3761 2.49002,3.16991 2.40813,5.38144 l -0.0491,0.14743 -1.13035,0 c -2e-5,-1.73645 -0.73311,-3.21491 -2.19926,-4.43539 -1.4662,-1.22042 -3.4525,-1.83064 -5.9589,-1.83067 -2.49006,3e-5 -4.37397,0.53653 -5.65174,1.60952 -1.27779,1.07303 -1.91669,2.31396 -1.91668,3.72278 -1e-5,1.39247 0.54059,2.58016 1.6218,3.56305 1.0812,0.98293 3.22722,1.84297 6.43807,2.58014 2.9651,0.68805 5.21351,1.62591 6.74523,2.81359 1.53168,1.18769 2.29753,2.84635 2.29756,4.97598 -3e-5,2.0805 -0.85188,3.76783 -2.55557,5.062 -1.70373,1.29416 -3.96443,1.94125 -6.78209,1.94125 -3.09618,0 -5.52479,-0.69214 -7.28583,-2.0764 -1.76105,-1.38427 -2.58424,-3.0675 -2.46957,-5.04971 l 0.0491,-0.14744 1.0812,0 c 0.13105,2.09689 1.03205,3.61221 2.70301,4.54597 1.67094,0.93376 3.64495,1.40065 5.92204,1.40065 2.45726,0 4.4067,-0.57337 5.84832,-1.7201 1.44158,-1.14672 2.16238,-2.47365 2.1624,-3.98079 z"
         style="font-family:Roboto Thin;-inkscape-font-specification:Roboto Thin;fill:#ffffff"
         id="path4138" />
      <path
         d="m 339.90571,460.83018 c 0.81909,-1.93303 2.02315,-3.43197 3.6122,-4.49682 1.58903,-1.06479 3.53028,-1.5972 5.82375,-1.59723 2.76852,3e-5 4.86949,0.87646 6.30292,2.62929 1.43339,1.75288 2.1501,4.51322 2.15012,8.28103 l 0,16.16889 -1.3515,0 0,-16.21804 c -3e-5,-3.48931 -0.64301,-5.95068 -1.92897,-7.38412 -1.28599,-1.43339 -3.00199,-2.15009 -5.148,-2.15012 -2.86683,3e-5 -5.062,0.85598 -6.5855,2.56786 -1.52352,1.71192 -2.48186,3.90299 -2.87502,6.57322 l 0,16.6112 -1.32693,0 0,-38.33354 1.32693,0 z"
         style="font-family:Roboto Thin;-inkscape-font-specification:Roboto Thin;fill:#ffffff"
         id="path4140" />
      <path
         d="m 382.78522,476.90078 c -0.91741,1.60543 -2.28529,2.91188 -4.10366,3.91936 -1.8184,1.00748 -4.02176,1.51123 -6.61008,1.51123 -2.47366,0 -4.41491,-0.67575 -5.82375,-2.02726 -1.40884,-1.3515 -2.11326,-3.17398 -2.11325,-5.46744 -10e-6,-2.22793 1.05253,-4.09545 3.1576,-5.6026 2.10506,-1.50711 4.73844,-2.26068 7.90015,-2.26069 l 7.59299,0 0,-3.8825 c -2e-5,-2.21153 -0.70854,-3.93572 -2.12555,-5.17257 -1.41705,-1.23681 -3.41154,-1.85522 -5.98347,-1.85525 -2.40814,3e-5 -4.3453,0.58158 -5.81146,1.74467 -1.46619,1.16313 -2.19927,2.66207 -2.19927,4.49682 l -1.10577,-0.0491 -0.0491,-0.12286 c -0.0983,-2.06409 0.70442,-3.81285 2.40813,-5.24629 1.70371,-1.43339 3.95621,-2.15009 6.75752,-2.15012 2.85043,3e-5 5.13569,0.72083 6.85581,2.16241 1.72007,1.44162 2.58011,3.52212 2.58014,6.24148 l 0,13.31845 c -3e-5,0.93377 0.0532,1.84296 0.15972,2.72758 0.10646,0.88462 0.28256,1.76105 0.52832,2.62929 l -1.47437,0 c -0.21299,-1.16311 -0.35633,-2.03545 -0.43003,-2.617 -0.0737,-0.58156 -0.11059,-1.20816 -0.11057,-1.87982 z m -10.71374,4.12823 c 2.63747,0 4.8695,-0.58156 6.69609,-1.74467 1.82656,-1.16311 3.16577,-2.82586 4.01765,-4.98827 l 0,-5.97119 -7.51927,0 c -2.75217,10e-6 -5.07429,0.63481 -6.96639,1.90439 -1.89211,1.26961 -2.83816,2.83817 -2.83815,4.70569 -10e-6,1.78563 0.60202,3.24771 1.80609,4.38624 1.20406,1.13854 2.80539,1.70781 4.80398,1.70781 z"
         style="font-family:Roboto Thin;-inkscape-font-specification:Roboto Thin;fill:#ffffff"
         id="path4142" />
      <path
         d="m 399.10154,476.18817 1.25322,3.58763 0.14743,0 1.27779,-3.58763 8.18273,-20.96058 1.42523,0 -10.34515,26.56318 0.0246,0.0246 -1.27779,0 -10.32057,-26.58775 1.42523,0 z"
         style="font-family:Roboto Thin;-inkscape-font-specification:Roboto Thin;fill:#ffffff"
         id="path4144" />
      <path
         d="m 425.78759,482.33137 c -3.03065,0 -5.64765,-1.22455 -7.85101,-3.67363 -2.20336,-2.44909 -3.30504,-5.49201 -3.30503,-9.12879 l 0,-1.57266 c -1e-5,-3.81696 1.06481,-6.97455 3.19446,-9.47281 2.12963,-2.49821 4.75892,-3.74732 7.88786,-3.74735 2.99786,3e-5 5.44285,0.98294 7.33498,2.94874 1.89208,1.96584 2.83813,4.60332 2.83815,7.91243 l 0,2.03954 -19.92852,0 0,0.31945 0,1.57266 c -1e-5,3.21085 0.94195,5.92614 2.82587,8.14587 1.8839,2.21975 4.21831,3.32962 7.00324,3.32962 1.98219,0 3.64085,-0.2703 4.97599,-0.81091 1.3351,-0.54059 2.47773,-1.3515 3.4279,-2.4327 l 0.71261,1.03206 c -1.04846,1.16311 -2.32215,2.04363 -3.82107,2.64157 -1.49895,0.59794 -3.2641,0.89691 -5.29543,0.89691 z m -0.0737,-26.26831 c -2.63749,3e-5 -4.83266,0.96246 -6.58551,2.8873 -1.75286,1.92489 -2.74396,4.32893 -2.9733,7.21212 l 0.0737,0.14743 18.33129,0 0,-0.8109 c -2e-5,-2.70299 -0.81911,-4.95139 -2.45728,-6.74523 -1.6382,-1.79379 -3.76784,-2.69069 -6.38892,-2.69072 z"
         style="font-family:Roboto Thin;-inkscape-font-specification:Roboto Thin;fill:#ffffff"
         id="path4146" />
      <path
         d="m 456.9213,448.05234 0,7.17525 6.53636,0 0,1.3515 -6.53636,0 0,18.38044 c -10e-6,2.17879 0.36858,3.73097 1.10577,4.65654 0.73718,0.92558 1.7119,1.38837 2.92416,1.38837 0.4423,0 0.83547,-0.0164 1.1795,-0.0491 0.344,-0.0328 0.81908,-0.0901 1.42522,-0.17201 l 0.24573,1.20407 c -0.40956,0.13105 -0.83549,0.22115 -1.27779,0.2703 -0.44232,0.0491 -0.94197,0.0737 -1.49894,0.0737 -1.78563,0 -3.14123,-0.58156 -4.06679,-1.74467 -0.92558,-1.16311 -1.38837,-3.03883 -1.38837,-5.62717 l 0,-18.38044 -4.91455,0 0,-1.3515 4.91455,0 0,-7.17525 z"
         style="font-family:Roboto Thin;-inkscape-font-specification:Roboto Thin;fill:#ffffff"
         id="path4148" />
      <path
         d="m 467.61046,468.00543 c 0,-3.89886 1.0771,-7.08513 3.23132,-9.55881 2.15421,-2.47363 4.9514,-3.71046 8.3916,-3.71049 3.45656,3e-5 6.26195,1.23686 8.41618,3.71049 2.15419,2.47368 3.2313,5.65995 3.23132,9.55881 l 0,1.03206 c -2e-5,3.91527 -1.07713,7.10973 -3.23132,9.58339 -2.15423,2.47366 -4.94324,3.71049 -8.36703,3.71049 -3.45658,0 -6.26607,-1.23683 -8.42846,-3.71049 -2.16241,-2.47366 -3.24361,-5.66812 -3.24361,-9.58339 z m 1.32693,1.03206 c -10e-6,3.34191 0.93376,6.17187 2.8013,8.4899 1.86752,2.31803 4.38213,3.47705 7.54384,3.47705 3.11253,0 5.60257,-1.16311 7.47013,-3.48934 1.8675,-2.32622 2.80127,-5.15208 2.80129,-8.47761 l 0,-1.03206 c -2e-5,-3.25997 -0.94198,-6.06536 -2.82587,-8.41617 -1.88393,-2.35077 -4.38216,-3.52617 -7.4947,-3.5262 -3.12894,3e-5 -5.62717,1.17543 -7.49469,3.5262 -1.86754,2.35081 -2.80131,5.1562 -2.8013,8.41617 z"
         style="font-family:Roboto Thin;-inkscape-font-specification:Roboto Thin;fill:#ffffff"
         id="path4150" />
      <path
         d="m 525.99539,476.90078 c -0.9174,1.60543 -2.28529,2.91188 -4.10365,3.91936 -1.8184,1.00748 -4.02176,1.51123 -6.61008,1.51123 -2.47367,0 -4.41492,-0.67575 -5.82375,-2.02726 -1.40884,-1.3515 -2.11326,-3.17398 -2.11326,-5.46744 0,-2.22793 1.05253,-4.09545 3.1576,-5.6026 2.10506,-1.50711 4.73844,-2.26068 7.90015,-2.26069 l 7.59299,0 0,-3.8825 c -2e-5,-2.21153 -0.70853,-3.93572 -2.12554,-5.17257 -1.41705,-1.23681 -3.41154,-1.85522 -5.98348,-1.85525 -2.40814,3e-5 -4.34529,0.58158 -5.81146,1.74467 -1.46618,1.16313 -2.19927,2.66207 -2.19926,4.49682 l -1.10578,-0.0491 -0.0491,-0.12286 c -0.0983,-2.06409 0.70441,-3.81285 2.40813,-5.24629 1.7037,-1.43339 3.95621,-2.15009 6.75751,-2.15012 2.85043,3e-5 5.1357,0.72083 6.85581,2.16241 1.72007,1.44162 2.58012,3.52212 2.58014,6.24148 l 0,13.31845 c -2e-5,0.93377 0.0532,1.84296 0.15972,2.72758 0.10646,0.88462 0.28257,1.76105 0.52832,2.62929 l -1.47437,0 c -0.21298,-1.16311 -0.35632,-2.03545 -0.43002,-2.617 -0.0737,-0.58156 -0.1106,-1.20816 -0.11058,-1.87982 z m -10.71373,4.12823 c 2.63746,0 4.86949,-0.58156 6.69608,-1.74467 1.82656,-1.16311 3.16578,-2.82586 4.01765,-4.98827 l 0,-5.97119 -7.51927,0 c -2.75216,10e-6 -5.07429,0.63481 -6.96638,1.90439 -1.89211,1.26961 -2.83816,2.83817 -2.83816,4.70569 0,1.78563 0.60203,3.24771 1.8061,4.38624 1.20406,1.13854 2.80538,1.70781 4.80398,1.70781 z"
         style="font-family:Roboto Thin;-inkscape-font-specification:Roboto Thin;fill:#ffffff"
         id="path4152" />
      <path
         d="m 552.14083,475.30355 c -2e-5,-1.40883 -0.60205,-2.69071 -1.8061,-3.84564 -1.20408,-1.15491 -3.30505,-2.06001 -6.30292,-2.71529 -3.1617,-0.67164 -5.45107,-1.53579 -6.86809,-2.59243 -1.41703,-1.05661 -2.12555,-2.62517 -2.12554,-4.70569 -10e-6,-1.90027 0.8027,-3.4934 2.40813,-4.7794 1.60541,-1.28595 3.76781,-1.92894 6.48721,-1.92897 2.93234,3e-5 5.24218,0.68807 6.92953,2.06412 1.68731,1.3761 2.49002,3.16991 2.40813,5.38144 l -0.0491,0.14743 -1.13034,0 c -2e-5,-1.73645 -0.73311,-3.21491 -2.19927,-4.43539 -1.46619,-1.22042 -3.45249,-1.83064 -5.9589,-1.83067 -2.49005,3e-5 -4.37396,0.53653 -5.65174,1.60952 -1.27779,1.07303 -1.91668,2.31396 -1.91667,3.72278 -10e-6,1.39247 0.54059,2.58016 1.6218,3.56305 1.08119,0.98293 3.22721,1.84297 6.43807,2.58014 2.9651,0.68805 5.21351,1.62591 6.74523,2.81359 1.53168,1.18769 2.29753,2.84635 2.29755,4.97598 -2e-5,2.0805 -0.85188,3.76783 -2.55557,5.062 -1.70373,1.29416 -3.96442,1.94125 -6.78209,1.94125 -3.09618,0 -5.52478,-0.69214 -7.28583,-2.0764 -1.76105,-1.38427 -2.58424,-3.0675 -2.46956,-5.04971 l 0.0491,-0.14744 1.0812,0 c 0.13105,2.09689 1.03205,3.61221 2.703,4.54597 1.67095,0.93376 3.64496,1.40065 5.92204,1.40065 2.45727,0 4.40671,-0.57337 5.84833,-1.7201 1.44158,-1.14672 2.16238,-2.47365 2.1624,-3.98079 z"
         style="font-family:Roboto Thin;-inkscape-font-specification:Roboto Thin;fill:#ffffff"
         id="path4154" />
      <path
         d="m 565.87702,468.22659 -3.63677,0 0,13.58875 -1.32693,0 0,-38.33354 1.32693,0 0,23.41786 3.12074,0 12.08981,-11.67207 1.54808,0 0.0492,0.14743 -12.1881,11.96695 13.12187,14.3505 -0.0492,0.12287 -1.54809,0 z"
         style="font-family:Roboto Thin;-inkscape-font-specification:Roboto Thin;fill:#ffffff"
         id="path4156" />
    </g>
    <g
       style="font-size:51.9903717px;font-style:normal;font-variant:normal;font-weight:300;font-stretch:normal;line-height:125%;letter-spacing:0px;word-spacing:0px;fill:#f08519;fill-opacity:1;stroke:none;font-family:Roboto Light;-inkscape-font-specification:'Roboto Light, Light'"
       id="text3757">
      <path
         d="m 146.09966,527.86475 -3.04631,0 0,-36.96191 3.04631,0 z"
         style="font-family:Roboto Light;-inkscape-font-specification:'Roboto Light, Light'"
         id="path4089" />
      <path
         d="m 181.28455,493.49221 -12.71835,0 0,34.37254 -3.04631,0 0,-34.37254 -12.71835,0 0,-2.58937 28.48301,0 z"
         style="font-family:Roboto Light;-inkscape-font-specification:'Roboto Light, Light'"
         id="path4091" />
      <path
         d="m 197.93771,514.35943 c 0,-4.38328 0.92659,-7.89077 2.77976,-10.52246 1.85317,-2.63165 4.4383,-3.94748 7.7554,-3.94751 1.91239,3e-5 3.57094,0.4062 4.97564,1.21852 1.40467,0.81238 2.57242,1.96321 3.50326,3.45249 l 0,-16.29776 3.02093,0 0,39.60204 -2.69091,0 -0.25386,-3.98559 c -0.91392,1.45546 -2.09013,2.57244 -3.52864,3.35094 -1.43856,0.7785 -3.13095,1.16775 -5.07719,1.16775 -3.28326,0 -5.85146,-1.22275 -7.70463,-3.66827 -1.85317,-2.4455 -2.77976,-5.72451 -2.77976,-9.83704 z m 3.04632,0.53311 c -1e-5,3.3171 0.66425,5.95724 1.99279,7.92041 1.32852,1.96318 3.32978,2.94477 6.00377,2.94476 1.96316,10e-6 3.60055,-0.44002 4.91218,-1.32006 1.31158,-0.88004 2.33125,-2.09857 3.059,-3.65558 l 0,-12.89605 c -0.6939,-1.59083 -1.67549,-2.88128 -2.94477,-3.87135 -1.26931,-0.99003 -2.92786,-1.48505 -4.97564,-1.48508 -2.67399,3e-5 -4.68371,1.09585 -6.02915,3.28748 -1.34546,2.19167 -2.01819,5.03912 -2.01818,8.54236 z"
         style="font-family:Roboto Light;-inkscape-font-specification:'Roboto Light, Light'"
         id="path4093" />
      <path
         d="m 238.37749,528.39785 c -3.43557,0 -6.29149,-1.26929 -8.56775,-3.80789 -2.27627,-2.53858 -3.41441,-5.75413 -3.41441,-9.64665 l 0,-1.39622 c 0,-3.92634 1.12967,-7.1842 3.38903,-9.77359 2.25933,-2.58933 4.99678,-3.88401 8.21234,-3.88404 3.36785,3e-5 6.01645,1.06623 7.9458,3.19862 1.9293,2.13244 2.89397,4.97567 2.89399,8.52967 l 0,2.58937 -19.39484,0 0,0.73619 c -1e-5,3.09709 0.8208,5.68646 2.46243,7.76809 1.64161,2.08165 3.79942,3.12247 6.47341,3.12247 1.89547,0 3.5117,-0.26232 4.84871,-0.78696 1.33697,-0.52464 2.47934,-1.27776 3.4271,-2.25935 l 1.29468,2.08165 c -1.03238,1.08313 -2.33975,1.94202 -3.92212,2.57667 -1.58241,0.63465 -3.4652,0.95197 -5.64837,0.95197 z m -0.38079,-25.91903 c -2.2509,3e-5 -4.13791,0.85892 -5.66106,2.57667 -1.52316,1.71781 -2.41167,3.87138 -2.66552,6.46072 l 0.0508,0.12693 16.09468,0 0,-0.76158 c -3e-5,-2.38625 -0.70237,-4.38328 -2.10704,-5.99107 -1.4047,-1.60776 -3.30864,-2.41164 -5.71183,-2.41167 z"
         style="font-family:Roboto Light;-inkscape-font-specification:'Roboto Light, Light'"
         id="path4095" />
      <path
         d="m 276.98948,514.89254 c -3e-5,4.11253 -0.93084,7.39154 -2.79245,9.83704 -1.86166,2.44552 -4.42563,3.66827 -7.69194,3.66827 -1.92934,0 -3.6175,-0.36386 -5.06449,-1.09159 -1.44701,-0.72773 -2.62745,-1.76855 -3.54134,-3.12247 l 0,14.2415 -3.04631,0 0,-38.02811 2.56398,0 0.38079,4.26483 c 0.91389,-1.52313 2.09433,-2.69934 3.54134,-3.52864 1.44698,-0.82925 3.15207,-1.24388 5.11526,-1.24391 3.30015,3e-5 5.88105,1.31586 7.74271,3.94751 1.86161,2.63169 2.79242,6.13918 2.79245,10.52246 z m -3.04631,-0.53311 c -3e-5,-3.48631 -0.69391,-6.32953 -2.08165,-8.52967 -1.38778,-2.20008 -3.41865,-3.30014 -6.09262,-3.30017 -2.04781,3e-5 -3.71059,0.48659 -4.98833,1.45969 -1.27777,0.97315 -2.2382,2.23822 -2.88131,3.7952 l 0,13.20068 c 0.69388,1.50624 1.69662,2.69091 3.00824,3.55403 1.31159,0.86312 2.94898,1.29468 4.91217,1.29468 2.65704,0 4.67522,-0.99851 6.05454,-2.99554 1.37928,-1.99702 2.06893,-4.64561 2.06896,-7.94579 z"
         style="font-family:Roboto Light;-inkscape-font-specification:'Roboto Light, Light'"
         id="path4097" />
      <path
         d="m 301.20765,527.86475 c -0.20311,-0.93082 -0.34697,-1.73471 -0.43157,-2.41167 -0.0846,-0.67695 -0.12695,-1.36237 -0.12692,-2.05626 -1.01546,1.43854 -2.36938,2.63168 -4.06175,3.57942 -1.69241,0.94774 -3.59635,1.42161 -5.71184,1.42161 -2.67399,0 -4.7514,-0.71081 -6.23224,-2.13242 -1.48085,-1.42161 -2.22127,-3.32555 -2.22127,-5.71183 0,-2.53858 1.09582,-4.56945 3.28748,-6.09262 2.19164,-1.52314 5.1491,-2.28472 8.87238,-2.28473 l 6.06724,0 0,-3.40172 c -3e-5,-1.96316 -0.63044,-3.50323 -1.89126,-4.62024 -1.26085,-1.11695 -3.02517,-1.67544 -5.29296,-1.67547 -2.11551,3e-5 -3.87136,0.53313 -5.26758,1.59932 -1.39623,1.06623 -2.09435,2.36937 -2.09434,3.90943 l -2.79245,-0.0254 -0.0508,-0.15231 c -0.10155,-2.04778 0.8335,-3.8798 2.80514,-5.49606 1.97163,-1.61621 4.48061,-2.42432 7.52693,-2.42435 3.02937,3e-5 5.46641,0.77007 7.31114,2.31012 1.84469,1.5401 2.76705,3.74867 2.76707,6.62572 l 0,13.50531 c -2e-5,0.96467 0.055,1.90395 0.16501,2.81784 0.10998,0.9139 0.29191,1.81933 0.5458,2.7163 z m -9.97667,-2.15781 c 2.18317,0 4.1125,-0.51194 5.78799,-1.53585 1.67545,-1.02389 2.88551,-2.33126 3.63019,-3.92212 l 0,-5.73722 -6.11801,0 c -2.75862,10e-6 -4.96296,0.58812 -6.61304,1.76432 -1.65009,1.17623 -2.47513,2.63592 -2.47512,4.37907 -1e-5,1.48932 0.51194,2.70361 1.53585,3.64288 1.02389,0.93929 2.44127,1.40892 4.25214,1.40892 z"
         style="font-family:Roboto Light;-inkscape-font-specification:'Roboto Light, Light'"
         id="path4099" />
      <path
         d="m 324.38499,503.01193 -2.25934,-0.15232 c -1.91242,3e-5 -3.48212,0.53736 -4.70909,1.61201 -1.227,1.07469 -2.10281,2.5513 -2.62745,4.42984 l 0,18.96329 -3.04631,0 0,-27.46757 2.66552,0 0.38079,4.56946 0,0.30463 c 0.79542,-1.69237 1.86163,-3.01243 3.19863,-3.9602 1.33698,-0.94771 2.92783,-1.42158 4.77255,-1.42161 0.38924,3e-5 0.7658,0.0296 1.12968,0.0889 0.36385,0.0593 0.66425,0.12273 0.9012,0.19039 z"
         style="font-family:Roboto Light;-inkscape-font-specification:'Roboto Light, Light'"
         id="path4101" />
      <path
         d="m 334.18397,493.36528 0,7.0319 6.04185,0 0,2.48782 -6.04185,0 0,17.89707 c -10e-6,1.79395 0.32577,3.06747 0.97735,3.82058 0.65157,0.75312 1.51892,1.12968 2.60206,1.12968 0.49078,0 0.96888,-0.0212 1.43431,-0.0635 0.46539,-0.0423 1.00273,-0.11423 1.612,-0.21578 l 0.45695,2.25935 c -0.50774,0.22001 -1.12546,0.38925 -1.85317,0.50772 -0.72775,0.11847 -1.45548,0.1777 -2.18319,0.1777 -1.92934,0 -3.43134,-0.60926 -4.506,-1.82779 -1.07468,-1.21852 -1.61202,-3.14785 -1.61201,-5.78799 l 0,-17.89707 -4.74717,0 0,-2.48782 4.74717,0 0,-7.0319 z"
         style="font-family:Roboto Light;-inkscape-font-specification:'Roboto Light, Light'"
         id="path4103" />
      <path
         d="m 349.23781,500.39718 0.27925,4.54408 c 0.88003,-1.60775 2.05202,-2.85166 3.51595,-3.73173 1.46391,-0.88002 3.2113,-1.32004 5.24219,-1.32007 2.09855,3e-5 3.85441,0.50774 5.26758,1.52315 1.41313,1.01547 2.42433,2.56401 3.03362,4.64563 0.82925,-1.92931 2.00969,-3.43977 3.54133,-4.53139 1.53159,-1.09157 3.39746,-1.63736 5.5976,-1.63739 2.92781,3e-5 5.18715,0.97315 6.77804,2.91938 1.59081,1.94628 2.38624,4.95874 2.38628,9.03739 l 0,16.01852 -3.04631,0 0,-16.06929 c -4e-5,-3.38477 -0.59661,-5.77528 -1.78971,-7.17153 -1.19317,-1.3962 -2.85595,-2.09431 -4.98833,-2.09434 -2.35246,3e-5 -4.17179,0.73622 -5.45798,2.20858 -1.28624,1.4724 -2.08167,3.35942 -2.38627,5.66106 -3e-5,0.11849 0.004,0.28772 0.0127,0.50772 0.008,0.22003 0.0127,0.3808 0.0127,0.48233 l 0,16.47547 -3.0717,0 0,-16.06929 c -2e-5,-3.31708 -0.60505,-5.69066 -1.81509,-7.12076 -1.21008,-1.43004 -2.87286,-2.14508 -4.98833,-2.14511 -2.14936,3e-5 -3.85444,0.54583 -5.11527,1.6374 -1.26084,1.09161 -2.14511,2.55976 -2.65283,4.40445 l 0,19.29331 -3.07169,0 0,-27.46757 z"
         style="font-family:Roboto Light;-inkscape-font-specification:'Roboto Light, Light'"
         id="path4105" />
      <path
         d="m 403.08136,528.39785 c -3.43557,0 -6.29148,-1.26929 -8.56775,-3.80789 -2.27627,-2.53858 -3.4144,-5.75413 -3.4144,-9.64665 l 0,-1.39622 c 0,-3.92634 1.12967,-7.1842 3.38902,-9.77359 2.25934,-2.58933 4.99678,-3.88401 8.21234,-3.88404 3.36785,3e-5 6.01645,1.06623 7.9458,3.19862 1.9293,2.13244 2.89397,4.97567 2.89399,8.52967 l 0,2.58937 -19.39484,0 0,0.73619 c -10e-6,3.09709 0.8208,5.68646 2.46243,7.76809 1.64162,2.08165 3.79942,3.12247 6.47341,3.12247 1.89547,0 3.5117,-0.26232 4.84871,-0.78696 1.33698,-0.52464 2.47934,-1.27776 3.4271,-2.25935 l 1.29469,2.08165 c -1.03239,1.08313 -2.33976,1.94202 -3.92213,2.57667 -1.58241,0.63465 -3.46519,0.95197 -5.64837,0.95197 z m -0.38079,-25.91903 c -2.25089,3e-5 -4.13791,0.85892 -5.66106,2.57667 -1.52316,1.71781 -2.41167,3.87138 -2.66552,6.46072 l 0.0508,0.12693 16.09468,0 0,-0.76158 c -2e-5,-2.38625 -0.70237,-4.38328 -2.10703,-5.99107 -1.40471,-1.60776 -3.30865,-2.41164 -5.71184,-2.41167 z"
         style="font-family:Roboto Light;-inkscape-font-specification:'Roboto Light, Light'"
         id="path4107" />
      <path
         d="m 422.27313,500.39718 0.27924,4.79794 c 0.88004,-1.69237 2.06895,-2.99975 3.56672,-3.92213 1.49776,-0.92233 3.27054,-1.3835 5.31836,-1.38353 2.97859,3e-5 5.2464,0.90969 6.80342,2.72898 1.55698,1.81935 2.33548,4.65834 2.33551,8.51698 l 0,16.72933 -3.04631,0 0,-16.70394 c -2e-5,-3.14784 -0.58813,-5.37333 -1.76432,-6.6765 -1.17624,-1.30312 -2.84748,-1.95469 -5.01372,-1.95472 -2.13243,3e-5 -3.87137,0.56275 -5.21681,1.68817 -1.34546,1.12546 -2.31436,2.619 -2.90669,4.48061 l 0,19.16638 -3.04631,0 0,-27.46757 z"
         style="font-family:Roboto Light;-inkscape-font-specification:'Roboto Light, Light'"
         id="path4109" />
      <path
         d="m 453.29471,493.36528 0,7.0319 6.04185,0 0,2.48782 -6.04185,0 0,17.89707 c 0,1.79395 0.32578,3.06747 0.97736,3.82058 0.65156,0.75312 1.51892,1.12968 2.60206,1.12968 0.49078,0 0.96888,-0.0212 1.4343,-0.0635 0.4654,-0.0423 1.00273,-0.11423 1.61201,-0.21578 l 0.45695,2.25935 c -0.50774,0.22001 -1.12546,0.38925 -1.85318,0.50772 -0.72774,0.11847 -1.45547,0.1777 -2.18318,0.1777 -1.92934,0 -3.43134,-0.60926 -4.50601,-1.82779 -1.07467,-1.21852 -1.61201,-3.14785 -1.612,-5.78799 l 0,-17.89707 -4.74717,0 0,-2.48782 4.74717,0 0,-7.0319 z"
         style="font-family:Roboto Light;-inkscape-font-specification:'Roboto Light, Light'"
         id="path4111" />
      <path
         d="m 468.34856,500.39718 0.27924,4.54408 c 0.88004,-1.60775 2.05202,-2.85166 3.51596,-3.73173 1.4639,-0.88002 3.2113,-1.32004 5.24219,-1.32007 2.09855,3e-5 3.85441,0.50774 5.26758,1.52315 1.41313,1.01547 2.42433,2.56401 3.03362,4.64563 0.82924,-1.92931 2.00969,-3.43977 3.54133,-4.53139 1.53159,-1.09157 3.39745,-1.63736 5.5976,-1.63739 2.92781,3e-5 5.18715,0.97315 6.77804,2.91938 1.59081,1.94628 2.38623,4.95874 2.38628,9.03739 l 0,16.01852 -3.04631,0 0,-16.06929 c -4e-5,-3.38477 -0.59661,-5.77528 -1.78971,-7.17153 -1.19318,-1.3962 -2.85595,-2.09431 -4.98834,-2.09434 -2.35246,3e-5 -4.17178,0.73622 -5.45797,2.20858 -1.28625,1.4724 -2.08167,3.35942 -2.38628,5.66106 -2e-5,0.11849 0.004,0.28772 0.0127,0.50772 0.008,0.22003 0.0127,0.3808 0.0127,0.48233 l 0,16.47547 -3.0717,0 0,-16.06929 c -2e-5,-3.31708 -0.60505,-5.69066 -1.81509,-7.12076 -1.21008,-1.43004 -2.87286,-2.14508 -4.98833,-2.14511 -2.14936,3e-5 -3.85445,0.54583 -5.11527,1.6374 -1.26084,1.09161 -2.14512,2.55976 -2.65283,4.40445 l 0,19.29331 -3.07169,0 0,-27.46757 z"
         style="font-family:Roboto Light;-inkscape-font-specification:'Roboto Light, Light'"
         id="path4113" />
      <path
         d="m 522.19213,528.39785 c -3.43558,0 -6.29149,-1.26929 -8.56775,-3.80789 -2.27628,-2.53858 -3.41441,-5.75413 -3.41441,-9.64665 l 0,-1.39622 c 0,-3.92634 1.12967,-7.1842 3.38902,-9.77359 2.25934,-2.58933 4.99679,-3.88401 8.21235,-3.88404 3.36785,3e-5 6.01644,1.06623 7.94579,3.19862 1.92931,2.13244 2.89397,4.97567 2.894,8.52967 l 0,2.58937 -19.39485,0 0,0.73619 c 0,3.09709 0.82081,5.68646 2.46244,7.76809 1.64161,2.08165 3.79941,3.12247 6.47341,3.12247 1.89546,0 3.5117,-0.26232 4.84871,-0.78696 1.33697,-0.52464 2.47934,-1.27776 3.4271,-2.25935 l 1.29468,2.08165 c -1.03238,1.08313 -2.33976,1.94202 -3.92213,2.57667 -1.5824,0.63465 -3.46519,0.95197 -5.64836,0.95197 z m -0.38079,-25.91903 c -2.2509,3e-5 -4.13792,0.85892 -5.66106,2.57667 -1.52317,1.71781 -2.41167,3.87138 -2.66552,6.46072 l 0.0508,0.12693 16.09467,0 0,-0.76158 c -2e-5,-2.38625 -0.70236,-4.38328 -2.10703,-5.99107 -1.40471,-1.60776 -3.30865,-2.41164 -5.71183,-2.41167 z"
         style="font-family:Roboto Light;-inkscape-font-specification:'Roboto Light, Light'"
         id="path4115" />
      <path
         d="m 541.38388,500.39718 0.27924,4.79794 c 0.88004,-1.69237 2.06894,-2.99975 3.56672,-3.92213 1.49776,-0.92233 3.27054,-1.3835 5.31835,-1.38353 2.9786,3e-5 5.24641,0.90969 6.80343,2.72898 1.55698,1.81935 2.33548,4.65834 2.33551,8.51698 l 0,16.72933 -3.04631,0 0,-16.70394 c -3e-5,-3.14784 -0.58813,-5.37333 -1.76433,-6.6765 -1.17623,-1.30312 -2.84747,-1.95469 -5.01372,-1.95472 -2.13243,3e-5 -3.87136,0.56275 -5.2168,1.68817 -1.34547,1.12546 -2.31436,2.619 -2.90669,4.48061 l 0,19.16638 -3.04631,0 0,-27.46757 z"
         style="font-family:Roboto Light;-inkscape-font-specification:'Roboto Light, Light'"
         id="path4117" />
      <path
         d="m 572.40546,493.36528 0,7.0319 6.04185,0 0,2.48782 -6.04185,0 0,17.89707 c -10e-6,1.79395 0.32578,3.06747 0.97736,3.82058 0.65156,0.75312 1.51891,1.12968 2.60206,1.12968 0.49078,0 0.96888,-0.0212 1.4343,-0.0635 0.4654,-0.0423 1.00273,-0.11423 1.61201,-0.21578 l 0.45695,2.25935 c -0.50774,0.22001 -1.12546,0.38925 -1.85318,0.50772 -0.72774,0.11847 -1.45547,0.1777 -2.18319,0.1777 -1.92934,0 -3.43134,-0.60926 -4.506,-1.82779 -1.07468,-1.21852 -1.61201,-3.14785 -1.612,-5.78799 l 0,-17.89707 -4.74717,0 0,-2.48782 4.74717,0 0,-7.0319 z"
         style="font-family:Roboto Light;-inkscape-font-specification:'Roboto Light, Light'"
         id="path4119" />
    </g>
    <g
       style="font-size:31.54887962px;font-style:normal;font-weight:normal;line-height:125%;letter-spacing:0px;word-spacing:0px;fill:#ffffff;fill-opacity:1;stroke:none;font-family:Roboto Thin;-inkscape-font-specification:Roboto Thin"
       id="text3761">
      <path
         d="m 82.553526,524.00838 0.616189,1.66371 0.09243,0 0.09243,-0.24647 5.761367,-15.06582 0.924284,0 -7.409673,19.44076 c -0.451879,1.17076 -0.978207,2.12328 -1.578985,2.85758 -0.600789,0.73428 -1.558449,1.10143 -2.872981,1.10144 -0.195129,-10e-6 -0.410795,-0.018 -0.646999,-0.0539 -0.236207,-0.0359 -0.410794,-0.0745 -0.52376,-0.11554 l 0.138642,-0.78564 c 0.112966,0.0308 0.282418,0.0616 0.508356,0.0924 0.225934,0.0308 0.40052,0.0462 0.523761,0.0462 0.944819,0 1.681678,-0.27729 2.210578,-0.83185 0.52889,-0.55458 0.998734,-1.37616 1.409532,-2.46476 l 1.001308,-2.71123 -6.639437,-16.57548 0.908878,0 z"
         style=""
         id="path4080" />
      <path
         d="m 91.935005,518.37025 c -2e-6,-2.4442 0.675238,-4.44168 2.025721,-5.99243 1.350476,-1.55073 3.104046,-2.3261 5.260714,-2.32612 2.16692,2e-5 3.92563,0.77539 5.27612,2.32612 1.35046,1.55075 2.0257,3.54823 2.02572,5.99243 l 0,0.647 c -2e-5,2.45449 -0.67526,4.45711 -2.02572,6.00785 -1.35049,1.55074 -3.09893,2.32611 -5.24531,2.32611 -2.166938,0 -3.92821,-0.77537 -5.283822,-2.32611 -1.355618,-1.55074 -2.033425,-3.55336 -2.033423,-6.00785 z m 0.831855,0.647 c -2e-6,2.09505 0.585377,3.86916 1.756139,5.32234 1.170754,1.45318 2.747169,2.17976 4.729251,2.17976 1.95125,0 3.51226,-0.72915 4.68304,-2.18747 1.17074,-1.45831 1.75612,-3.22985 1.75614,-5.31463 l 0,-0.647 c -2e-5,-2.04368 -0.59053,-3.80238 -1.77155,-5.27612 -1.18104,-1.4737 -2.74719,-2.21056 -4.69844,-2.21057 -1.961542,1e-5 -3.527687,0.73687 -4.698441,2.21057 -1.170762,1.47374 -1.756141,3.23244 -1.756139,5.27612 z"
         style=""
         id="path4082" />
      <path
         d="m 121.69694,524.03919 c -0.52378,1.0578 -1.27091,1.87425 -2.24139,2.44935 -0.97051,0.57511 -2.14897,0.86267 -3.53539,0.86267 -1.71506,0 -3.05784,-0.60849 -4.02833,-1.82546 -0.9705,-1.21697 -1.45575,-3.10405 -1.45575,-5.66124 l 0,-9.50471 0.83186,0 0,9.53552 c -10e-6,2.25937 0.41592,3.92821 1.24778,5.00654 0.83185,1.07833 1.95639,1.61749 3.37363,1.61749 1.73559,0 3.0681,-0.42619 3.99753,-1.27859 0.92941,-0.85239 1.52249,-1.98207 1.77925,-3.38904 l 0,-11.49192 0.84726,0 0,16.66791 -0.69322,0 z"
         style=""
         id="path4084" />
      <path
         d="m 135.09905,510.96058 -1.07833,-0.0924 c -1.48914,2e-5 -2.6984,0.48013 -3.62782,1.44034 -0.92942,0.96025 -1.53277,2.226 -1.81005,3.79727 l 0,10.92195 -0.83186,0 0,-16.66791 0.67781,0 0.15405,2.89608 0,0.56998 c 0.46214,-1.19128 1.15021,-2.11814 2.06423,-2.78055 0.91401,-0.66239 2.03855,-0.99359 3.37364,-0.99361 0.23619,2e-5 0.45443,0.018 0.6547,0.0539 0.20025,0.036 0.37227,0.0745 0.51606,0.11553 z"
         style=""
         id="path4086" />
    </g>
    <g
       style="font-size:33.16994858px;font-style:normal;font-weight:normal;line-height:125%;letter-spacing:0px;word-spacing:0px;fill:#ffffff;fill-opacity:1;stroke:none;font-family:Roboto Thin;-inkscape-font-specification:Roboto Thin"
       id="text3765">
      <path
         d="m 75.678879,561.48162 0,4.72931 4.308206,0 0,0.8908 -4.308206,0 0,12.1148 c -5e-6,1.43607 0.242939,2.45914 0.728832,3.06919 0.485882,0.61007 1.128333,0.91509 1.927355,0.91509 0.291525,0 0.550665,-0.0108 0.777421,-0.0324 0.226739,-0.0216 0.539867,-0.0594 0.939383,-0.11337 l 0.161963,0.79361 c -0.269947,0.0864 -0.550682,0.14577 -0.842206,0.17816 -0.291541,0.0324 -0.620865,0.0486 -0.987972,0.0486 -1.176935,0 -2.070428,-0.38331 -2.680482,-1.14993 -0.610063,-0.76662 -0.915093,-2.00294 -0.915089,-3.70895 l 0,-12.1148 -3.239253,0 0,-0.8908 3.239253,0 0,-4.72931 z"
         style=""
         id="path4061" />
      <path
         d="m 82.724254,574.63299 c -2e-6,-2.5698 0.709934,-4.66991 2.129809,-6.30035 1.419867,-1.6304 3.26354,-2.44561 5.531024,-2.44563 2.278263,2e-5 4.127334,0.81523 5.54722,2.44563 1.419857,1.63044 2.129792,3.73055 2.129809,6.30035 l 0,0.68024 c -1.7e-5,2.58061 -0.709952,4.68613 -2.129809,6.31655 -1.419886,1.63042 -3.25816,2.44563 -5.514828,2.44563 -2.278281,0 -4.130052,-0.81521 -5.555318,-2.44563 -1.425274,-1.63042 -2.137909,-3.73594 -2.137907,-6.31655 z m 0.874598,0.68024 c -2e-6,2.2027 0.615455,4.06797 1.846374,5.59581 1.230911,1.52785 2.888327,2.29177 4.972253,2.29177 2.051516,0 3.692736,-0.76662 4.923664,-2.29987 1.230901,-1.53324 1.846359,-3.39581 1.846375,-5.58771 l 0,-0.68024 c -1.6e-5,-2.14869 -0.620872,-3.99776 -1.862571,-5.54722 -1.241726,-1.54943 -2.888345,-2.32415 -4.93986,-2.32416 -2.062332,10e-6 -3.70895,0.77473 -4.939861,2.32416 -1.230919,1.54946 -1.846376,3.39853 -1.846374,5.54722 z"
         style=""
         id="path4063" />
      <path
         d="m 116.15334,583.20081 c 1.47925,0 2.78575,-0.4049 3.9195,-1.21472 1.13372,-0.80981 1.70059,-2.02453 1.70061,-3.64416 l 0.74503,0 0.0324,0.0972 c 0.0432,1.71681 -0.58578,3.08539 -1.88687,4.10576 -1.30111,1.02036 -2.80466,1.53054 -4.51066,1.53054 -2.23509,0 -3.98698,-0.80441 -5.25568,-2.41324 -1.26871,-1.60883 -1.90307,-3.72514 -1.90307,-6.34894 l 0,-0.68024 c 0,-2.61299 0.63166,-4.7239 1.89497,-6.33274 1.2633,-1.60881 3.0071,-2.41322 5.23139,-2.41324 1.81397,2e-5 3.34992,0.53179 4.60784,1.59533 1.25789,1.06357 1.86525,2.56172 1.82208,4.49446 l -0.0324,0.0972 -0.74503,0 c -2e-5,-1.71679 -0.55069,-3.03139 -1.65202,-3.94379 -1.10136,-0.91237 -2.43485,-1.36857 -4.00048,-1.36858 -2.05153,10e-6 -3.60637,0.73424 -4.66452,2.20269 -1.05816,1.46847 -1.58724,3.35803 -1.58724,5.66869 l 0,0.68024 c 0,2.33227 0.52908,4.22993 1.58724,5.69299 1.05815,1.46306 2.62379,2.19459 4.69691,2.19459 z"
         style=""
         id="path4065" />
      <path
         d="m 134.77904,566.84259 -1.13373,-0.0972 c -1.56565,2e-5 -2.83706,0.5048 -3.81422,1.51435 -0.97718,1.00958 -1.61154,2.34037 -1.90306,3.99238 l 0,11.48315 -0.8746,0 0,-17.52436 0.71263,0 0.16197,3.0449 0,0.59926 c 0.48588,-1.25249 1.20931,-2.22697 2.17029,-2.92342 0.96098,-0.69643 2.1433,-1.04464 3.54699,-1.04466 0.24833,2e-5 0.47778,0.0189 0.68834,0.0567 0.21054,0.0378 0.3914,0.0783 0.54257,0.12148 z"
         style=""
         id="path4067" />
      <path
         d="m 144.04331,584.07541 c -1.99755,0 -3.72245,-0.80711 -5.17471,-2.42134 -1.45227,-1.61422 -2.1784,-3.61986 -2.1784,-6.01691 l 0,-1.03656 c 0,-2.51581 0.70184,-4.59703 2.10552,-6.24366 1.40367,-1.64661 3.13667,-2.46991 5.199,-2.46993 1.97593,2e-5 3.58746,0.64787 4.83458,1.94355 1.2471,1.29572 1.87066,3.03411 1.87067,5.2152 l 0,1.34429 -13.13517,0 0,0.21055 0,1.03656 c 0,2.11632 0.62086,3.906 1.86257,5.36906 1.24171,1.46306 2.78035,2.19459 4.61594,2.19459 1.30649,0 2.39973,-0.17815 3.27974,-0.53447 0.87998,-0.35632 1.63311,-0.8908 2.25938,-1.60343 l 0.46969,0.68024 c -0.69105,0.76662 -1.53056,1.34699 -2.51852,1.7411 -0.98798,0.39411 -2.15141,0.59116 -3.49029,0.59116 z m -0.0486,-17.3138 c -1.73841,10e-6 -3.18527,0.63437 -4.3406,1.90306 -1.15534,1.26872 -1.80859,2.85325 -1.95975,4.7536 l 0.0486,0.0972 12.08241,0 0,-0.53448 c -1e-5,-1.78158 -0.53989,-3.26353 -1.61962,-4.44587 -1.07977,-1.18231 -2.48344,-1.77348 -4.21103,-1.77349 z"
         style=""
         id="path4069" />
      <path
         d="m 165.77869,580.49604 c -0.60467,1.05816 -1.50626,1.91926 -2.70477,2.5833 -1.19853,0.66405 -2.6508,0.99607 -4.3568,0.99607 -1.63043,0 -2.90993,-0.4454 -3.83851,-1.33619 -0.92859,-0.89079 -1.39288,-2.09201 -1.39288,-3.60367 0,-1.46845 0.69374,-2.69937 2.08122,-3.69275 1.38748,-0.99336 3.12317,-1.49004 5.2071,-1.49005 l 5.00464,0 0,-2.55901 c -1e-5,-1.45765 -0.467,-2.59409 -1.40097,-3.40932 -0.934,-0.81519 -2.24859,-1.2228 -3.94379,-1.22281 -1.58724,10e-6 -2.86405,0.38332 -3.83042,1.14993 -0.96638,0.76664 -1.44957,1.75461 -1.44956,2.96392 l -0.72884,-0.0324 -0.0324,-0.081 c -0.0648,-1.36047 0.46429,-2.5131 1.58724,-3.4579 1.12293,-0.94476 2.60759,-1.41715 4.45397,-1.41717 1.87875,2e-5 3.385,0.47511 4.51876,1.42527 1.13372,0.9502 1.70059,2.32148 1.7006,4.11385 l 0,8.77837 c -1e-5,0.61547 0.0351,1.21473 0.10528,1.79779 0.0702,0.58307 0.18624,1.16073 0.34822,1.733 l -0.97178,0 c -0.14038,-0.76662 -0.23486,-1.34159 -0.28343,-1.7249 -0.0486,-0.38331 -0.0729,-0.79632 -0.0729,-1.23902 z m -7.06157,2.72097 c 1.73839,0 3.20955,-0.38331 4.41349,-1.14993 1.20391,-0.76663 2.0866,-1.86257 2.64808,-3.28785 l 0,-3.93569 -4.95605,0 c -1.81399,1e-5 -3.34454,0.41841 -4.59164,1.25521 -1.24712,0.83682 -1.87067,1.87068 -1.87067,3.10159 0,1.17693 0.3968,2.14061 1.19042,2.89103 0.79362,0.75043 1.84907,1.12564 3.16637,1.12564 z"
         style=""
         id="path4071" />
      <path
         d="m 174.08738,561.48162 0,4.72931 4.30821,0 0,0.8908 -4.30821,0 0,12.1148 c -1e-5,1.43607 0.24294,2.45914 0.72883,3.06919 0.48588,0.61007 1.12833,0.91509 1.92736,0.91509 0.29152,0 0.55066,-0.0108 0.77742,-0.0324 0.22674,-0.0216 0.53986,-0.0594 0.93938,-0.11337 l 0.16196,0.79361 c -0.26994,0.0864 -0.55068,0.14577 -0.8422,0.17816 -0.29154,0.0324 -0.62087,0.0486 -0.98797,0.0486 -1.17694,0 -2.07043,-0.38331 -2.68049,-1.14993 -0.61006,-0.76662 -0.91509,-2.00294 -0.91509,-3.70895 l 0,-12.1148 -3.23925,0 0,-0.8908 3.23925,0 0,-4.72931 z"
         style=""
         id="path4073" />
      <path
         d="m 188.48586,584.07541 c -1.99755,0 -3.72245,-0.80711 -5.17471,-2.42134 -1.45227,-1.61422 -2.1784,-3.61986 -2.1784,-6.01691 l 0,-1.03656 c 0,-2.51581 0.70184,-4.59703 2.10552,-6.24366 1.40367,-1.64661 3.13667,-2.46991 5.199,-2.46993 1.97593,2e-5 3.58746,0.64787 4.83458,1.94355 1.2471,1.29572 1.87066,3.03411 1.87067,5.2152 l 0,1.34429 -13.13517,0 0,0.21055 0,1.03656 c 0,2.11632 0.62086,3.906 1.86257,5.36906 1.24171,1.46306 2.78035,2.19459 4.61594,2.19459 1.30649,0 2.39973,-0.17815 3.27974,-0.53447 0.87998,-0.35632 1.63311,-0.8908 2.25938,-1.60343 l 0.46969,0.68024 c -0.69105,0.76662 -1.53056,1.34699 -2.51852,1.7411 -0.98798,0.39411 -2.15141,0.59116 -3.49029,0.59116 z m -0.0486,-17.3138 c -1.73841,10e-6 -3.18527,0.63437 -4.3406,1.90306 -1.15534,1.26872 -1.80859,2.85325 -1.95975,4.7536 l 0.0486,0.0972 12.08241,0 0,-0.53448 c -1e-5,-1.78158 -0.53989,-3.26353 -1.61962,-4.44587 -1.07977,-1.18231 -2.48344,-1.77348 -4.21103,-1.77349 z"
         style=""
         id="path4075" />
      <path
         d="m 218.1898,580.49604 c -0.60468,1.05816 -1.50627,1.91926 -2.70478,2.5833 -1.19853,0.66405 -2.6508,0.99607 -4.35679,0.99607 -1.63043,0 -2.90994,-0.4454 -3.83852,-1.33619 -0.92859,-0.89079 -1.39288,-2.09201 -1.39288,-3.60367 0,-1.46845 0.69374,-2.69937 2.08122,-3.69275 1.38748,-0.99336 3.12318,-1.49004 5.2071,-1.49005 l 5.00465,0 0,-2.55901 c -2e-5,-1.45765 -0.46701,-2.59409 -1.40098,-3.40932 -0.934,-0.81519 -2.24859,-1.2228 -3.94379,-1.22281 -1.58724,10e-6 -2.86404,0.38332 -3.83042,1.14993 -0.96638,0.76664 -1.44957,1.75461 -1.44956,2.96392 l -0.72883,-0.0324 -0.0324,-0.081 c -0.0648,-1.36047 0.46429,-2.5131 1.58724,-3.4579 1.12293,-0.94476 2.60759,-1.41715 4.45397,-1.41717 1.87876,2e-5 3.38501,0.47511 4.51876,1.42527 1.13372,0.9502 1.70059,2.32148 1.70061,4.11385 l 0,8.77837 c -2e-5,0.61547 0.0351,1.21473 0.10527,1.79779 0.0702,0.58307 0.18624,1.16073 0.34822,1.733 l -0.97178,0 c -0.14038,-0.76662 -0.23485,-1.34159 -0.28343,-1.7249 -0.0486,-0.38331 -0.0729,-0.79632 -0.0729,-1.23902 z m -7.06157,2.72097 c 1.73839,0 3.20955,-0.38331 4.41348,-1.14993 1.20391,-0.76663 2.0866,-1.86257 2.64809,-3.28785 l 0,-3.93569 -4.95606,0 c -1.81399,1e-5 -3.34453,0.41841 -4.59164,1.25521 -1.24712,0.83682 -1.87067,1.87068 -1.87067,3.10159 0,1.17693 0.39681,2.14061 1.19043,2.89103 0.79361,0.75043 1.84906,1.12564 3.16637,1.12564 z"
         style=""
         id="path4077" />
    </g>
    <g
       style="font-size:70.26330566px;font-style:normal;font-weight:normal;line-height:125%;letter-spacing:0px;word-spacing:0px;fill:#ffffff;fill-opacity:1;stroke:none;font-family:Roboto Thin;-inkscape-font-specification:Roboto Thin"
       id="text3773">
      <path
         d="m 561.96076,582.20443 c 0.0229,-2.67602 0.2573,-4.5687 0.70332,-5.67801 0.44599,-1.10928 1.64106,-2.55595 3.58521,-4.34 2.76751,-2.65314 4.75739,-4.91177 5.96964,-6.77588 1.2122,-1.86405 1.81831,-4.40857 1.81833,-7.63358 -2e-5,-3.3393 -0.89204,-5.95816 -2.67604,-7.8566 -1.78405,-1.89834 -4.31142,-2.84753 -7.58213,-2.84758 -3.24786,5e-5 -5.76379,0.9664 -7.54781,2.89905 -1.78404,1.93274 -2.71036,4.4887 -2.77897,7.66789 l -1.57818,0 -0.10292,-0.20585 c -0.0457,-3.88822 1.05783,-6.89019 3.31074,-9.00591 2.2529,-2.11563 5.15195,-3.17347 8.69714,-3.17352 3.75102,5e-5 6.70725,1.1551 8.86869,3.46514 2.16139,2.31013 3.2421,5.35213 3.24213,9.12599 -3e-5,3.22501 -0.71478,6.00398 -2.14427,8.33691 -1.42953,2.33299 -3.6081,4.81461 -6.53572,7.44489 -1.5782,1.21224 -2.53883,2.37301 -2.88189,3.48229 -0.3431,1.10931 -0.51464,2.80757 -0.51463,5.09477 z m 2.67604,13.7233 -2.81328,0 0,-3.63667 2.81328,0 z"
         style=""
         id="path4058" />
    </g>
    <g
       style="font-size:62.33029938px;font-style:normal;font-variant:normal;font-weight:300;font-stretch:normal;line-height:125%;letter-spacing:0px;word-spacing:0px;fill:#f08519;fill-opacity:1;stroke:none;font-family:Roboto Light;-inkscape-font-specification:'Roboto Light, Light'"
       id="text3757-1">
      <path
         d="m 247.23438,578.11825 c -3e-5,-1.54202 -0.63408,-2.89129 -1.90217,-4.04782 -1.26814,-1.15651 -3.55581,-2.09998 -6.86303,-2.83043 -3.93624,-0.85216 -6.84275,-1.97824 -8.71955,-3.37825 -1.87681,-1.39998 -2.81521,-3.37824 -2.81521,-5.93477 0,-2.51591 1.06014,-4.64127 3.18043,-6.37608 2.12027,-1.73474 4.92534,-2.60213 8.4152,-2.60216 3.71301,3e-5 6.65503,0.91814 8.82607,2.75434 2.17098,1.83625 3.20576,4.13407 3.10434,6.89346 l -0.0609,0.18261 -3.37826,0 c -2e-5,-1.80577 -0.76596,-3.37823 -2.29782,-4.71738 -1.5319,-1.3391 -3.59639,-2.00866 -6.19346,-2.00869 -2.65798,3e-5 -4.65145,0.57321 -5.98042,1.71956 -1.329,1.1464 -1.99349,2.4906 -1.99348,4.0326 -1e-5,1.52176 0.57318,2.77972 1.71956,3.7739 1.14637,0.99422 3.43404,1.86668 6.86303,2.61739 3.91591,0.87248 6.84779,2.0645 8.79563,3.57608 1.9478,1.5116 2.92171,3.56594 2.92174,6.16303 -3e-5,2.73913 -1.1109,4.95579 -3.3326,6.64998 -2.22176,1.6942 -5.15871,2.5413 -8.81085,2.5413 -3.99711,0 -7.13695,-0.95362 -9.41955,-2.86086 -2.28261,-1.90724 -3.36304,-4.1797 -3.2413,-6.81738 l 0.0609,-0.18261 3.34782,0 c 0.14202,2.37392 1.11086,4.09855 2.90652,5.17391 1.79563,1.07536 3.91084,1.61304 6.34564,1.61304 2.63765,0 4.71736,-0.57826 6.23911,-1.73478 1.52171,-1.15652 2.28258,-2.55651 2.28261,-4.19999 z"
         style="font-family:Roboto Light;-inkscape-font-specification:'Roboto Light, Light'"
         id="path4037" />
      <path
         d="m 263.36478,586.48779 -3.62174,0 0,-32.93036 3.62174,0 z m 0,-42.36512 -3.62174,0 0,-5.11303 3.62174,0 z"
         style="font-family:Roboto Light;-inkscape-font-specification:'Roboto Light, Light'"
         id="path4039" />
      <path
         d="m 276.48214,553.55743 0.33478,5.44781 c 1.05506,-1.9275 2.46013,-3.4188 4.21521,-4.4739 1.75505,-1.05504 3.84998,-1.58257 6.28477,-1.5826 2.51591,3e-5 4.62098,0.60872 6.3152,1.82608 1.69418,1.21742 2.90649,3.07393 3.63695,5.56955 0.99417,-2.31301 2.40939,-4.12387 4.24564,-5.4326 1.8362,-1.30866 4.07315,-1.963 6.71086,-1.96303 3.51009,3e-5 6.21878,1.16669 8.12607,3.49999 1.90719,2.33335 2.86081,5.94494 2.86086,10.83476 l 0,19.2043 -3.65216,0 0,-19.26517 c -5e-5,-4.05794 -0.71527,-6.92387 -2.14565,-8.59781 -1.43048,-1.67388 -3.42395,-2.51083 -5.98042,-2.51086 -2.82032,3e-5 -5.00148,0.88263 -6.54347,2.64782 -1.54205,1.76524 -2.49567,4.02755 -2.86086,6.78694 -3e-5,0.14205 0.005,0.34495 0.0152,0.60869 0.0101,0.26379 0.0152,0.45654 0.0152,0.57826 l 0,19.75213 -3.6826,0 0,-19.26517 c -2e-5,-3.97678 -0.72538,-6.82243 -2.17608,-8.53694 -1.45074,-1.71446 -3.44421,-2.5717 -5.98042,-2.57173 -2.57682,3e-5 -4.62102,0.65437 -6.1326,1.96304 -1.5116,1.30872 -2.57174,3.06885 -3.18042,5.28042 l 0,23.13038 -3.6826,0 0,-32.93036 z"
         style="font-family:Roboto Light;-inkscape-font-specification:'Roboto Light, Light'"
         id="path4041" />
      <path
         d="m 355.18631,570.93565 c -3e-5,4.93044 -1.11597,8.86158 -3.34782,11.79346 -2.2319,2.93187 -5.30581,4.39781 -9.22172,4.39781 -2.31305,0 -4.33696,-0.43623 -6.07172,-1.30869 -1.73479,-0.87246 -3.15001,-2.12028 -4.24565,-3.74347 l 0,17.07388 -3.65216,0 0,-45.59121 3.0739,0 0.45653,5.11303 c 1.09564,-1.82605 2.51085,-3.23619 4.24564,-4.23042 1.73476,-0.99417 3.77896,-1.49127 6.13259,-1.4913 3.95649,3e-5 7.05069,1.57756 9.28259,4.73259 2.23185,3.1551 3.34779,7.36015 3.34782,12.61519 z m -3.65216,-0.63913 c -3e-5,-4.17968 -0.83191,-7.58836 -2.49565,-10.22606 -1.66379,-2.63765 -4.09856,-3.95648 -7.30433,-3.95651 -2.45509,3e-5 -4.44856,0.58336 -5.98043,1.74999 -1.53189,1.16669 -2.68333,2.68336 -3.45434,4.54999 l 0,15.82605 c 0.83188,1.8058 2.03405,3.22609 3.60652,4.26087 1.57245,1.03478 3.53548,1.55217 5.88912,1.55217 3.18548,0 5.60503,-1.1971 7.25868,-3.5913 1.65359,-2.39419 2.4804,-5.56954 2.48043,-9.52607 z"
         style="font-family:Roboto Light;-inkscape-font-specification:'Roboto Light, Light'"
         id="path4043" />
      <path
         d="m 367.4515,586.48779 -3.62173,0 0,-47.47815 3.62173,0 z"
         style="font-family:Roboto Light;-inkscape-font-specification:'Roboto Light, Light'"
         id="path4045" />
      <path
         d="m 389.85146,587.12692 c -4.11885,0 -7.54275,-1.52173 -10.27172,-4.56521 -2.72898,-3.04346 -4.09347,-6.89852 -4.09347,-11.56519 l 0,-1.67391 c 0,-4.70721 1.35434,-8.613 4.06304,-11.71736 2.70868,-3.10431 5.99055,-4.65648 9.84563,-4.65651 4.03765,3e-5 7.213,1.27829 9.52606,3.83477 2.31301,2.55654 3.46953,5.96523 3.46956,10.22606 l 0,3.10435 -23.25212,0 0,0.8826 c -10e-6,3.71305 0.98405,6.81739 2.95217,9.31303 1.9681,2.49565 4.55505,3.74347 7.76085,3.74347 2.27244,0 4.21011,-0.31449 5.81303,-0.94348 1.60287,-0.62898 2.97243,-1.53188 4.10869,-2.70869 l 1.55217,2.49565 c -1.23771,1.29855 -2.80509,2.32825 -4.70217,3.08912 -1.89712,0.76087 -4.15435,1.1413 -6.77172,1.1413 z m -0.45652,-31.07384 c -2.69856,3e-5 -4.96087,1.02973 -6.78694,3.08912 -1.82609,2.05944 -2.89131,4.64132 -3.19565,7.74564 l 0.0609,0.15217 19.29561,0 0,-0.91304 c -2e-5,-2.86084 -0.84205,-5.25504 -2.52608,-7.1826 -1.68408,-1.9275 -3.96668,-2.89126 -6.84781,-2.89129 z"
         style="font-family:Roboto Light;-inkscape-font-specification:'Roboto Light, Light'"
         id="path4047" />
      <path
         d="m 427.4992,586.48779 0,-29.94776 -5.44781,0 0,-2.9826 5.44781,0 0,-4.80869 c -10e-6,-3.30719 0.8268,-5.86371 2.48043,-7.66954 1.65361,-1.80575 3.97172,-2.70865 6.95433,-2.70869 0.66955,4e-5 1.34926,0.0508 2.03913,0.15217 0.68983,0.1015 1.38983,0.24353 2.09999,0.42609 l -0.45652,3.01303 c -0.48697,-0.12169 -0.98915,-0.21807 -1.50652,-0.28913 -0.5174,-0.071 -1.12103,-0.10647 -1.81086,-0.10652 -1.98842,5e-5 -3.51015,0.62903 -4.56521,1.88695 -1.05508,1.25801 -1.58262,3.02323 -1.5826,5.29564 l 0,4.80869 7.85215,0 0,2.9826 -7.85215,0 0,29.94776 z"
         style="font-family:Roboto Light;-inkscape-font-specification:'Roboto Light, Light'"
         id="path4049" />
      <path
         d="m 443.26439,569.53566 c -10e-6,-4.84925 1.32897,-8.82605 3.98694,-11.93041 2.65796,-3.10431 6.17824,-4.65648 10.56085,-4.65651 4.40287,3e-5 7.93329,1.5522 10.59128,4.65651 2.65794,3.10436 3.98692,7.08116 3.98695,11.93041 l 0,1.00434 c -3e-5,4.86957 -1.32394,8.85144 -3.97173,11.94563 -2.64785,3.09419 -6.16305,4.64129 -10.54563,4.64129 -4.42319,0 -7.96376,-1.5471 -10.62172,-4.64129 -2.65797,-3.09419 -3.98695,-7.07606 -3.98694,-11.94563 z m 3.65216,1.00434 c 0,3.8145 0.96376,7.02029 2.8913,9.61737 1.92752,2.5971 4.61592,3.89565 8.0652,3.89565 3.38838,0 6.05141,-1.29855 7.98911,-3.89565 1.93765,-2.59708 2.90649,-5.80287 2.90652,-9.61737 l 0,-1.00434 c -3e-5,-3.7536 -0.97394,-6.9391 -2.92173,-9.55651 -1.94785,-2.61735 -4.6261,-3.92604 -8.03477,-3.92607 -3.4087,3e-5 -6.07681,1.30872 -8.00433,3.92607 -1.92754,2.61741 -2.8913,5.80291 -2.8913,9.55651 z"
         style="font-family:Roboto Light;-inkscape-font-specification:'Roboto Light, Light'"
         id="path4051" />
      <path
         d="m 495.15557,556.69221 -2.70869,-0.18261 c -2.29276,3e-5 -4.17464,0.64423 -5.64564,1.9326 -1.47102,1.28843 -2.52101,3.05872 -3.14999,5.31086 l 0,22.73473 -3.65217,0 0,-32.93036 3.19565,0 0.45652,5.47825 0,0.36522 c 0.95361,-2.02896 2.23187,-3.61156 3.83477,-4.74782 1.60289,-1.1362 3.51013,-1.70431 5.72173,-1.70434 0.46665,3e-5 0.9181,0.0355 1.35435,0.10652 0.43621,0.071 0.79635,0.14713 1.08043,0.22826 z"
         style="font-family:Roboto Light;-inkscape-font-specification:'Roboto Light, Light'"
         id="path4053" />
      <path
         d="m 504.25556,553.55743 0.33478,5.44781 c 1.05506,-1.9275 2.46013,-3.4188 4.21521,-4.4739 1.75506,-1.05504 3.84998,-1.58257 6.28477,-1.5826 2.51592,3e-5 4.62098,0.60872 6.3152,1.82608 1.69418,1.21742 2.90649,3.07393 3.63695,5.56955 0.99417,-2.31301 2.40939,-4.12387 4.24565,-5.4326 1.83619,-1.30866 4.07314,-1.963 6.71085,-1.96303 3.5101,3e-5 6.21878,1.16669 8.12607,3.49999 1.90719,2.33335 2.86081,5.94494 2.86086,10.83476 l 0,19.2043 -3.65216,0 0,-19.26517 c -5e-5,-4.05794 -0.71526,-6.92387 -2.14565,-8.59781 -1.43047,-1.67388 -3.42395,-2.51083 -5.98042,-2.51086 -2.82032,3e-5 -5.00147,0.88263 -6.54347,2.64782 -1.54205,1.76524 -2.49567,4.02755 -2.86086,6.78694 -3e-5,0.14205 0.005,0.34495 0.0152,0.60869 0.0101,0.26379 0.0152,0.45654 0.0152,0.57826 l 0,19.75213 -3.6826,0 0,-19.26517 c -3e-5,-3.97678 -0.72539,-6.82243 -2.17609,-8.53694 -1.45074,-1.71446 -3.44421,-2.5717 -5.98042,-2.57173 -2.57682,3e-5 -4.62102,0.65437 -6.13259,1.96304 -1.5116,1.30872 -2.57175,3.06885 -3.18043,5.28042 l 0,23.13038 -3.6826,0 0,-32.93036 z"
         style="font-family:Roboto Light;-inkscape-font-specification:'Roboto Light, Light'"
         id="path4055" />
    </g>
  </g>
</svg>
