<?xml version="1.0" encoding="UTF-8" standalone="no"?>
<!-- Creator: CorelDRAW X6 -->

<svg
   xmlns:dc="http://purl.org/dc/elements/1.1/"
   xmlns:cc="http://creativecommons.org/ns#"
   xmlns:rdf="http://www.w3.org/1999/02/22-rdf-syntax-ns#"
   xmlns:svg="http://www.w3.org/2000/svg"
   xmlns="http://www.w3.org/2000/svg"
   xmlns:sodipodi="http://sodipodi.sourceforge.net/DTD/sodipodi-0.dtd"
   xmlns:inkscape="http://www.inkscape.org/namespaces/inkscape"
   xml:space="preserve"
   width="276.38077"
   height="212.84288"
   version="1.1"
   style="fill-rule:evenodd"
   viewBox="0 0 3070.9239 2364.9999"
   id="svg3013"
   inkscape:version="0.48.4 r9939"
   sodipodi:docname="Go Fetch It logo only.emf"><metadata
   id="metadata3039"><rdf:RDF><cc:Work
       rdf:about=""><dc:format>image/svg+xml</dc:format><dc:type
         rdf:resource="http://purl.org/dc/dcmitype/StillImage" /><dc:title></dc:title></cc:Work></rdf:RDF></metadata><sodipodi:namedview
   pagecolor="#ffffff"
   bordercolor="#666666"
   borderopacity="1"
   objecttolerance="10"
   gridtolerance="10"
   guidetolerance="10"
   inkscape:pageopacity="0"
   inkscape:pageshadow="2"
   inkscape:window-width="948"
   inkscape:window-height="701"
   id="namedview3037"
   showgrid="false"
   inkscape:zoom="0.61685684"
   inkscape:cx="490.96266"
   inkscape:cy="193.19638"
   inkscape:window-x="153"
   inkscape:window-y="102"
   inkscape:window-maximized="0"
   inkscape:current-layer="svg3013"
   fit-margin-top="0"
   fit-margin-left="0"
   fit-margin-right="0"
   fit-margin-bottom="0" />
 <defs
   id="defs3015">
  <style
   type="text/css"
   id="style3017">
   
    .fil0 {fill:none}
    .fil2 {fill:#F08519}
    .fil3 {fill:#DCDDDD}
    .fil4 {fill:#FEFEFE}
    .fil1 {fill:#010101}
   
  </style>
 
  
  
  
  
  
  
  
  
  
 
 <style
   id="style2999"
   type="text/css">
   
    .fil0 {fill:none}
    .fil2 {fill:#F08519}
    .fil3 {fill:#DCDDDD}
    .fil4 {fill:#FEFEFE}
    .fil1 {fill:#010101}
   
  </style>
  
  
  
  
  
  
  
  
  
  
 </defs>
 
<rect
   id="rect3003"
   height="8268"
   width="11693"
   class="fil0"
   x="-1429.0547"
   y="-4248.9409"
   style="fill:none" /><path
   id="path3005"
   d="m -0.14501662,2124 c 0,155 105.99999662,239 219.99999662,239 78,0 123,-39 123,-39 l 1,0 c 0,0 -1,10 -1,19 l 0,13 95,0 0,-211 c 0,-32 -14,-46 -46,-46 l -96,0 0,95 27,0 c 9,0 14,5 14,14 l 0,17 c 0,0 -34,33 -94,33 -65,0 -125,-45 -125,-135 0,-80 59,-127 120,-127 60,0 105,36 105,36 l 64,-81 c 0,0 -55,-59 -171,-59 -135.999997,0 -235.99999662,101 -235.99999662,231 z M 2217.855,2356 l 110,0 0,-145 c 0,-15 1,-29 6,-42 10,-29 32,-48 66,-48 24,0 36,13 36,43 l 0,146 c 0,32 14,46 46,46 l 102,0 0,-92 -24,0 c -9,0 -14,-5 -14,-14 l 0,-106 c 0,-92 -52,-123 -118,-123 -43,0 -81,20 -100,52 l -1,0 c 0,0 1,-11 1,-28 l 0,-97 c 0,-32 -14,-46 -46,-46 l -102,0 0,92 24,0 c 9,0 14,5 14,14 l 0,349 z m -377,-164 c 0,90 66,172 183,172 94,0 145,-64 145,-64 l -44,-74 c 0,0 -43,43 -90,43 -41,0 -83,-22 -83,-78 0,-44 28,-79 74,-79 13,0 25,4 25,14 l 0,17 95,0 0,-45 c 0,-59 -75,-77 -121,-77 -124,0 -185,85 -185,171 z m -215,43 c 0,110 101,124 153,124 18,0 30,-2 30,-2 l 0,-95 c 0,0 -6,1 -15,1 -21,0 -59,-5 -59,-42 l 0,-106 69,0 0,-86 -69,0 0,-88 -107,0 0,88 -45,0 0,86 42,0 0,121 z m -393,-43 c 0,87 63,172 180,172 87,0 140,-52 140,-52 l -44,-74 c 0,0 -40,34 -87,34 -35,0 -68,-18 -76,-60 l 207,0 c 0,0 3,-22 3,-33 0,-91 -55,-159 -152,-159 -106,0 -171,75 -171,171 z m 116,-46 c 7,-24 23,-42 55,-42 23,0 39,22 39,42 l -94,0 z m -418.00002,211 114.00002,0 0,-169 130,0 0,-95 -130,0 0,-95 49,0 c 9,0 14,5 14,14 l 0,25 102,0 0,-88 c 0,-32 -14,-46 -46,-46 l -274.00002,0 0,95 41,0 0,360 z m -446,-163 c 0,102 82,171 185,171 103,0 185,-68 185,-171 0,-103 -82,-173 -186,-173 -102,0 -185,69 -185,173 z m 111,0 c 0,-50 34,-81 74,-81 40,0 74,31 74,81 0,49 -34,79 -74,79 -40,0 -74,-30 -74,-79 z"
   class="fil1"
   inkscape:connector-curvature="0"
   style="fill:#010101;fill-rule:evenodd" /><polygon
   id="polygon3007"
   points="6974,5212 6926,5212 6926,5307 7129,5307 7129,5212 7081,5212 7081,4948 7129,4948 7129,4852 6926,4852 6926,4948 6974,4948 "
   class="fil2"
   style="fill:#f08519;fill-rule:evenodd"
   transform="translate(-4311.145,-2952)" /><path
   id="path3009"
   d="m 2887.855,2234 c 0,110 101,124 153,124 18,0 30,-2 30,-2 l 0,-95 c 0,0 -6,1 -15,1 -21,0 -59,-5 -59,-42 l 0,-106 69,0 0,-86 -69,0 0,-88 -107,0 0,88 -45,0 0,86 42,0 0,121 z"
   class="fil2"
   inkscape:connector-curvature="0"
   style="fill:#f08519;fill-rule:evenodd" /><ellipse
   id="ellipse3011"
   ry="17"
   rx="890"
   cy="4574"
   cx="5846"
   class="fil3"
   sodipodi:cx="5846"
   sodipodi:cy="4574"
   sodipodi:rx="890"
   sodipodi:ry="17"
   style="fill:#dcdddd;fill-rule:evenodd"
   d="m 6736,4574 c 0,9.3888 -398.4666,17 -890,17 -491.5334,0 -890,-7.6112 -890,-17 0,-9.3888 398.4666,-17 890,-17 491.5334,0 890,7.6112 890,17 z"
   transform="translate(-4311.145,-2952)" /><path
   id="path3013"
   d="m 2388.855,35 38,-35 191,2 c 14,0 25,12 25,25 l 0,32 0,44 c -6,-4 -14,-7 -23,-7 l -182,-2 -37,-35 -199,-2 c -3,0 -6,0 -9,1 -6,0 -11,1 -16,2 l 0,-5 c 0,-12 10,-23 23,-22 l 190,2 z"
   class="fil2"
   inkscape:connector-curvature="0"
   style="fill:#f08519;fill-rule:evenodd" /><path
   id="path3015"
   d="m 505.85498,331 c 82,165 243,208 419,244 -47,168 -122,215 -60,402 41,122 -3,190 -74,261 -2,3 -5,5 -8,8 -42,40 -42,101 -22,140 8,16 13,34 20,52 9,24 28,79 31,120 5,73 65,74 77,73 l 90,1 c 19,0 52.00002,-19 19,-28 -12,-3 -29,-8 -33,-10 -67,-26 -146,-56 -105,-245 30,-136 133,-71 218.00002,-172 203,-241 -34,-233 486,-143 240,42 344,-158 400,155 20,110 15,234 55,349 2,7 21,28 39,47 25,27 20,33 55,32 l 97,-3 c 23,-1 48,-9 18,-31 l -102,-51 c -46,-39 -67,-57 -62,-158 13,-263 147,-398 150,-621 2,-153 35,-250 79,-310 l -2,3 -108,-1 c -14,0 -26,-12 -25,-25 l 16,-144 -1,114 c 0,14 11,25 25,25 l 118,1 -2,2 2,-2 298,3 c 14,0 25,-11 25,-25 l 3,-257 c 0,-12 -10,-23 -22,-23 l -190,-2 -37,-35 -191,-2 c -2,0 -4,0 -6,1 -47,3 -93,23 -129,59 -134,136 -186,498 -698,388 -167,-36 -140,-27 -306,-15 -194.00002,14 -356.00002,18 -577.00002,-224 l 20,46 z M 2303.855,432 c 1,-2 3,-3 4,-5 -1,1 -3,3 -4,5 z"
   class="fil1"
   inkscape:connector-curvature="0"
   style="fill:#010101;fill-rule:evenodd" /><ellipse
   id="ellipse3017"
   ry="8"
   rx="15"
   transform="matrix(1.46507,0.544965,-0.544965,1.46507,2381.065,132.99)"
   class="fil4"
   cx="0"
   cy="0"
   sodipodi:cx="0"
   sodipodi:cy="0"
   sodipodi:rx="15"
   sodipodi:ry="8"
   style="fill:#fefefe;fill-rule:evenodd"
   d="M 15,0 C 15,4.418278 8.2842712,8 0,8 -8.2842712,8 -15,4.418278 -15,0 c 0,-4.418278 6.7157288,-8 15,-8 8.2842712,0 15,3.581722 15,8 z" /></svg>