<?xml version="1.0" encoding="UTF-8" standalone="no"?>
<!-- Creator: CorelDRAW X6 -->

<svg
   xmlns:dc="http://purl.org/dc/elements/1.1/"
   xmlns:cc="http://creativecommons.org/ns#"
   xmlns:rdf="http://www.w3.org/1999/02/22-rdf-syntax-ns#"
   xmlns:svg="http://www.w3.org/2000/svg"
   xmlns="http://www.w3.org/2000/svg"
   xmlns:sodipodi="http://sodipodi.sourceforge.net/DTD/sodipodi-0.dtd"
   xmlns:inkscape="http://www.inkscape.org/namespaces/inkscape"
   xml:space="preserve"
   width="276.38077"
   height="42.568577"
   version="1.1"
   style="fill-rule:evenodd"
   viewBox="0 0 3070.9239 472.99999"
   id="svg3013"
   inkscape:version="0.48.4 r9939"
   sodipodi:docname="Go Fetch It.svg"><metadata
   id="metadata3039"><rdf:RDF><cc:Work
       rdf:about=""><dc:format>image/svg+xml</dc:format><dc:type
         rdf:resource="http://purl.org/dc/dcmitype/StillImage" /><dc:title></dc:title></cc:Work></rdf:RDF></metadata><sodipodi:namedview
   pagecolor="#ffffff"
   bordercolor="#666666"
   borderopacity="1"
   objecttolerance="10"
   gridtolerance="10"
   guidetolerance="10"
   inkscape:pageopacity="0"
   inkscape:pageshadow="2"
   inkscape:window-width="948"
   inkscape:window-height="701"
   id="namedview3037"
   showgrid="false"
   inkscape:zoom="0.43618365"
   inkscape:cx="252.35548"
   inkscape:cy="-539.42522"
   inkscape:window-x="153"
   inkscape:window-y="102"
   inkscape:window-maximized="0"
   inkscape:current-layer="svg3013"
   fit-margin-top="0"
   fit-margin-left="0"
   fit-margin-right="0"
   fit-margin-bottom="0" />
 <defs
   id="defs3015">
  <style
   type="text/css"
   id="style3017">
   
    .fil0 {fill:none}
    .fil2 {fill:#F08519}
    .fil3 {fill:#DCDDDD}
    .fil4 {fill:#FEFEFE}
    .fil1 {fill:#010101}
   
  </style>
 
  
  
  
  
  
  
  
  
  
 
 <style
   id="style2999"
   type="text/css">
   
    .fil0 {fill:none}
    .fil2 {fill:#F08519}
    .fil3 {fill:#DCDDDD}
    .fil4 {fill:#FEFEFE}
    .fil1 {fill:#010101}
   
  </style>
  
  
  
  
  
  
  
  
  
  
 </defs>
 
<g
   id="g2991"
   transform="translate(-1429.0165,-6140.9409)"><path
     style="fill:#010101;fill-rule:evenodd"
     inkscape:connector-curvature="0"
     class="fil1"
     d="m 1428.8716,6372.9409 c 0,155 106,239 220,239 78,0 123,-39 123,-39 l 1,0 c 0,0 -1,10 -1,19 l 0,13 95,0 0,-211 c 0,-32 -14,-46 -46,-46 l -96,0 0,95 27,0 c 9,0 14,5 14,14 l 0,17 c 0,0 -34,33 -94,33 -65,0 -125,-45 -125,-135 0,-80 59,-127 120,-127 60,0 105,36 105,36 l 64,-81 c 0,0 -55,-59 -171,-59 -136,0 -236,101 -236,231 z m 2218,232 110,0 0,-145 c 0,-15 1,-29 6,-42 10,-29 32,-48 66,-48 24,0 36,13 36,43 l 0,146 c 0,32 14,46 46,46 l 102,0 0,-92 -24,0 c -9,0 -14,-5 -14,-14 l 0,-106 c 0,-92 -52,-123 -118,-123 -43,0 -81,20 -100,52 l -1,0 c 0,0 1,-11 1,-28 l 0,-97 c 0,-32 -14,-46 -46,-46 l -102,0 0,92 24,0 c 9,0 14,5 14,14 l 0,349 z m -377,-164 c 0,90 66,172 183,172 94,0 145,-64 145,-64 l -44,-74 c 0,0 -43,43 -90,43 -41,0 -83,-22 -83,-78 0,-44 28,-79 74,-79 13,0 25,4 25,14 l 0,17 95,0 0,-45 c 0,-59 -75,-77 -121,-77 -124,0 -185,85 -185,171 z m -215,43 c 0,110 101,124 153,124 18,0 30,-2 30,-2 l 0,-95 c 0,0 -6,1 -15,1 -21,0 -59,-5 -59,-42 l 0,-106 69,0 0,-86 -69,0 0,-88 -107,0 0,88 -45,0 0,86 42,0 0,121 z m -393,-43 c 0,87 63,172 180,172 87,0 140,-52 140,-52 l -44,-74 c 0,0 -40,34 -87,34 -35,0 -68,-18 -76,-60 l 207,0 c 0,0 3,-22 3,-33 0,-91 -55,-159 -152,-159 -106,0 -171,75 -171,171 z m 116,-46 c 7,-24 23,-42 55,-42 23,0 39,22 39,42 l -94,0 z m -418,211 114,0 0,-169 130,0 0,-95 -130,0 0,-95 49,0 c 9,0 14,5 14,14 l 0,25 102,0 0,-88 c 0,-32 -14,-46 -46,-46 l -274,0 0,95 41,0 0,360 z m -446,-163 c 0,102 82,171 185,171 103,0 185,-68 185,-171 0,-103 -82,-173 -186,-173 -102,0 -185,69 -185,173 z m 111,0 c 0,-50 34,-81 74,-81 40,0 74,31 74,81 0,49 -34,79 -74,79 -40,0 -74,-30 -74,-79 z"
     id="path3005" /><polygon
     transform="translate(-2882.1284,1296.9409)"
     style="fill:#f08519;fill-rule:evenodd"
     class="fil2"
     points="7129,4948 7129,4852 6926,4852 6926,4948 6974,4948 6974,5212 6926,5212 6926,5307 7129,5307 7129,5212 7081,5212 7081,4948 "
     id="polygon3007" /><path
     style="fill:#f08519;fill-rule:evenodd"
     inkscape:connector-curvature="0"
     class="fil2"
     d="m 4316.8716,6482.9409 c 0,110 101,124 153,124 18,0 30,-2 30,-2 l 0,-95 c 0,0 -6,1 -15,1 -21,0 -59,-5 -59,-42 l 0,-106 69,0 0,-86 -69,0 0,-88 -107,0 0,88 -45,0 0,86 42,0 0,121 z"
     id="path3009" /></g></svg>