<?xml version="1.0" encoding="UTF-8" standalone="no"?>
<!-- Creator: CorelDRAW X6 -->

<svg
   xmlns:dc="http://purl.org/dc/elements/1.1/"
   xmlns:cc="http://creativecommons.org/ns#"
   xmlns:rdf="http://www.w3.org/1999/02/22-rdf-syntax-ns#"
   xmlns:svg="http://www.w3.org/2000/svg"
   xmlns="http://www.w3.org/2000/svg"
   xmlns:sodipodi="http://sodipodi.sourceforge.net/DTD/sodipodi-0.dtd"
   xmlns:inkscape="http://www.inkscape.org/namespaces/inkscape"
   xml:space="preserve"
   width="201"
   height="153"
   version="1.1"
   style="fill-rule:evenodd"
   viewBox="0 0 2233.3526 1700.0568"
   id="svg3013"
   inkscape:version="0.48.4 r9939"
   sodipodi:docname="logo_dog_bw.svg"><metadata
   id="metadata3039"><rdf:RDF><cc:Work
       rdf:about=""><dc:format>image/svg+xml</dc:format><dc:type
         rdf:resource="http://purl.org/dc/dcmitype/StillImage" /><dc:title /></cc:Work></rdf:RDF></metadata><sodipodi:namedview
   pagecolor="#ffffff"
   bordercolor="#666666"
   borderopacity="1"
   objecttolerance="10"
   gridtolerance="10"
   guidetolerance="10"
   inkscape:pageopacity="0"
   inkscape:pageshadow="2"
   inkscape:window-width="948"
   inkscape:window-height="701"
   id="namedview3037"
   showgrid="false"
   inkscape:zoom="1.7447346"
   inkscape:cx="90.259113"
   inkscape:cy="121.58677"
   inkscape:window-x="213"
   inkscape:window-y="136"
   inkscape:window-maximized="0"
   inkscape:current-layer="svg3013" />
 <defs
   id="defs3015">
  <style
   type="text/css"
   id="style3017">
   
    .fil0 {fill:none}
    .fil2 {fill:#F08519}
    .fil3 {fill:#DCDDDD}
    .fil4 {fill:#FEFEFE}
    .fil1 {fill:#010101}
   
  </style>
 
  
  
  
  
  
  
  
  
  
 </defs>
 <ellipse
   style="fill:#222222;fill-opacity:1"
   sodipodi:ry="17"
   sodipodi:rx="890"
   sodipodi:cy="4574"
   sodipodi:cx="5846"
   d="m 6736,4574 c 0,9.3888 -398.4666,17 -890,17 -491.5334,0 -890,-7.6112 -890,-17 0,-9.3888 398.4666,-17 890,-17 491.5334,0 890,7.6112 890,17 z"
   id="ellipse3029"
   ry="17"
   rx="890"
   cy="4574"
   cx="5846"
   class="fil3"
   transform="translate(-4755.451,-2911.2906)" /><path
   style="fill:#555555;fill-opacity:1"
   inkscape:connector-curvature="0"
   id="path3031"
   d="m 1944.549,75.7094 38,-35 191,2 c 14,0 25,12 25,25 l 0,32 0,44 c -6,-4 -14,-7 -23,-7 l -182,-2 -37,-35 -199,-2 c -3,0 -6,0 -9,1 -6,0 -11,1 -16,2 l 0,-5 c 0,-12 10,-23 23,-22 l 190,2 z"
   class="fil2" /><path
   style="fill:#333333;fill-opacity:1"
   inkscape:connector-curvature="0"
   id="path3033"
   d="m 61.549,371.7094 c 82,165 243,208 419,244 -47,168 -122,215 -60,402 41,122 -3,190 -74,261 -2,3 -5,5 -8,8 -42,40 -42,101 -22,140 8,16 13,34 20,52 9,24 28,79 31,120 5,73 65,74 77,73 l 90,1 c 19,0 52,-19 19,-28 -12,-3 -29,-8 -33,-10 -67,-26 -146,-56 -105,-245 30,-136 133,-71 218,-172 203,-241 -34,-233 486,-143 240,42 344,-158 400,155 20,110 15,234 55,349 2,7 21,28 39,47 25,27 20,33 55,32 l 97,-3 c 23,-1 48,-9 18,-31 l -102,-51 c -46,-39 -67,-57 -62,-158 13,-263 147,-398 150,-621 2,-153 35,-250 79,-310 l -2,3 -108,-1 c -14,0 -26,-12 -25,-25 l 16,-144 -1,114 c 0,14 11,25 25,25 l 118,1 -2,2 2,-2 298,3 c 14,0 25,-11 25,-25 l 3,-257 c 0,-12 -10,-23 -22,-23 l -190,-2 -37,-35 -191,-2 c -2,0 -4,0 -6,1 -47,3 -93,23 -129,59 -134,136 -186,498 -698,388 -167,-36 -140,-27 -306,-15 -194,14 -356,18 -577,-224 l 20,46 z m 1798,101 c 1,-2 3,-3 4,-5 -1,1 -3,3 -4,5 z"
   class="fil1" /><ellipse
   style="fill:#fefefe"
   sodipodi:ry="8"
   sodipodi:rx="15"
   sodipodi:cy="0"
   sodipodi:cx="0"
   cy="0"
   cx="0"
   d="M 15,0 C 15,4.418278 8.2842712,8 0,8 -8.2842712,8 -15,4.418278 -15,0 c 0,-4.418278 6.7157288,-8 15,-8 8.2842712,0 15,3.581722 15,8 z"
   id="ellipse3035"
   ry="8"
   rx="15"
   transform="matrix(1.46507,0.544965,-0.544965,1.46507,1936.759,173.6994)"
   class="fil4" />
</svg>